<?xml version="1.0" encoding="utf-8"?>
<svg viewBox="219.657 -0.592 516.578 516.578" xmlns="http://www.w3.org/2000/svg">
  <g transform="matrix(1, 0, 0, 1, -3261.205078, -712.292603)">
    <path d="M3480.145,1228.263c22.762,0,495.589,0,518.307,0V711.716H3480.34C3480.332,734.388,3480.154,1205.594,3480.145,1228.263z M3495.169,741.223c-0.686,2.083-11.819,6.335-6.57-1.962C3490.415,736.398,3496.19,738.12,3495.169,741.223z M3498.946,762.249 c-5.159,6.222-8.737-2.566-7.68-4.276C3493.464,754.421,3503.857,756.338,3498.946,762.249z M3507.048,768.72 c10.305,1.026,20.409,5.112,4.789,3.671c-22.33-2.063-21.979,11.164-16.369,11.164c8.241,0,0.547,9.002-6.556,4.03 C3479.935,781.295,3490.184,767.042,3507.048,768.72z M3509.443,758.291c0.527-1.539,19.747,8.721,27.054,14.443 c7.83,6.12-24.488-11.237-26.198-11.87C3509.46,760.549,3509.067,759.393,3509.443,758.291z M3517.614,812.631 c4.264,0,8.087,4.413,4.986,5.754c-3.807,1.651,5.487,4.558,5.487,9.849c0,7.341-4.979-7.05-18.011-7.05 c-2.993,0-12.156,8.569-14.6,10.716c2.229-13.935,2.925-14.137-2.133-14.137c-8.171,0-7.716-6.85,0.742-11.225 c9.787-5.059-0.115-20.746,15.994-6.537c11.398,10.052,4.324,5.61,4.324,10.066 C3514.403,811.477,3515.848,812.631,3517.614,812.631z M3534.697,814.569c-1.712,2.227-3.228,3.087-3.366,1.911 c-1.502-12.744,2.733-14.111,9.089-14.111c21.822,0,2.364,48.244,5.752,28.65C3548.801,815.813,3541.638,805.543,3534.697,814.569z M3611.514,784.312c1.122,1.122,1.309,0.951-6.906,6.419c-8.656,5.766-17.12,14.12-25.157,20.903 C3563.713,824.91,3606.412,779.21,3611.514,784.312z M3571.801,801.929c-3.097-10.969,4.339-25.217,13.164-25.217 c4.998,0,14.607,6.842,1.485,6.842c-3.771,0-7.539,1.093-8.735,2.533C3573.384,791.309,3574.444,811.275,3571.801,801.929z M3592.227,767.94c-23.382-7.191-30.529-13.919-8.048-7.575c14.282,4.03,27.006,10.317,28.439,14.053 C3614.563,779.487,3612.733,774.246,3592.227,767.94z M3579.863,820.279c18.211-17.079,36.307-30.615,38.839-29.05 c4.604,2.844,0.508,8.056-18.245,23.209c-22.16,17.906-43.742,42.227-52.275,58.914c-11.128,21.755-13.393,46.106-15.685,35.669 C3528.499,890.827,3552.414,846.024,3579.863,820.279z M3760.047,812.103c4.698,2.971,2.343,2.552-3.536-0.629 c-12.029-6.508-25.526-29.63-6.05-29.63c6.328,0,8.049,2.742,2.583,4.114c-2.319,0.581-5.025,2.572-6.016,4.423 C3743.487,796.998,3747.959,804.461,3760.047,812.103z M3783.611,833.572c-10.026-1.091-10.043-1.103-3.375-2.244 c20.26-3.47,43.891,15.813,39.456,8.636c-1.351-2.186-16.671-10.047-20.504-12.088l9.618,0.783 c11.658,0.949,19.648,4.897,33.069,16.338c5.603,4.775,10.851,8.684,11.662,8.684c3.761,0-8.672-13.434-18.628-20.125 c-2.807-1.887-2.449-2.029,2.764-1.098c9.565,1.704,15.488,11.525,17.39,5.831c1.324-3.965,35.746,11.135,55.041,39.338 c13.047,19.075,13.09,19.172,13.09,30.167c0,5.875-0.77,11.157-1.71,11.739c-2.874,1.775-0.594,15.529-3.354,11.167 c-3.946-6.236-3.474,8.501-9.409,16.232c-2.282,2.973-2.273,2.446,0.072-4.309c4.68-13.475,5.022-29.97,0.956-46.048 c-4.893-19.353-13.078-31.884-26.322-40.299c-7.197-4.572-5.776-0.174,2.963,9.168c13.339,14.263,12.565,20.619,13.68,47.247 c-4.346,0.501-9.358,0.51-9.39,3.961c-0.029,4.986-7.895,19.795-13.023,24.514c-5.263,4.847-16.03,11.771-17.74,11.641 c-1.129-0.086-15.026-28.91-15.526-29.926l3.501-11.333c4.882-15.804,2.217-21.933-5.08-11.686 c-3.674,5.159-10.263,7.038-10.263,2.928c0-1.213-1.493-5.133-3.318-8.713c-7.054-13.83-1.76-31.242-16.507-47.184 c-8.403-9.082-9.385-7.63-1.673,2.473c18.011,23.614-8.113-4.238-32.271-4.238c-20.759,0-55.997,19.531-24.702,13.401 c26.932-5.278,49.979,0.718,42.181,8.516c-1.628,1.627-0.38,3.64,5.773,9.322c8.6,7.938,11.696,16.938,11.696,33.991v8.619 c-19.215-2.826-25.658-2.956-32.664-8.119c-7.598-5.607-11.113-5.585-7.423,0.046c9.098,13.887-23.434,6.195-35.19,2.468 c-11.046-3.501-25.742-10.565-44.008,9.421c-11.699,12.797-17.744,29.453-14.809,16.836c3.559-15.305,13.647-29.481,24.199-34.008 c3.058-1.31,5.559-3.144,5.559-4.071c0-11.361-30.274,22.235-19.711,1.813c3.592-6.946,12.873-12.077,29.744-16.444 c8.054-2.085,14.956-4.726,15.337-5.867c0.905-2.726-2.29-0.984-17.515,3.371c-5.836,1.668-13.071,4.305-16.074,5.86 c-7.37,3.811-7.092,0.465,0.522-6.276c8.321-7.37,5.2-14.927,25.778-27.372c16.188-9.787,24.245-21.531,55.115-19.603 C3798.993,838.057,3799.799,835.335,3783.611,833.572z M3831.84,775.693c-10.99-3.563-13.931-6.057-4.697-3.982 c56.162,12.623,44.632,60.52,11.385,42.068l7.683-1.856C3867.034,806.889,3858.027,784.184,3831.84,775.693z M3825.142,754.239 c-0.566-2.164,0.073-3.173,2-3.152c19.211,0.202,128.04,27.336,74.516,27.336c-11.58,0-14.698,0.539-15.519,2.68 c-2.814,7.327,20.2,12.712,21.911,12.712c9.631,0.003,23.891,33.794,11.732,29.938c-3.003-0.954-3.429-0.316-3.429,5.145 c0,9.551-9.708,16.232-14.539,16.232c-14.92,0-18.473-26.159-9.395-14.954c2.619,3.234,3.578,3.453,7.437,1.695 c13.615-6.204,5.236-46.443-86.983-69.212l6.551-2.617C3824.422,758.043,3825.777,756.668,3825.142,754.239z M3938.514,750.834 c-2.525-7.651-1.161-10.297,3.108-6.027c8.215,8.219-0.576,41.804-32.137,43.59c-14.604,0.826-17.314-2.277-3.369-3.854 c12.51-1.416,20.058-4.435,26.041-10.418C3938.935,767.348,3941.211,759.006,3938.514,750.834z M3969.375,782.964 c-5.085-7.534-6.594-13.093-3.554-13.093c0.869,0,2.424,2.561,3.457,5.691c1.033,3.13,4.104,7.338,6.825,9.349 c9.506,7.028,7.865,20.539-3.298,27.132c-2.827,1.669-5.14,4.409-5.14,6.089c0,5.065-15.681,5.189-30.774-8.908 c-5.665-5.292-20.539-16.353-20.539-16.353c0-0.484,18.153-7.736,18.601-7.917c5.54,3.771,24.664,18.029,34.917,14.131 C3975.943,796.776,3975.811,792.501,3969.375,782.964z M3915.633,975.773c9.236-7.569,10.36-4.025,1.451,4.572 c-5.049,4.871-5.999,6.872-5.467,11.532c1.067,9.322-18.37,26.12-24.893,29.279c-14.371,6.953-37.499,1.842-21.377-0.368 c4.724-0.646,39.434-11.525,13.531-8.094c-22.037,2.915-46.323-9.884-29.32-12.756c9.238-1.563,8.445-3.862,0.949-11.126 c-4.762-4.616-16.256-24.828-16.256-28.588c0-1.678,21.531,1.692,26.243,4.107c5.419,2.776,7.11,1.964,7.11-3.421 c0-3.426,0.864-3.643,14.583-3.695c50.047-0.183,42.998-50.495,46.696-36.675c2.088,7.805,1.216,14.653-2.27,17.807 c-8.154,7.384,0.573,9.808,2.288,5.559c0.842-2.087,5.024-1.185-9.985,12.941c9.498-2.338,12.636-3.802,4.314,7.688 c-3.845,5.307-8.665,8.759-19.67,14.085C3872.476,993.669,3896.756,991.24,3915.633,975.773z M3852.639,1140.474 c2.586,1.62,5.066,3.217,5.509,3.554c0.443,0.335-0.327,1.326-1.71,2.201c-6.026,3.811-16.338,0.333-18.885-6.368 c-9.944-26.159,47.442-28.133,66.439-43.712c5.388-4.42,7.558,3.34-29.183,17.533c-9.927,3.833-20.034,8.533-22.461,10.442 C3846.213,1128.951,3846.348,1136.539,3852.639,1140.474z M3918.866,1118.172c5.336-8.198,9.633-13.059,11.545-13.059 c1.675,0,3.045,0.799,3.045,1.774c0,5.1-27.324,55.134-28.251,60.14c-2.603,14.036-3.987,12.481-41.738,12.655l-36.058,0.164 v-19.499C3848.684,1158.55,3893.376,1157.334,3918.866,1118.172z M3916.01,1100.551c-11.232,9.857-14.432,13.938-20.45,26.084 c-17.226,34.764-12.762-3.166,16.393-30.074c0.746-0.689,29.512-29.077,30.514-29.077 C3948.013,1067.484,3934.636,1084.203,3916.01,1100.551z M3931.109,1072.16c-3.97,5.831-8.998,9.929-19.483,15.878 c-13.836,7.849-43.648,19.815-62.105,24.928c-8.968,2.482-56.29,5.449-58.03,3.638c-0.686-0.713-18.233-2.465-28.649-2.858 c-1.177-0.044-2.138-1.112-2.138-2.371c0-4.122,8.973-6.65,22.663-6.385c11.698,0.226,13.254-0.103,13.23-2.803 c-0.072-8.393-10.268-13.102-24.96-11.53c-10.056,1.078-11.59,0.794-17.768-3.296c-21.225-14.042-30.837-45.533-21.272-45.533 c1.7,0,2.451-2.005,2.451-6.544c0-15.012,22.172-22.159,31.995-10.312c2.867,3.457,4.88,16.856,2.533,16.856 c-1.006,0-2.333-0.818-2.95-1.817c-1.704-2.754-16.184-10.557-16.184,6.563c0,7.714,0.475,8.497,11.438,18.832 c16.875,15.907,34.167,23.989,56.673,26.486c39.86,4.423,79.297-6.318,108.121-29.452c5.92-4.752,11.367-8.639,12.106-8.639 C3940.987,1053.8,3936.825,1063.764,3931.109,1072.16z M3818.188,1180.372c-3.333,0-2.891,5-3.06,11.118l-1.625-5.986 c-5.405-19.913-10.776-18.623-6.926-7.914c5.23,14.542-6.308,28.492-3.609,18.177c1.427-5.453-2.068-3.956-4.755,2.037 c-1.344,3.002-3.484,5.785-4.755,6.185c-4.457,1.408,3.818-4.823,1.449-10.928c-1.659-4.271-11.299-12.688-14.533-12.688 c-2.33,0-21.142-11.003-7.697-17.959c6.082-3.145,6.077-3.127,1.724-9.048c-10.179-13.844-1.026-32.857,1.817-32.857 c1.526,0,18.695,20.575,18.695,22.405c0,3.354,2.773,1.267,4.541-3.416c2.189-5.802,10.194-11.316,8.449-5.821 c-0.645,2.032,1.115,6.508,4.818,12.253c8.663,13.447,10.562,18.76,8.107,22.687 C3817.265,1174.325,3823.055,1180.372,3818.188,1180.372z M3680.38,1183.854c127.638-0.146,143.905,4.94,6.674,5.015 C3559.657,1188.939,3543.213,1184.01,3680.38,1183.854z M3593.32,1196.672c-3.339-3.245,20.277,3.648,21.673,5.039 C3617.061,1203.779,3598.304,1201.516,3593.32,1196.672z M3580.223,902.144c-7.232-4.042-8.282-4.185-16.384-2.242 c-13.976,3.354-24.54,16.271-23.486,10.817c1.081-5.626,26.292-20.86,42.039-10.976 C3590.847,905.05,3589.027,907.065,3580.223,902.144z M3582.82,922.953c0,1.411-0.193,2.506-0.427,2.43 c-5.147-1.625-6.59-4.996-2.138-4.996C3581.665,920.388,3582.82,921.542,3582.82,922.953z M3557.281,912.617 c-2.033,1.257-4.079-1.945-2.684-4.203C3557.737,903.335,3560.879,910.397,3557.281,912.617z M3541.563,920.583 c3.549-5.414,6.807-11.574,9.57-7.11C3552.386,915.506,3543.817,919.416,3541.563,920.583z M3606.426,848.405 c8.176,2.261,10.82,6.055,6.45,9.252c-2.625,1.919-2.497,2.451,1.497,6.202c10.043,9.436,2.143,27.452-12.04,27.452 c-11.932,0-22.728-12.271-27.35-8.436c-4.555,3.778-0.347,9.537-5.054,4.83c-4.339-4.339-1.055-14.604,15.967-5.976 c17.302,8.768,23.619-5.01,21.909-10.312c-4.049-12.536-40.669-22.083-60.819,20.749c-7.437,15.818-1.625-12.002,14.201-28.372 C3576.416,848.039,3589.28,843.662,3606.426,848.405z M3612.531,828.672c11.174,2.808,3.404,22.119,0.59,11.367 c-1.479-5.658-8.499-7.77-15.014-4.521C3580.841,844.132,3602.216,826.084,3612.531,828.672z M3689.954,1051.291 c11.104,7.083,39.962,28.183,39.962,29.218c0,0.363-1.348,0.655-2.993,0.652c-3.299-0.009-12.854-6.079-24.502-15.567 c-17.224-14.029-43.316-26.065-64.83-29.903c-15.548-2.774-17.142-2.005-17.142-4.125 C3620.449,1027.677,3655.809,1029.511,3689.954,1051.291z M3625.05,821.3c7.574-2.879,6.919-3.26,37.304-4.392 c0.737,37.055,2.071,96.416,2.338,160.352c0.212,50.748,0.031,54.29-2.766,54.07c-3.51-0.275-33.435-6.544-34.017-7.126 c-0.217-0.217-0.949-45.961-1.628-101.65L3625.05,821.3z M3670.149,820.597c1.721,1.721,6.855,222.485-0.667,214.959 C3668.102,1034.177,3667.494,817.942,3670.149,820.597z M3698.347,965.286c4.362-25.774,25.706-41.478,27.417-41.478 c4.517,0,2.424,15.962,9.284,7.697c4.917-5.927,20.93,0.303,27.866,1.702c2.627,0.532,5.2,2.066,5.716,3.412 c1.58,4.117-7.228,20.797-15.845,30.011c-6.565,7.016-7.675,9.028-5.678,10.29c1.363,0.864,3.441,1.582,4.618,1.596 c2.28,0.027,8.253,12.346-18.307,35.631c-13.052,11.441-15.563,16.293-16.96,31.559c-1.208,13.215-3.646,13.793-3.646,0.865 c0-5.143-0.659-7.96-1.71-7.31c-2.768,1.71-0.758,13.56-3.263,9.602c-2.691-4.245,1.919-23.915-1.606-21.736 c-2.545,1.57-1.84,17.109-3.233,15.72c-4.038-4.042,1.622-25.27,1.931-36.297c0.175-6.175,1.88-11.928,5.776-19.482 c3.039-5.896,5.528-11.499,5.528-12.454c0-5.672-17.034,16.791-18.847,43.265c-1.452,21.165-3.927,10.273-3.052-1.798 c0.778-10.759-1.976-13.605-3.917-4.047c-0.843,4.143-1.24,4.473-2.342,1.943c-3.121-7.167,4.529-18.334,1.115-18.334 c-0.963,0-2.438,2.061-3.277,4.579c-2.6,7.801-7.95-18.731-6.942-34.431c0.978-15.24,11.113-39.302,15.797-37.504 c1.892,0.725,3.392-0.71,5.16-4.943c2.131-5.099,7.037-9.375,8.769-7.64c0.292,0.291-2.516,7.112-6.238,15.158 C3685.44,967.657,3695.792,980.406,3698.347,965.286z M3772.074,963.559c-1.471-2.381,9.523-14.544,16.582-18.346l6.081-3.274 c6.792,8.638,7.025,9.755,10.203,6.91c2.754-2.465,22.321-6.944,23.812-5.453c2.995,2.995-9.474,21.462-14.491,21.462 c-2.677,0-4.988,2.306,5.316,5l-3.773,4.016c-9.365,9.965-43.602,6.046-41.103,32.257c0.723,7.599-0.486,8.417-3.665,2.475 c-2.037-3.806-1.757-8.287,0.961-15.366c1.615-4.211-1.98-3.219-4.076,1.124c-4.026,8.35-2.09-7.721,5.497-14.017 c1.472-1.223,2.678-3.043,2.678-4.043c0-2.767-8.836,7.37-10.546,7.37c-1.926,0,0.934-9.544,4.18-13.948 C3771.573,967.228,3772.627,964.452,3772.074,963.559z M3776.097,945.702c0,4.131-0.889,4.767-2.658,1.904 C3772.052,945.362,3776.097,939.981,3776.097,945.702z M3777.808,923.809c0-5.614,7.697-2.877,7.697,0 C3785.505,926.561,3777.808,929.598,3777.808,923.809z M3781.781,940.913c-6.705,0-3.312-7.625,0.097-8.275 C3787.875,931.494,3790.152,940.913,3781.781,940.913z M3796.623,930.65c0,5.425-1.462,6.406-4.709,3.159 C3788.257,930.152,3796.623,919.44,3796.623,930.65z M3802.895,927.799c-4.504-4.5,5.701-5.509,5.701-1.425 C3808.595,928.977,3804.976,929.882,3802.895,927.799z M3809.878,939.632c-1.293,3.886-10.216,4.013-6.474-2.042 C3805.139,934.783,3810.889,936.596,3809.878,939.632z M3823.197,910.31c4.982,4.989-2.629,14.173-2.629,2.87 C3820.568,908.234,3820.832,907.946,3823.197,910.31z M3823.989,899.007c2.68,0,5.29,4.276,0,4.276 C3818.699,903.284,3821.309,899.007,3823.989,899.007z M3814.424,930.004c-1.468-3.824,0.518-6.004,4.517-4.958 C3827.063,927.171,3816.864,936.36,3814.424,930.004z M3819.713,940.913c-3.282,0-3.595-5.417,0-4.04 C3823.11,938.178,3823.053,940.913,3819.713,940.913z M3845.024,943.254c-1.413,1.413-4.77,1.38-6.21-0.062 c-2.128-2.126-1.155-7.411,1.365-7.411C3842.966,935.781,3846.716,941.563,3845.024,943.254z M3850.781,950.435 c2.525,6.577-6.267,6.087-6.267-0.457C3844.514,946.838,3849.541,947.205,3850.781,950.435z M3835.962,915.256 c0-4.536,3.421-4.538,3.421,0C3839.383,919.794,3835.962,919.793,3835.962,915.256z M3832.541,952.886 c0-1.881,1.026-3.421,2.28-3.421C3844.095,949.465,3832.541,961.84,3832.541,952.886z M3841.36,1011.731 c-0.958,0.592-2.256,0.241-2.885-0.777C3834.808,1005.018,3845.332,1009.271,3841.36,1011.731z M3839.383,992.225 c0-5.504,7.625-4.031,5.685,1.023C3843.673,996.886,3839.383,996.115,3839.383,992.225z M3871.513,1028.252 c6.005,0.103,6.118,0.205,2.078,1.852c-4.385,1.787-19.738,1.09-27.367-1.245c-3.809-1.165-4.026-1.004-1.988,1.483 c4.817,5.877,21.895,4.362,11.64,7.182c-5.922,1.63-20.125-1.273-35-7.15c-26.347-10.408-1.45,4.649,9.955,8.14 c3.73,1.143,3.443,1.327-2.251,1.456c-10.045,0.226-12.233-4.392-15.39-1.931c-2.372,1.846-12.714-0.669-27.423-6.671 c-11-4.488-12.532-6.626-6.594-9.211c5.177-2.254,2.821-2.485-0.041-20.906c6.128,1.998,23.137,7.302,27.48,10.015 c4.772,2.981,6.381,0.891,3.014-3.917c-1.507-2.152-2.74-5.59-2.74-7.64c0-3.643,0.185-3.672,8.125-1.334 c5.868,1.731,10.261,4.721,15.821,10.772C3841.489,1020.747,3856.94,1028.004,3871.513,1028.252z M3812.444,1073.18 c5.767-2.897,6.099-0.761,0.672,4.336c-4.729,4.444-13.389,5.887-21.177,3.53c-14.109-4.271-13.87-26.905,0.366-34.523 c4.724-2.526,48.947-2.34,46.529-1.069c-7.717,4.061-45.632,1.916-45.632,16.547 C3793.202,1071.842,3803.36,1077.745,3812.444,1073.18z M3838.528,1061.65c4.033,1.013,4.276,0.682,4.276-5.857 c0-19.562,27.047-11.46,29.568-4.89c0.74,1.931-0.445,1.875-6.517-0.308c-6.967-2.506-7.639-2.473-10.96,0.534 c-6.229,5.636-7.355,25.46,24.835,25.526c13.227,0.029,32.211-9.997,44.319-18.462c-11.436,13.271-31.775,21.781-38.368,23.696 c-11.357,3.299-28.152,3.39-35.507,0.192c-5.549-2.413-15.922-14.898-15.922-19.162 C3834.252,1061.275,3835.526,1060.897,3838.528,1061.65z M3792.454,992.398c1.409,2.28-3.824,6.869-5.735,8.781l-1.146-3.606 C3782.987,989.424,3790.588,989.379,3792.454,992.398z M3798.333,988.663c0-8.485,9.096,3.563,2.691,3.563 C3799.438,992.225,3798.333,990.763,3798.333,988.663z M3811.912,983.73c8.164-4.37,4.071,8.496-0.811,8.496 C3807.429,992.225,3808.043,985.799,3811.912,983.73z M3823.989,990.33c0-4.396,3.323-5.776,6.431-2.668 C3835.439,992.677,3823.989,1000.947,3823.989,990.33z M3832.804,1003.825c-1.438,0.479-2.08-0.303-1.71-2.087 C3832.463,995.148,3838.317,1001.985,3832.804,1003.825z M3831.291,969.562c-1.021,2.93-5.484,2.697-6.652-0.346 c-1.192-3.104,0.539-6.069,3.544-6.069C3830.8,963.148,3832.385,966.424,3831.291,969.562z M3824.441,979.23 c-3.734,3.734-5.253-3.053-2.342-4.852C3823.859,973.289,3825.984,977.689,3824.441,979.23z M3832.541,979.255 c0-5.359,4.016-4.772,4.822,0.703C3838.095,984.912,3832.541,985.379,3832.541,979.255z M3835.115,930.635 c-3.847,6.228-11.574-8.537-3.445-8.537C3834.339,922.098,3836.73,928.023,3835.115,930.635z M3764.125,926.374 c0-2.879,0.313-2.995,4.136-1.527c1.488,0.571,2.706,1.726,2.706,2.566C3770.966,929.249,3764.125,929.94,3764.125,926.374z M3755.572,972.739c0-2.899,4.625-4.95,6.033-2.673C3764.403,974.593,3755.572,977.271,3755.572,972.739z M3751.81,1111.613 c1.337-1.337,2.052-1.409,2.052-0.209c0,1.013-1.28,2.899-2.844,4.191c-4.172,3.443-9.495,16.459-8.287,20.265 c2.095,6.6,14.552,5.538,14.552-1.24c0-2.646,0.219-2.655,2.764-0.108c7.82,7.82-9.476,24.237-21.127,8.475 c-3.123-4.223-3.443-5.935-2.051-10.978c0.908-3.287,3.234-7.989,5.169-10.449c7.954-10.11-8.362-2.861-13.759,23.32 c-1.864,9.048-3.217,11.253-5.504,8.966c-1.416-1.416,2.938-21.787,5.858-27.406c8.709-16.764,40.498-34.568,55.149-30.89 c7.196,1.806,4.782,4.432-4.073,4.432c-8.008,0-29.476,8.157-31.934,12.134C3746.372,1114.385,3749.415,1114.007,3751.81,1111.613z M3712.689,1148.301c-6.717,5.468-20.402,2.882-20.402-3.854c0-3.113,0.221-3.13,4.996-0.39 c16.258,9.332,24.187-21.83,28.46-21.837C3728.346,1122.216,3717.076,1144.73,3712.689,1148.301z M3728.331,1107.576 c-15.473,1.926-25.461,12.259-23.505,24.314c2.502,15.399-15.96-4.594-15.96-9.671c0-6.908,5.14-15.064,10.721-17.008 c5.786-2.018,4.847-4.56-2.035-5.511c-6.652-0.92-5.821-3.64,2.778-9.07c12.597-7.96,33.71-6.038,44.551-0.895 c4.936,2.343,8.978,4.758,8.98,5.366C3753.865,1098.171,3736.771,1106.526,3728.331,1107.576z M3683.102,1084.107 c-5.184-3.79-6.7-26.257,17.292-12.197c9.518,5.579,9.01,6.741-1.758,3.862C3675.154,1069.49,3693.85,1091.97,3683.102,1084.107z M3723.021,1060.998c-7.651-14.823,1.764-40.713,1.764-17.375c0.001,8.67,1.084,13.321,5.059,21.722 C3740.952,1088.83,3725.425,1065.65,3723.021,1060.998z M3690.74,1046.506c-19.454-9.999-3.585-31.833-3.585-15.293 c0,9.515,3.869,8.485,6.996,14.323C3696.127,1049.227,3696.067,1049.244,3690.74,1046.506z M3675.227,1136.893 c2.383,7.22,1.172,9.503-2.044,3.859c-2.944-5.166-4.384-88.661-1.531-88.661C3675.86,1052.09,3671.315,1125.036,3675.227,1136.893 z M3610.093,1117.136c9.766-5.225,16.978-40.946-14.646-36.748c-17.443,2.313-30.025-16.86-15.553-37.475 c3.19-4.543,18.124-13.003,23.024-13.04c4.986-0.039,1.488,3.734-6.902,7.444c-19.116,8.458-18.274,18.876-17.982,23.809 c0.419,7.062,1.344,9.2,5.234,12.094c4.366,3.25,5.336,3.344,12.828,1.24c14.4-4.042,15.058-4.028,20.193,0.388 c4.476,3.85,4.979,5.398,5.465,16.825c0.67,15.736-3.395,23.956-14.83,29.989c-4.146,2.188-8.16,3.977-8.921,3.977 c-2.47,0-13.587-10.651-15.888-15.219c-4.762-9.459-4.483-25.526,0.47-27.179c1.753-0.583,1.986,1.283,1.069,8.615 C3581.043,1112.767,3598.941,1123.107,3610.093,1117.136z M3616.486,1012.75c4.485,0-2.56,21.137-11.39,34.169 c-12.814,18.9-13.9,28.266-16.451,21.62c-0.816-2.124,4.062-10.981,15.652-28.422 C3610.332,1031.036,3613.024,1012.75,3616.486,1012.75z M3605.055,1008.243c-18.7,1.64-38.45-9.176-27.671-9.176 c7.763,0,16.588,8.61,40.072,2.53C3624.301,999.825,3626.721,1006.341,3605.055,1008.243z M3617.558,985.994 c1.497-1.498,4.601,1.042,4.601,3.766C3622.16,996.141,3614.945,988.604,3617.558,985.994z M3611.068,959.727 c-11.684,0-9.717-12.58-6.354-23.091l0.171,4.592c0.414,11.13,6.308,16.808,11.773,11.344 C3622.488,946.744,3618.805,959.727,3611.068,959.727z M3597.635,903.581c5.198-8.241,10.387,2.111,7.329,5.798 C3600.528,914.726,3593.91,909.489,3597.635,903.581z M3595.648,932.361c-1.247-2.018,0.371-5.131,2.666-5.131 C3601.511,927.229,3599.501,938.597,3595.648,932.361z M3605.911,922.098c-3.388,0-3.39-5.131,0-5.131 C3609.299,916.967,3609.301,922.098,3605.911,922.098z M3556.308,893.44c-5.02,0.96-5.667-1.266-1.081-3.72 C3560.191,887.067,3563.954,891.978,3556.308,893.44z M3592.39,914.401c4.16,0,4.969,0.696,4.969,4.276 c0,2.99-1.03,4.408-3.421,4.714C3585.103,924.522,3584.063,914.401,3592.39,914.401z M3602.83,969.118 c5.213,6.534,10.54,18.697,10.682,24.391c0.463,18.709-7.264-26.932-35.827-33.781l-9.219-2.212 c-10.322,12.365-11.569,12.158-6.185,22.711c2.085,4.088,2.75,7.088,1.71,7.731c-2.766,1.709-4.88-0.588-6.756-7.339 c-4.262-15.348,0.231-25.232,12.346-27.161C3577.848,952.14,3596.17,960.771,3602.83,969.118z M3600.791,985.402 c1.731,2.802,0.653,3.334-10.382,5.13c-25.547,4.158-41.787,20.234-27.403,27.129c9.344,4.478,29.922-5.752,33.74-1.929 c5.731,5.73-9.457,6.183-28.041,8.313c-7.779,0.895-9.428,0.539-12.315-2.649C3536.327,999.224,3596.125,977.853,3600.791,985.402z M3594.579,1133.094c20.147,3.224,10.073,29.226,5.258,21.194c-2.492-4.156-4.36-1.669-11.744-5.485 c-9.229-4.772-11.26,2.699-11.26,12.474c0,12.221-1.769,15.19-3.378,5.67C3569.686,1144.624,3584.151,1131.426,3594.579,1133.094z M3593.19,1171.24c11.282-4.163,25.566-13.201,29.684-18.784c3.383-4.586,3.604-7.522,4.416-59.01 c0.547-34.653,1.471-54.099,2.566-53.947c2.81,0.39,23.339,4.625,35.064,9.086v41.835c0,25.338,0.715,43.735,1.815,46.652 c2.69,7.136,11.698,15.852,20.421,19.762c8.75,3.922,11.934,3.407,77.012,2.755c-4.221,9.272-4.577,7.459,3.657,20.782h-92.402 c-51.884,0-92.811-0.665-93.338-1.517C3580.81,1176.793,3583.922,1174.659,3593.19,1171.24z M3885.055,1047.809 c-0.188-6.683,2.251-9.332,8.634-9.376c4.446-0.029,4.967,2.047,1.283,5.106c-4.481,3.717-6.007,21.057,21.317,10.288 C3946.64,1041.862,3885.985,1080.555,3885.055,1047.809z M3880.433,949.607c0-4.858,5.557-4.459,4.828-0.712 C3884.43,953.187,3880.433,953.775,3880.433,949.607z M3889.936,941.067c-1.451-2.345,0.814-6.996,3.407-6.996 C3901.531,934.071,3894.079,947.77,3889.936,941.067z M3894.83,951.175c-3.021,0-2.495-3.683,0.676-4.74 C3898.091,945.577,3898.533,951.175,3894.83,951.175z M3904.432,926.439c1.835,2.212,1.757,3.135-0.46,5.352 c-2.432,2.432-2.85,2.362-4.522-0.761C3896.916,926.296,3901.109,922.433,3904.432,926.439z M3929.084,855.303 c12.703,11.932-7.155,21.955-17.056,14.73c-2.496-1.822-51.292-45.743-12.37-16.352c14.87,11.227,21.902,13.092,25.318,6.708 C3927.925,854.872,3922.911,849.501,3929.084,855.303z M3929.779,824.604c0.327-3.293,0.855-6.26,1.175-6.594 c2.482-2.596,32.625,40.173,20.684,44.757c-1.459,0.559-2.649,4.604-3.157,10.733c-0.693,8.361-1.627,10.558-6.236,14.677 c-2.981,2.665-6.134,4.844-7.004,4.844c-2.383,0-3.78-3.043-1.924-4.189c0.895-0.552,2.91-5.417,4.478-10.808 C3946.098,849.482,3928.408,838.339,3929.779,824.604z M3933.456,952.302c0-5.473,6.048-13.08,0.889,8.28 c-8.691,35.989,7.825,31.865,11.802,26.187c6.479-9.243,5.448,6.471-1.936,12.277c-5.246,4.127-10.36,4.384-15.507,0.778 C3919.159,993.137,3933.456,965.977,3933.456,952.302z M3948.711,955.167c-0.077-0.785-0.269-4.468-0.427-8.184 c-0.611-14.277-13.021-0.674-13.094-26.245c-0.031-11.376,4.998-17.455,14.436-17.455c5.682,0,6.065,0.346,6.065,5.473 c0,8.431-0.725,1.368-8.834,1.368c-17.638,0,0.351,35.151,15.057,12.707c9.412-14.362-3.525-46.226-2.506-51.405 c1.464-7.464,19.682,53.256,6.43,70.1C3961.556,946.968,3948.894,957.054,3948.711,955.167z M3968.698,981.963 c5.872,0,14.361,6.021,14.361,10.186c0,5.184-3.83-4.096-15.791-6.113C3959.494,984.722,3960.464,981.963,3968.698,981.963z M3975.079,977.601c-11.535-5.054,1.137-7.974,1.137-48.697c0-15.756-6.684-50.834-11.958-62.755 c-4.676-10.572-4.618-14.067,0.161-9.741c16.071,14.544,26.484,70.705,20.385,109.924 C3982.21,983.027,3982.709,980.945,3975.079,977.601z M3933.53,813.486c-9.941-6.546-2.875-7.428-0.881-4.197 c2.677,4.331,18.584,15.315,22.181,15.315c2.769,0,5.727,2.456,9.828,8.166c3.467,4.827,9.129,9.896,13.844,12.397 c4.387,2.328,7.977,4.688,7.977,5.244c0,1.432-8.299,4.981-10.771,4.974C3963.992,855.351,3943.282,819.906,3933.53,813.486z M3875.317,818.678c1.261-3.267,1.456-3.192,3.187,1.223c8.766,22.343-25.809,10.649-41.686,7.286 c-8.357-1.77-9.151-2.201-4.276-2.318C3844.475,824.584,3868.776,835.624,3875.317,818.678z M3680.314,877.477 c-1.536,0.152-0.602-1.514,2.33-4.155c4.42-3.984,5.248-4.177,8.552-1.994c5.366,3.544,5.381,8.834,0.062,20.609 c-3.267,7.233-15.44,39.252-5.841,3.18C3689.567,879.509,3688.738,876.64,3680.314,877.477z M3744.258,837.75 c-4.965,6.648-22.569,20.202-9.808,5.059c17.039-20.205,7.651-40.145-4.303-33.43c-5.099,2.865-4.321,4.403-3.327,14.369 l-4.438-4.146c-8.398-7.846-3.417-18.945,8.502-18.945C3754.093,800.658,3749.656,830.522,3744.258,837.75z M3687.443,798.216 c-11.693,1.551-11.812-1.767-0.156-4.268c10.11-2.169,13.778-3.924,22.53-10.784c3.527-2.766,7.232-4.755,8.232-4.421 C3719.763,779.314,3709.991,795.224,3687.443,798.216z M3726.495,841.82c0,2.714-1.216,3.31-6.765,3.31 c-6.397,0-6.826,0.33-7.905,6.084c-2.574,13.738-20.015,12.835-24.059,11.114c-11.012-4.683-10.677-23.385-7.076-15.915 c2.49,5.162,13.995,5.535,16.668,0.541c17.354-32.445-69.946-53.322-108.868-11.917c-6.795,7.228-12.192,10.984-13.666,9.51 c-1.958-1.958,28.251-25.576,41.35-32.327c6.811-3.51,37.344-10.115,47.037-10.175 C3683.545,801.919,3726.495,818.077,3726.495,841.82z M3562.897,916.875c5.325-1.192,10.107-1.741,10.627-1.223 c0.518,0.52-0.255,3.816-1.722,7.326c-3.38,8.09-3.412,7.926,1.365,6.727c5.482-1.377,9.654,3.151,9.654,10.475 c0,6.715-1.919,7.295-8.085,2.444c-15.165-11.927-36.815,9.161-42.307,27.774c-1.544,5.23-3.068,7.146-6.046,7.601 c-4.851,0.741-15.399,7.067-15.399,9.236c0,0.864-0.835,1.57-1.853,1.57c-2.401,0-3.017,1.267,13.788-28.335 C3540.783,929,3549.063,919.97,3562.897,916.875z M3527.421,856.533c-2.23,0-2.756-1.97-2.756-10.321 C3524.666,821.702,3533.876,856.533,3527.421,856.533z M3487.336,884.069c-0.263-8.607,0.303-10.481,4.613-15.307 c4.813-5.386,5.001-5.439,9.327-2.605c5.622,3.683,7.396,12.568,5.015,25.109c-0.315,1.654-12.108,63.595-13.299,64.786 c-6.707,6.707,17.402-73.394,5.689-80.74c-4.456-2.798-9.619,2.901-10.401,11.48 C3487.738,892.732,3487.585,892.292,3487.336,884.069z M3495.785,1062.52c2.035-5.838,0.679-9.445-1.974-5.249 c-2.343,3.703-2.157-6.157,0.198-10.558c2.335-4.362,0.561-10.451-1.909-6.547c-2.858,4.521-1.897-5.858,1.1-11.865 c2.768-5.549,1.853-9.907-1.1-5.237c-2.899,4.584-1.866-6.631,1.148-12.46c1.931-3.732,2.194-5.596,0.855-6.043 c-3.079-1.026-2.239-9.25,1.582-15.52c3.845-6.306,2.865-9.996-1.197-4.507c-2.307,3.118-2.439,2.593-1.503-5.99 c5.841-53.664,25.02-80.879,17.021-144.91c-3.226-25.805,13.295,8.441,10.652,27.721c-1.064,7.76,1.112,10.729,3.152,4.302 c4.417-13.918,8.053,16.129,4.167,27.367c-0.982,2.838-1.163,0.742-0.539-6.223c1.214-13.576-1.958-15.987-3.601-2.738 c-0.669,5.4-2.333,12.501-3.698,15.782c-3.807,9.154,0.703,12.197-3.188,15.428c-5.614,4.661-1.067,11.757,4.876,1.697 c3.333-5.644,6.712-6.837,6.055-2.138c-1.194,8.511,4.16,10.11-1.473,26.939l0.542-5.559c0.659-6.761-1.459-7.389-2.887-0.855 c-0.566,2.588-1.488,6.628-2.051,8.98c-2.434,10.162,6.423-8.602,3.504,1.71c-3.443,12.142-27.609,43.804-23.807,58.946 c3.031,12.081,3.176-4.043,21.705-23.883l1.56,4.213c4.268,11.54,5.554-1.279,17.22-4.025c4.669-1.1,4.704-1.043,4.704,7.769 c0,8.29-0.511,9.368-7.697,16.254c-8.234,7.888-9.855,11.816-4.276,10.357c7.644-1.998,3.204,9.601-14.595,38.125 c-13.001,20.833-10.452,31.643-7.63,31.643c1.565,0,2.918-2.68,3.718-7.37c0.708-4.148,3.843-10.89,7.172-15.423 c19.718-26.865,6.977-0.708,22.371-15.604c6.134-5.935,13.517-8.508,17.971-10.367l1.31,4.712 c2.55,9.175,1.024,23.166-3.592,32.934c-3.587,7.591-3.965,9.512-1.958,9.95c2.018,0.44,2.097,1.163,0.421,3.849 c-1.136,1.818-2.622,3.306-3.303,3.306c-2.033,0-14.954,14.364-15,16.677c-0.084,4.216,2.938,1.998,8.617-6.323 c13.239-19.398,4.356,2.978-5.737,13.254c-9.171,9.341-10.594,16.364-12.332,21.719l-9.968,0.516 c-13.206,0.686-8.872,0.566-9.565-11.634c-0.643-11.282-5.266,12.37-5.266-8.225c0-13.035-3.286-14.891-3.715-1.182 c-1.293-4.069-3.421-8.824-2.324-18.815c1.931-17.619-3.946,4.945-4.427-6.943c-0.25-6.2,0.113-5.933,1.503-14.438 c0.888-5.434,0.715-5.769-1.871-3.64C3491.661,1076.573,3494.661,1065.75,3495.785,1062.52z M3519.545,908.842 c0.007-0.705,1.541-3.592,3.411-6.414C3532.048,888.695,3519.476,916.404,3519.545,908.842z M3529.73,1045.298 c0.874-1.384,2.164-1.943,2.865-1.242C3535.022,1046.485,3523.756,1054.745,3529.73,1045.298z M3558.447,1165.732 c-1.647,1.204-2.993,3.534-2.993,5.176c0,4.94-5.131-0.503-5.131,3.188c0,1.35-2.319,2.171-6.135,2.171 c-5.158,0-7.305-1.3-13.471-8.159c-14.396-16.015-7.02-15.103-3.161-15.103c12.671,0,13.972,8.99,18.509,2.817 c2.489-3.388,1.669-7.189-3.804-17.657c-2.778-5.311-2.732-5.588,2.059-12.503c8.947-12.903,17.121-16.487,17.121,20.212 C3561.44,1160.727,3560.962,1163.892,3558.447,1165.732z M3552.879,1183.781c-0.585-0.948,0.173-2.198,1.685-2.778 C3562.837,1177.832,3556.594,1189.791,3552.879,1183.781z M3565.716,1175.139c0,2.157-2.672,3.701-4.038,2.335 C3557.535,1173.332,3565.716,1172.319,3565.716,1175.139z M3494.826,1162.879c0.995-7.863,9.893-16.199,19.4-18.177 c21.573-4.49,37.207,5.874,15.607,2.916c-11.848-1.62-16.033-0.404-24.647,7.16c-8.686,7.625-8.449,13.697,0.876,22.569 c7.421,7.061,7.293,11.328-0.229,7.656C3500.172,1182.241,3493.957,1169.745,3494.826,1162.879z M3516.428,1195.396 c-1.416-1.416-1.433-2.559-0.065-4.208C3523.27,1182.869,3522.574,1201.541,3516.428,1195.396z M3506.701,1197.491 c-1.266,3.987-7.353,4.569-8.785,0.84C3494.338,1188.999,3509.941,1187.288,3506.701,1197.491z M3498.601,1210.884 c2.841-2.841,8.061-0.859,8.651,3.286C3508.396,1222.185,3492.934,1216.549,3498.601,1210.884z M3511.008,1202.607 c1.466-2.232,1.892-2.244,3.282-0.082c0.879,1.367,1.218,3.099,0.754,3.849C3513.987,1208.084,3506.376,1209.673,3511.008,1202.607 z M3514.403,1216.005c0-1.964,1.24-3.135,3.32-3.135C3530.004,1212.87,3514.403,1229.565,3514.403,1216.005z M3518.529,1181.453 c-3.404-8.867,6.992-12.835,6.992-3.671C3525.521,1183.379,3520.316,1186.11,3518.529,1181.453z M3526.705,1199.297 c2.802-4.493,5.553-2.22,2.966,0.896C3526.67,1203.809,3524.327,1203.101,3526.705,1199.297z M3560.357,1213.629 c-5.826-2.453-12.748-4.141-15.768-3.849c-9.503,0.922-8.947,13.381-12.823,9.505c-5.289-5.285-0.949-24.338,31.473-8.201 C3578.426,1218.642,3576.44,1220.399,3560.357,1213.629z M3615.318,1218.526c-10.201,1.19-34.981-5.189-44.728-11.516 c-7.96-5.167-16.848-12.905-16.848-14.668c0-0.59,2.694-2.359,5.987-3.929c8.352-3.982,5.094-8.364,9.896-2.795 c4.779,5.54,18.096,16.033,22.602,17.809c1.881,0.741,10.175,1.88,18.431,2.533 C3641.159,1208.368,3625.094,1217.385,3615.318,1218.526z M3667.246,1218.387c-1.052,1.702-14.294,1.741-14.294,0.041 c0.003-0.705,3.406-1.302,7.558-1.324C3664.665,1217.082,3667.696,1217.659,3667.246,1218.387z M3676.893,1220.708 c0-1.488,1.218-2.708,2.708-2.708C3685.719,1218.001,3676.893,1226.849,3676.893,1220.708z M3683.119,1207.076 c-7.418-8.686-8.851-9.601-15.022-9.601c-8.625,0-13.11,2.391-15.435,8.229c-3.992,10.018-9.756-14.381,18.791-11.166 c15.726,1.772,19.141,20.611,30.649,20.611c8.186,0,13.883-4.726,16.216-13.451c2.254-8.427,4.757-10.12,4.757-3.219 C3723.074,1201.916,3709.807,1238.314,3683.119,1207.076z M3734.29,1219.819c-3.561-3.934-3.356-5.1,0.71-4.037 c2.442,0.638,3.93-0.344,5.398-3.564c1.802-3.958,1.526-4.911-2.518-8.658c-2.499-2.316-4.543-4.782-4.543-5.482 c0-2.164,11.889,10.122,12.91,13.34C3748.443,1218.357,3739.648,1225.739,3734.29,1219.819z M3741.961,1193.155 c1.012-0.626,4.753,0.882,8.316,3.352c8.506,5.894,21.137,7.433,31.637,3.855c8.373-2.851,10.343-1.396,4.064,3.002 C3772.802,1212.596,3734.148,1197.985,3741.961,1193.155z M3857.159,1215.295c-1.649,4.298-6.388,3.414-5.239-0.977 c1.143-4.374-2.718-12.57-6.628-14.07c-4.969-1.907-8.733-1.165-34.15,6.727c-34.272,10.637-28.689,6.223-23.927,5.027 c16.039-4.035,34.94-16.813,53.601-16.99c9.399-0.089,11.277,0.435,14.111,3.936 C3858.174,1202.958,3859.15,1210.107,3857.159,1215.295z M3824.33,1187.046c0.906-2.725,15.729-2.574,78.063-3.317l3.436-7.237 c23.881-50.322,32.758-75.602,32.758-61.5c0,3.65-29.11,63.776-33.143,72.221l-36.88,0.024 C3821.658,1187.265,3823.312,1190.104,3824.33,1187.046z M3901.199,1213.802c-1.861-0.592-4.107,0.109-5.418,1.688 c-10.468,12.614-24.663-7.572-16.203-14.593c5.083-4.218-1.214,4.799,7.668,9.392c4.764,2.463,5.331,2.41,8.552-0.811 c3.674-3.674,4.567-9.399,1.74-11.147c-2.054-1.269-3.209-7.107,2.619,0C3905.453,1204.793,3906.167,1215.379,3901.199,1213.802z M3903.524,1194.157c21.729,1.57,26.854,2.403,33.22-0.889c9.847-5.09,9.334,0.354-1.625,5.942 C3923.729,1205.022,3920.5,1202.499,3903.524,1194.157z M3941.593,1200.897c-1.04,0-0.27-1.731,1.714-3.849 c14.205-15.166,0.914-33.781-11.449-33.781c-4.387,0-4.401-1.12-0.104-8.167c7.555-12.392,13.61-0.576,13.752-15.565 c0.125-13.16,7.856-40.968,13.299-22.805c2.283,7.615,8.604,12.864,12.214,16.324l4.228-4.563c4.91-5.299,12.383-6.433,10.346-1.57 c-0.689,1.647-1.64,8.944-2.112,16.215c-0.47,7.273-1.529,12.808-2.349,12.3c-3.359-2.075-4.847,1.291-2.56,5.791 c3.356,6.607-0.4,11.472-0.523,9.31c-0.122-2.155-3.522-4.883-3.566,4.276c-0.043,10.37-3.318,13.201-3.465,2.993 c-0.145-10.114-3.236-19.95-6.616-21.057c-1.762-0.578-2.072,0.079-1.148,2.437c2.846,7.266,4.139,21.178,2.514,27.062 c-2.076,7.517-4.639,8.054-3.566,0.747c1.071-7.292-3.265-5.836-5.232,1.755c-1.148,4.432-1.923,5.186-3.76,3.662 C3949.091,1188.999,3945.597,1200.897,3941.593,1200.897z M3985.195,1214.164c-1.295,0.424-1.762-0.281-1.184-1.786 c2.571-6.703-11.424-11.417-24.281-8.179c-7.259,1.828-12.753,1.324-7.276-0.669 C4000.154,1186.177,3987.018,1213.566,3985.195,1214.164z M3982.017,1071.597c17.232,29.406-16.264,40.06-27.969,27.601 c-14.915-15.878,5.335-36.846-5.198-36.846c-10.257,0,10.209-26.21,11.781-27.948c9.342-10.328,12.165-14.995,12.165-20.125 c0-3.077-1.083-4.834-3.342-5.425c-12.532-3.274-7.404,23.334-25.282,35.481c-15.912,10.812-4.067-5.273-12.313-0.857 c-5.309,2.841-16.422,2.107-20.711-1.367c-5.762-4.666-6.902-20.676-1.832-25.745c1.988-1.987,5.177-3.616,7.088-3.616 c3.439,0,3.438,0.046-0.217,4.989c-5.615,7.598-3.696,20.667,10.184,20.667c22.85,0,19.093-51.733,41.806-47.19 c12.241,2.448,17.239,16.215,16.107,28.711c-2.569,28.333-30.953,48.631-20.85,68.167c2.225,4.303,3.609,5.046,9.407,5.046 c6.614,0,6.797-0.159,6.797-5.927c0-8.932-5.583-19.068-4.805-27.097c0.985-10.179,15.067-5.501,15.067-1.273 C3989.9,1061.894,3970.878,1052.584,3982.017,1071.597z M3986.26,874.206c-7.503,0-14.277-20.137-6.809-10.432 c2.571,3.346,4.151,3.908,8.513,3.036C3998.069,864.792,3992.216,874.206,3986.26,874.206z M3973.55,830.645 c-6.828-5.165,8.597,0.026,10.6-5.186c1.526-3.977,4.04-3.027,4.04,1.527C3988.189,834.02,3978.919,834.704,3973.55,830.645z M3983.576,778.508c-0.612-2.342-2.774-4.043-5.939-4.676c-14.08-2.814,10.552-11.84,10.552,2.133 C3988.189,781.272,3984.789,783.145,3983.576,778.508z M3962.803,748.171c0.592,8.191-2.856,10.584-4.495,3.12 c-5.135-23.378,29.667-40.21,28.506-5.821c-0.303,8.964-3.024,11.85-15.782,16.725c-20.51,7.835-18.059,16.228-12.674,16.228 c2.634,0,4.823,5.131-2.381,5.131c-10.875,0-11.906-13.685,12.826-26.44c4.861-2.506,9.286-5.727,9.835-7.158 C3984.813,733.87,3961.401,728.742,3962.803,748.171z M3952.271,741.596c0,3.414-4.94,3.397-6.252-0.021 c-0.558-1.452-0.566-3.086-0.021-3.633C3947.724,736.217,3952.271,738.864,3952.271,741.596z M3943.535,721.979 c7.5,0,5.308,14.706-1.185,8.21C3939.133,726.972,3939.853,721.979,3943.535,721.979z M3938.587,734.867 c0,3.506-7.918,3.207-9.282-0.351C3926.606,727.488,3938.587,729.407,3938.587,734.867z M3927.699,752.767 c-4.657,0-7.868-5.874-4.857-8.884C3929.018,737.706,3936.506,752.767,3927.699,752.767z M3921.543,739.083 c-4.05,0-5.191-0.751-5.191-3.421c0-5.061,6.387-4.045,8.552,0C3926.548,738.734,3926.204,739.083,3921.543,739.083z M3840.32,720.269c5.005,0,6.628,2.403,3.421,5.063c-4.26,3.537,0.327,13.011,12.931,2.48c5.656-4.726,8.431-5.833,14.628-5.833 c26.383,0,5.979,27.367,25.531,27.367c8.333,0,10.393-4.755,5.884-13.591c-12.26-24.038,22.189-25.176,22.189-11.923 c0,7.605-6.222-4.893-14.669,0.641c-10.369,6.792,3.789,12.806-3.248,25.87c-2.573,4.777-4.146,5.844-8.612,5.844 c-3.005,0-8.078-1.757-11.275-3.903c-12.089-8.123-1.902-22.287-12.098-25.853c-10.942-3.831-25.962,20.599-37.33,9.231 C3831.961,729.951,3833.626,720.269,3840.32,720.269z M3777.84,723.689c9.932,0,1.505,6.955-10.396,0.804 c-13.569-7.016-19.313,12.879,0.156,12.879c21.88,0,30.071-20.525,44.65-20.525c22.737,0,15.098,29.077,5.429,29.077 c-1.883,0-2.41,1.208-1.839,4.201c0.707,3.696-0.126,4.519-6.946,6.842c-26.578,9.053-58.454-7.24-58.454,5.206 c0,5.246,1.967,5.721,17.959,4.343c15.443-1.331,31.499,1.146,36.446,5.622c5.415,4.904,15.293,0.932,24.021,16.463l3.893,6.925 c-8.675,0-8.646-1.25-8.013,9.351c0.313,5.246-0.294,10.447-1.384,11.85c-3.036,3.91-10.822,4.117-13.569,0.361 c-4.82-6.59-8.99,5.954-21.693,5.672c-14.499-0.327-17.899-5.075-21.233-29.65c-1.336-9.838,1.994-5.446,6.572,8.674 c3.141,9.686,9.041,19.988,17.9,15.479c19.124-9.731-0.371-43.886-59.247-43.958l-10.653-0.014 c10.988-17.327,10.187-17.474,10.187-24.981c48.104-3.328,70.923-3.958,80.817-14.523c5.437-5.805,5.689-7.158,2.015-10.832 c-4.278-4.278-7.134-3.275-18.762,6.59c-9.376,7.955-12.26,9.443-20.222,10.437c-16.138,2.017-28.455-2.511-28.455-10.459 C3747.02,707.63,3769.324,723.689,3777.84,723.689z M3724.051,724.666c3.715-3.715,10.504-3.381,12.645,0.621 c3.59,6.705-5.444-0.332-10.201,9.91c-1.411,3.038-3.144,5.54-3.848,5.559C3720.182,740.828,3721.359,727.36,3724.051,724.666z M3721.699,754.207c0.65-4.103,3.753-4.74,4.488-0.92c0.929,4.827-7.916,11.065-22.509,15.873 c-23.363,7.699-27.31,10.481-30.227,21.314c-4.562,16.935-10.326-1.332,5.244-14.431c2.649-2.229,13.29-7.314,23.65-11.301 C3716.414,759.328,3721.311,756.663,3721.699,754.207z M3672.468,727.948c1.309-5.215,11.02-11.101,18.31-11.097 c21.974,0.009,33.651,32.491,19.035,15.743c-13.991-16.039-34.077-6.363-28.044,3.296c1.745,2.795,1.466,3.193-2.235,3.193 C3674.487,739.083,3671.038,733.647,3672.468,727.948z M3582.493,723.496c3.886-4.348,6.424-5.514,13.256-6.089 c21.156-1.779,8.561,13.875,16.343,18.774c4.31,2.711,8.357,0.186,8.357-5.215c0-26.146,53.132-9.866,34.208,7.262 c-3.361,3.041-3.421,2.988-3.421-3.111c0-15.385-30.331-14.918-26.7-0.446c2.708,10.791-20.498,7.676-22.246,6.525 c-1.049-0.691-1.82-4.721-1.71-8.954c0.101-3.958,1.421-14.102-15.257-4.331C3576.599,733.025,3575.504,731.32,3582.493,723.496z M3571.724,748.263c2.111-1.544,7.606-1.811,20.251-0.987c26.52,1.731,27.5,1.416,127.678-1.798 c0,20.66-44.259,13.174-54.727,44.899c-3.877,11.744-4.794,3.364-27.374,9.426c-12.161,3.265-11.35,5.053-12.857-7.948 c-1.057-9.108-2.155-11.53-8.205-18.091c-8.448-9.166-11.783-10.964-29.396-15.856 C3570.751,753.369,3567.517,751.34,3571.724,748.263z M3546.891,733.499c9.838-12.508,26.529,3.164,14.652,0.891 c-4.896-0.936-12.931,6.034-12.931,11.217c0,1.791,2.331,7.627,5.181,12.967c8.111,15.195,2.172,15.284,8.496,29.125 c11.304,24.726-8.954,50.242-18.957,69.404c-5.506,10.55-9.592,13.82,6.346-16.716c11.234-21.526,11.32-21.796,10.331-32.38 c-0.975-10.439-4.379-19.663-8.107-21.969c-2.33-1.438-9.247,7.687-11.144,9.958l-8.324-3.683 c-8.884-3.929-13.558-3.585-15.49,1.141c-1.079,2.641-1.326,2.593-2.509-0.493c-2.109-5.499,1.053-9.407,7.613-9.407 c4.96,0,5.891-0.643,6.353-4.394c0.535-4.343,0.583-4.356,4.012-1.141c4.786,4.488,14.099,4.3,17.144-0.347 c5.467-8.347-3.951-16.128-1.757-7.374c1.334,5.316-4.931,11.768-3.724,7.87c1.627-5.246-18.17-23.412-3.503-25.095 C3550.546,751.927,3538.922,743.624,3546.891,733.499z M3523.932,724.666c7.94-7.94,20.032,4.155,11.261,4.155 c-7.541,0-10.729,9.397-6.91,20.357c2.829,8.116,0.57,8.374-3.498,0.402C3520.52,741.219,3520.085,728.514,3523.932,724.666z M3516.307,751.792c-1.883,1.165-5.716-3.195-4.17-4.741C3516.062,743.125,3520.277,749.342,3516.307,751.792z M3511.837,736.518 c0,2.28-1.329,3.609-3.985,3.985c-3.316,0.47-3.891-0.104-3.421-3.421C3505.16,731.932,3511.837,731.424,3511.837,736.518z M3507.562,723.872c0,2.141-4.692,1.911-6.057-0.296C3498.19,718.216,3507.562,721.461,3507.562,723.872z M3502.765,752.767 c-4.5,0-7.409-3.705-5.417-6.898C3500.814,740.31,3510.407,752.767,3502.765,752.767z M3491.172,725.4 c10.6,0,10.336,9.994-0.287,5.709C3487.95,729.926,3488.179,725.4,3491.172,725.4z M3488.875,718.088 c0.07,0.682-0.795,1.548-1.924,1.924C3482.75,721.411,3488.386,713.367,3488.875,718.088z"/>
    <path d="M3553.161,1150.53c-3.898,11.367-3.216,11.951-10.299,11.381c-5.798-0.467-7.774,0.948-5.083,3.636 c2.064,2.066,13.794,1.189,15.76-1.18c1.156-1.392,1.466-4.625,0.775-8.078L3553.161,1150.53z"/>
    <path d="M3560.574,1140.503c-0.019-4.214-3.629-14.865-5.039-14.865c-1.351,0-0.73,11.564,0.901,16.784 C3557.256,1145.045,3560.591,1143.498,3560.574,1140.503z"/>
    <path d="M3521.245,1130.003c0-16.738,29.852-70.687,8.897-41.514c-7.509,10.454-12.318,24.608-12.318,36.251 C3517.824,1138.158,3521.245,1134.669,3521.245,1130.003z"/>
    <path d="M3525.466,1124.682c-1.38,1.827-2.511,4.422-2.511,5.769c0,3.939,5.14-1.047,5.076-5.449 C3527.979,1121.434,3527.927,1121.427,3525.466,1124.682z"/>
    <path d="M3508.702,1105.683c1.577,1.579,6.093,1.382,8.884-0.387C3520.922,1103.182,3503.645,1100.628,3508.702,1105.683z"/>
    <path d="M3536.019,1103.403c2.201,0,10.04-8.254,8.911-9.383C3543.809,1092.901,3533.751,1103.403,3536.019,1103.403z"/>
    <path d="M3518.679,1098.271c1.432-2.319-11.696-2.316-10.262,0C3509.797,1100.502,3517.301,1100.502,3518.679,1098.271z"/>
    <path d="M3508.702,1093.71c1.597,1.599,3.185,1.435,8.186-0.843c6.18-2.817,5.41-4.079-2.485-4.079 C3508.115,1088.787,3505.788,1090.797,3508.702,1093.71z"/>
    <path d="M3544.433,1071.399c-1.334-3.482-0.193-4.416-4.286-1.863C3532.424,1074.36,3546.918,1077.875,3544.433,1071.399z"/>
    <path d="M3550.371,1057.221c-2.364,0-5.514,4.917-4.355,6.796C3549.148,1069.088,3552.549,1057.221,3550.371,1057.221z"/>
    <path d="M3509.732,1045.248c0.898-7.297,3.729-16.037,8.234-25.43c16.357-34.114-4.671-1.553-8.367,10.156 C3503.52,1049.215,3507.264,1065.271,3509.732,1045.248z"/>
    <path d="M3523.674,1044.421c9.339-12.245,21.355-43.936,1.31-9.007C3516.191,1050.737,3515.563,1055.054,3523.674,1044.421z"/>
    <path d="M3514.472,1038.834c-0.329,6.108,12.229-10.933,11.019-12.147C3524.531,1025.729,3514.588,1036.691,3514.472,1038.834z"/>
    <path d="M3506.388,1019.919c-6.554,0.275-10.854-5.111-7.463,1.228C3503.352,1029.418,3513.69,1019.611,3506.388,1019.919z"/>
    <path d="M3508.574,1014.033c4.964-4.705,5.526-8.217,0.602-3.761c-2.908,2.631-4.093,2.822-6.842,1.105 c-3.754-2.343-4.119-1.594-1.555,3.197C3503.022,1018.764,3503.627,1018.721,3508.574,1014.033z"/>
    <path d="M3530.977,1000.329c5.815-5.815-2.891-6.118-2.891,0.06C3528.086,1003.001,3528.311,1002.996,3530.977,1000.329z"/>
    <path d="M3518.525,941.05c-2.073-2.063-7.543,7.327-7.543,12.95c0,8.147-5.478,15.556-7.592,22.405 C3497.677,994.875,3522.805,945.305,3518.525,941.05z"/>
    <path d="M3697.581,1117.048c1.5,0.021,4.12-1.502,5.824-3.383C3711.44,1104.79,3691.916,1116.971,3697.581,1117.048z"/>
    <path d="M3721.364,1091.561c9.216,1.738,13.983,1.738,12.908,0C3731.117,1086.452,3707.886,1089.02,3721.364,1091.561z"/>
    <path d="M3803.798,1109.848c3.137-1.045,4.837-9.414,2.335-11.491C3800.184,1093.419,3800.945,1110.799,3803.798,1109.848z"/>
    <path d="M3810.306,1102.547c0,6.585,2.321,7.818,5.064,2.689C3819.268,1097.957,3810.306,1091.23,3810.306,1102.547z"/>
    <path d="M3822.279,1099.982c-2.509,0-3.421,1.141-3.421,4.276c0,5.03,1.326,5.412,4.461,1.283 C3826.495,1101.355,3826.238,1099.982,3822.279,1099.982z"/>
    <path d="M3755.981,1083.87c6.402,5.869,9.854,7.322,9.854,4.15C3765.835,1083.984,3738.73,1068.064,3755.981,1083.87z"/>
    <path d="M3761.8,1076.575c-6.874-3.556-4.989-0.019,3.18,5.964c3.763,2.755,7.158,4.734,7.543,4.396 C3773.758,1085.852,3766.866,1079.193,3761.8,1076.575z"/>
    <path d="M3960.163,1047.503c-1.952,0.749-1.921,0.009,0.178-4.199c8.152-16.336-9.78,5.694-9.78,9.979 c0,6.9,8.049-5.641,6.012-1.62c-1.151,2.275,0.003,7.288,3.504,2.668C3963.137,1050.294,3963.187,1046.341,3960.163,1047.503z"/>
    <path d="M3946.708,1025.433c1.62,1.618,1.82,1.367,5.482-6.914C3961.808,996.779,3943.101,1021.826,3946.708,1025.433z"/>
    <path d="M3977.927,1007.895c0-4.314-17.739-6.142-8.385-0.963C3974.273,1009.554,3977.927,1009.973,3977.927,1007.895z"/>
    <path d="M3977.927,1000.752c0-2.129-10.594-8.769-11.894-7.454C3964.813,994.534,3977.927,1006.112,3977.927,1000.752z"/>
    <path d="M3724.785,1015.049c0,3.092,29.705-22.824,23.33-22.824C3746.769,992.225,3724.785,1013.732,3724.785,1015.049z"/>
    <path d="M3738.477,997.182c9.429-7.95,10.281-10.976,1.372-4.878C3729.86,999.142,3723.81,1009.554,3738.477,997.182z"/>
    <path d="M3689.208,983.331c5.414,5.414,20.301-2.177,5.706-3.342C3686.798,979.344,3685.804,979.927,3689.208,983.331z"/>
    <path d="M3699.128,977.119c0-0.783-2.694-2.251-5.986-3.262C3677.09,968.931,3699.128,983.343,3699.128,977.119z"/>
    <path d="M3723.502,970.472c4.757,1.705,7.134-3.903,1.283-3.903C3721.011,966.569,3720.126,969.261,3723.502,970.472z"/>
    <path d="M3706.659,957.926c1.683-3.813,6.835-11.638,11.449-17.386c21.269-26.505-9.546-1.733-16.326,20.47 C3699.785,967.554,3703.428,965.249,3706.659,957.926z"/>
    <path d="M3734.119,959.668c-3.009-2.497-7.112,0.157-5.15,3.332C3730.694,965.794,3741.675,965.933,3734.119,959.668z"/>
    <path d="M3801.754,1020.447c0,3.392,3.421,3.393,3.421,0C3805.175,1017.056,3801.754,1017.054,3801.754,1020.447z"/>
    <path d="M3892.406,1007.619c3.193,0,3.648-0.457,2.052-2.052c-1.596-1.596-2.509-1.596-4.105,0 C3888.758,1007.162,3889.212,1007.619,3892.406,1007.619z"/>
    <path d="M3900.428,1001.226c-2.631-2.632-2.89-2.641-2.89-0.103C3897.537,1005.991,3906.332,1007.13,3900.428,1001.226z"/>
    <path d="M3907.478,997.464c0.994-2.98-3.494-1.486-4.49,1.497C3901.995,1001.946,3906.49,1000.435,3907.478,997.464z"/>
    <path d="M3881.146,988.805c1.488,0,2.708-1.218,2.708-2.708C3883.854,979.958,3875.026,988.805,3881.146,988.805z"/>
    <path d="M3871.698,987.094c1.923,0,3.715-4.449,2.345-5.819C3869.611,976.84,3869.233,987.094,3871.698,987.094z"/>
    <path d="M3896.596,959.751c-12.674,0.087-12.469,6.255-4.432,4.269C3898.067,962.565,3901.02,959.721,3896.596,959.751z"/>
    <path d="M3789.882,963.148c-2.157,0-3.701,2.672-2.335,4.038C3791.689,971.329,3792.704,963.148,3789.882,963.148z"/>
    <path d="M3798.434,958.017c-2.296,0-3.914,3.113-2.667,5.131C3799.628,969.395,3801.624,958.017,3798.434,958.017z"/>
    <path d="M3809.979,958.445c-0.693-3.606-3.729-3.378-4.502,0.337C3804.752,962.264,3810.781,962.603,3809.979,958.445z"/>
    <path d="M3552.999,937.889c-1.064-1.066-12.939,8.249-12.939,10.15C3540.059,950.118,3553.984,938.874,3552.999,937.889z"/>
    <path d="M3552.032,935.388c7.687-3.804,9.368-7.324,2.194-4.596c-5.268,2.003-9.036,4.794-9.036,6.695 C3545.191,938.195,3548.27,937.251,3552.032,935.388z"/>
    <path d="M3959.865,938.347c-5.643,12.081-5.034,14.342,1.497,5.559C3967.841,935.195,3970.911,914.704,3959.865,938.347z"/>
    <path d="M3886.563,916.967c-4.208,0-20.708,32.187-3.729,8.552C3886.864,919.911,3888.147,916.967,3886.563,916.967z"/>
    <path d="M3881.983,915.918c16.667-35.616-11.729,7.292-9.221,11.354C3874.525,930.125,3876.434,927.777,3881.983,915.918z"/>
    <path d="M3802.002,892.328c-4.746-4.214-4.663-3.683,1.58,10.088C3814.348,926.155,3812.868,901.98,3802.002,892.328z"/>
    <path d="M3892.119,888.348c6.06,14.556,7.044-6.265-8.162-22.466c-7.392-7.873-8.295-5.284-2.952,0.484 C3886.218,871.99,3887.649,877.603,3892.119,888.348z"/>
    <path d="M3801.653,881.84c-3.636-2.246-3.619,0.824,0.031,5.951C3811.388,901.416,3806.611,884.907,3801.653,881.84z"/>
    <path d="M3834.041,880.429c-1.671-9.076-2.526-10.921-4.356-9.402c-3.082,2.559-2.88,4.798,1.288,14.222 C3836.268,897.218,3836.444,893.473,3834.041,880.429z"/>
    <path d="M3774.387,883.614c-3.068-3.695-6.486-0.27-3.421,3.421C3774.031,890.729,3777.452,887.308,3774.387,883.614z"/>
    <path d="M3781.485,887.035c0-1.964-3.677-3.941-3.677,0C3777.808,890.957,3781.485,889.01,3781.485,887.035z"/>
    <path d="M3840.654,881.754c-1.204-10.688-4.692-14.114-4.692-4.61c0,3.874,0.467,8.261,1.038,9.749 C3839.219,892.677,3841.519,889.439,3840.654,881.754z"/>
    <path d="M3767.545,883.715c0-6.898-7.911-2.359-6.104,0.563C3763.137,887.024,3767.545,886.617,3767.545,883.715z"/>
    <path d="M3758.566,881.476c1.049-3.145-4.156-2.61-5.371,0.552C3751.611,886.166,3757.757,883.908,3758.566,881.476z"/>
    <path d="M3746.165,882.758c6.635,0,3.677-4.276,0-4.276C3742.481,878.482,3739.539,882.758,3746.165,882.758z"/>
    <path d="M3865.948,872.496c3.493,0,2.829-5.131,0.985-5.131C3865.152,867.365,3862.339,872.496,3865.948,872.496z"/>
    <path d="M3740.842,861.496c-1.295-3.373-4.084-3.512-4.084-0.204c0,2.514,4.442,6.886,9.267,5.034 c3.973-1.524,3.305-4.514-0.723-3.234C3743.021,863.816,3741.526,863.28,3740.842,861.496z"/>
    <path d="M3862.474,858.813c-3.135,0-4.276,0.912-4.276,3.421C3858.198,871.27,3873.586,858.813,3862.474,858.813z"/>
    <path d="M3937.073,835.884c-8.896-8.013,2.186,5.641,4.179,16.942C3945.6,877.547,3949.869,847.414,3937.073,835.884z"/>
    <path d="M3696.135,816.865c10.098,4.021,17.493,10.003,20.077,16.242c5.285,12.756,7.081-9.214-17.72-19.453 c-7.55-3.115-9.626-3.376-9.626-1.209C3688.866,813.285,3692.136,815.272,3696.135,816.865z"/>
    <path d="M3911.77,802.434c2.184,1.717,4.909,6.255,6.055,10.081c1.148,3.826,2.788,6.958,3.645,6.958 c2.249,0-2.625-15.117-6.12-18.975c-2.785-3.077-7.55-4.48-7.55-2.224C3907.8,798.844,3909.585,800.716,3911.77,802.434z"/>
    <path d="M3879.846,780.687c1.674,1.674,4.007,1.418,4.007-0.44c0-0.876,1.54-2.083,3.421-2.68c3.799-1.206,4.721-5.986,1.153-5.986 C3885.492,771.581,3878.336,779.177,3879.846,780.687z"/>
    <path d="M3880.433,774.147c2.239-2.383,3.079-4.276,1.895-4.276C3871.987,769.871,3870.013,785.235,3880.433,774.147z"/>
    <path d="M3877.85,768.16c5.567,0,1.741-6.753-7.793-1.651c-1.82,0.975-3.308,3.284-3.308,5.131 C3866.75,780.638,3873.2,768.16,3877.85,768.16z"/>
    <path d="M3821.24,809.925c3.339-8.697-2.065-22.114-2.933-3.706C3817.992,812.85,3819.424,814.658,3821.24,809.925z"/>
    <path d="M3793.386,779.47c-0.571,0.623-0.27,1.433,0.67,1.801c15.744,6.156,16.249,9.312,16.249,5.644 C3810.306,784.722,3794.822,777.908,3793.386,779.47z"/>
    <path d="M3788.498,773.343c1.175,0.027,7.911,2.653,14.966,5.834c37.053,16.704-1.666-9.306-13.208-9.306 C3786.295,769.871,3784.583,773.25,3788.498,773.343z"/>
    <path d="M3743.563,757.965c-3.417,6.382,6.462,20.094,4.095,4.637C3746.271,753.555,3746.056,753.309,3743.563,757.965z"/>
    <path d="M3734.927,765.451c3.563,4.293,5.251,3.193,5.251-3.419C3740.178,750.29,3730.994,760.706,3734.927,765.451z"/>
    <path d="M3944.574,810.184c-2.957-1.09-2.874-0.777,0.617,2.304c3.994,3.527,13.921,4.982,13.921,2.041 C3959.112,812.435,3949.874,812.135,3944.574,810.184z"/>
  </g>
</svg>