<?xml version="1.0" encoding="utf-8"?>
<svg viewBox="265.838 -10.065 518.946 519.538" xmlns="http://www.w3.org/2000/svg">
  <g transform="matrix(1, 0, 0, 1, 236.166841, -719.990496)">
    <path d="M30.164,710.434c-0.038,22.764-0.83,496.299-0.867,519.113c22.81,0,497.18,0,519.99,0l-0.866-519.113 C548.421,710.434,30.164,710.434,30.164,710.434z M513.12,1020.779c-3.799-3.31-3.818-3.411-0.303-1.71 c14.067,6.802,26.59-9.758,29.678-39.244l1.165-11.118l0.243,12.951C544.453,1011.107,526.107,1032.092,513.12,1020.779z M524.222,1088.661c6.014-9.934,6.472-2.365,2.704,3.828C522.553,1099.682,516.636,1101.194,524.222,1088.661z M521.492,1110.54 c-1.731-1.733,0.585-5.855,3.291-5.855C529.478,1104.685,525.021,1114.069,521.492,1110.54z M515.803,1106.948 c-1.772,4.616-7.577,3.618-7.577-1.307C508.226,1094.849,517.724,1101.942,515.803,1106.948z M511.647,1089.292 c4.531,0,4.531,5.131,0,5.131S507.116,1089.292,511.647,1089.292z M506.516,1077.011c0-2.398,0.801-3.171,2.581-2.489 c4.264,1.637,10.771-1.863,13.586-7.307c1.844-3.564,2.701-10.471,2.822-22.737c0.378-38.062,7.401,16.001,0.566,27.705 C520.705,1081.372,506.516,1084.874,506.516,1077.011z M403.3,1189.914c-4.018,4.439-3.518,8.056,1.676,12.141 c5.388,4.238,16.042,4.58,33.977,1.089c6.585-1.281,12.223-2.094,12.529-1.804c1.71,1.621-68.117,19.879-68.117-2.135 c0-8.436,5.537,1.493,8.564-6.464c5.364-14.113,41.086-10.11,28.723,2.254c-3.081,3.081-7.068,2.578-5.798-0.73 C417.363,1187.728,408.349,1184.335,403.3,1189.914z M297.935,1192.596c-23.426-3.376-22.67-3.736,5.896-2.807 c61.375,1.998,136.524-28.822,190.712-56.076v-64.912c0-73.827,0.048-74.126,12.672-80.162c16.796-8.029,20.289-9.12,21.729-6.789 c2.003,3.24-0.081,4.591-12.134,7.866c-18.785,5.109-17.847,1.107-18.847,80.352l-0.855,67.762l-11.973,5.923 C430.47,1170.797,357.636,1201.198,297.935,1192.596z M379.089,1210.386c-22.615-0.032-28.222-15.048-17.318-15.048 c3.19,0,3.978,0.732,3.356,3.113C362.729,1207.613,391.55,1210.405,379.089,1210.386z M119.107,1105.544 c-15.669,0.005-18.069,0.462-28.603,5.448c-22.063,10.444-45.574,35.549-37.46,58.814c6.491,18.63-13.304-8.284-1.914-30.223 c8.33-16.04,45.829-46.537,82.957-37.046c25.49,6.52,38.999,20.47,13.861,8.562C137.137,1105.98,134.858,1105.541,119.107,1105.544 z M144.763,1128.821c-1.675-1.71-15.447-15.245-14.282-16.41c0.999-0.999,11.769,2.287,13.979,4.262 C146.18,1118.211,145.053,1125.965,144.763,1128.821z M110.492,1130.985c-5.983,2.295-7.634,0.811-7.634-6.871 c0-6.436,1.94-6.638,11.118-11.272l-3.848,3.686C98.981,1127.2,117.621,1128.248,110.492,1130.985z M83.041,1155.57l2.431-5.559 l0.14,6.293c0.287,12.85-10.242,12.991-15.555,9.891c-8.997-5.251-14.361-46.801,34.508-55.165 c18.912-3.234-28.81,7.177-36.013,29.005C63.452,1155.492,76.812,1169.817,83.041,1155.57z M64.293,1053.373 c14.198,0,21.459,6.681,21.459,19.745c0,6.934-4.211,10.56-12.337,19.557c-12.606-9.917-13.319-5.561-13.319-10.269 c0-3.221,0.328-3.296,4.704-1.06c6.009,3.07,11.869,1.018,14.138-4.953c7.421-19.524-24.002-24.163-31.653-9.37 c-7.404,14.318,2.59,33.88,18.869,36.935c5.205,0.977,20.811-2.785,38.265-9.223c3.089-1.137,1.568,2.376-3.676,3.623 c-13.413,3.198-26.183,9.66-36.056,7.957C33.697,1100.967,33.342,1053.373,64.293,1053.373z M42.376,1118.892 c-1.926-1.926-1.173-3.944,1.473-3.944C49.226,1114.948,44.854,1121.372,42.376,1118.892z M59.668,1038.407 c-1.078,3.236-6.414,3.696-6.414,0.552C53.254,1035.292,60.604,1035.596,59.668,1038.407z M54.965,1028.714 c0-3.715,5.596-3.255,4.74-0.676C58.647,1031.209,54.965,1031.734,54.965,1028.714z M146.311,1087.804 c-1.284,11.35,0.397,10.712-20.544,7.791c-7.842-1.095-12.758-2.665-13.858-4.427c-25.718-41.216-34.039-63.383-38.077-101.442 c-2.605-24.534-3.681-22.35,10.637-21.585c10.966,0.587,28.65,4.098,28.65,15.183 C113.119,1036.619,148.933,1064.615,146.311,1087.804z M122.593,994.425c3.677,25.131,24.218,73.719,24.218,73.719 c-0.797,0.795-17.161-28.643-20.816-37.443c-3.667-8.833-7.276-25.446-8.636-39.759 C115.438,970.732,121.469,986.735,122.593,994.425z M55.822,1116.417c2.407-1.033,6.397-2.923,9.407-3.033 C68.944,1113.248,65.265,1116.677,55.822,1116.417z M54.202,1126.772c-2.915,4.71-7.673-0.652-4.562-3.763 C51.999,1120.649,55.964,1123.921,54.202,1126.772z M53.254,1108.962c0,2.576-3.611,3.517-5.655,1.473 C44.565,1107.4,53.254,1103.89,53.254,1108.962z M159.567,949.362c-6.346-0.462-7.249-1.013-6.787-4.143 c0.794-5.369,8.552-7.389,15.353-3.996c3,1.497,6.734,2.314,8.301,1.818c1.77-0.563,5.834,1.727,10.755,6.058 c10.548,9.286,11.415,14.352,5.371,31.379c-5.596,15.765-5.099,16.642,3.198,11.513c7.986-4.935,8.013-6.618,8.013,9.298 c0,36.625-25.193,26.973-37.701,88.35c-4.309,21.144-2.492,19.413-9.799,14.785c-13.045-8.26,7.386-79.822,11.691-94.179 C179.588,971.478,176.711,950.606,159.567,949.362z M69.931,830.11c-8.778,2.384-5.162-5.933,6.491-5.933 c20.344,0,13.208,26.867,8.891,30.435c-6.601,5.453-33.206,8.957-36.653-27.94c-1.225-13.114,1.88-15.495,3.405-2.612 c1.172,9.893,6.655,21.495,11.343,24.006c4.938,2.643,14.893,2.131,17.944-0.92C83.204,845.295,90.786,824.44,69.931,830.11z M118.931,827.803c10.232,17.92,10.591,17.612,24.692,26.558c-7.016,11.903-23.982,38.012-29.205,83.987 c-2.383,20.968-2.251,18.538-13.271,14.027c-4.432-1.815-12.128-3.19-18.139-3.245l-10.444-0.092 C81.877,888.198,84.456,883.644,118.931,827.803z M484.54,776.942c8.834-4.442,2.892-0.549,15.199,50.189 c13.675,56.393,5.899,57.311,0.792,43.713C471.717,794.09,406.726,763.501,322.646,763.6 c-48.434,0.056-59.658,4.423-107.059,19.749c-9.966-10.618-6.279-6.689-16.237-17.296l5.203-1.69 c48.302-15.685,117.732-26.262,167.695-15.673C447.689,764.681,462.5,788.035,484.54,776.942z M397.049,730.887 c0,0.551-2.03,4.062-4.507,7.806c-8.755,13.228-5.932,2.311-12.228,4.603C370.642,746.824,397.049,727.856,397.049,730.887z M435.802,748.056c5.499-0.007,5.632,0.929,0.917,6.421c-3.561,4.146-10.045,3.792-12.438-0.679 c-4.454-8.325,5.855-33.192,36.569-27.151c13.613,2.679,20.171,5.528,8.892,3.864c-25.797-3.807-39.34,0.239-39.34,11.751 C430.402,747.634,430.802,748.063,435.802,748.056z M533.882,810.621c0-26.765-10.305-30.654-3.382-34.357 c6.495-3.479,8.954,22.367,8.812,29.953C538.829,832.248,533.882,836.259,533.882,810.621z M537.768,856.674 c0-4.233,0.334-5.964,0.742-3.848C539.499,857.968,537.768,867.026,537.768,856.674z M529.009,846.935 c2.357,4.213-3.667,12.948-5.378,14.008C518.865,863.887,525.561,840.771,529.009,846.935z M523.893,836.149 c2.044,0,1.69,2.09-0.944,5.559C515.962,850.909,521.16,836.149,523.893,836.149z M512.21,817.335 c3.753,0,27.958,20.917,24.545,29.418c-0.491,1.225-0.951,0.552-1.026-1.492C535.348,834.822,507.515,817.335,512.21,817.335z M534.197,766.871c-1.545,3.39-3.207,4.283-7.976,4.283c-7.836,0-7.588-1.657,0.98-6.551 C535.126,760.077,537.013,760.689,534.197,766.871z M528.433,812.395l-0.537,7.505c-2.092-13.93-2.345-22.17-12.856-26.522 c-3.467-1.437-4.714-2.774-3.614-3.874C513.339,787.591,529.844,792.708,528.433,812.395z M515.145,877.962 c-3.706,4.464-4.741,3.026-3.932-5.466c1.269-13.341-22.865-103.084-14.679-94.904c2.477,2.477,2.02,9.257,12.734,59.668 C515.973,868.818,516.975,875.756,515.145,877.962z M522.395,956.794c3.994,1.002,5.65,0.209,10.673-5.118 c13.423-14.229,0.98,9.334-11.071,9.334c-12.592,0-19.458-15.407,0.504-26.094l-3.717,4.726 C512.607,947.496,514.127,954.719,522.395,956.794z M529.839,930.267c-8.042-12.153-1.303-10.434,3.304-1.531 C537.425,937.013,535.037,938.118,529.839,930.267z M501.384,928.669c0-0.881,2.667-2.482,5.927-3.559 c3.26-1.076,9.833-5.467,14.605-9.758c4.774-4.291,9.226-7.244,9.895-6.561C535.341,912.393,501.384,932.02,501.384,928.669z M432.836,948.334c14.729,12.39-5,19.921-5,14.386c0-0.941,0.77-1.71,1.71-1.71C437.693,961.01,415.14,933.445,432.836,948.334z M371.618,932.605c-76.605-0.906-4.921-8.148,10.504-6.614c82.489,8.203,136.656,61.11,91.328,34.935 C420.001,930.06,391.067,932.836,371.618,932.605z M404.929,954.168c-3.217,0-5.104-5.386-2.461-7.02 C408.216,943.595,408.668,954.168,404.929,954.168z M382.603,940.492c3.383,0.014,12.736,6.898,12.736,9.375 C395.338,957.981,380.873,940.485,382.603,940.492z M387.682,959.266c-6.043,5.015-4.682-10.858,0.566-4.541 C389.802,956.596,389.675,957.612,387.682,959.266z M426.906,1102.074c9.481-5.555,10.298-2.728,1.534,5.299 c-9.992,9.154-17.003,11.836-30.959,11.845c-28.396,0.017-2.904,10.682,18.943,0.116l8.256-3.994 c-3.253,3.397-8.309,9.438-15.383,11.773c-13.521,4.464,7.933,2.696-8.619,9.82c-17.164,7.382-42.16,3.879-40.691-1.728 c1.107-4.242-2.13-3.236-16.35-7.705c-4.447-1.396-8.872-2.051-9.835-1.457c-4.815,2.976,1.546-8.783,8.143-15.053 c9.907-9.412,22.263-3.58,21.24-10.904c-0.925-6.635,12.161-8.032,27.502-2.937c17.504,5.814,29.515,3.207,41.346-8.976 c5.054-5.203,6.067-5.685,6.067-2.882c0,3.854-6.385,10.201-16.124,16.03C413.361,1106.473,416.253,1108.317,426.906,1102.074z M293.924,1158.083c-3.251-0.431-16.863-2.044-18.84-3.265c-1.712-1.057-1.846-25.118,7.285-16.854 c5.62,5.085,0.977,1.469,14.243-13.343l7.423-8.287c6.741,8.826,10.055,11.944,10.055,20.422 c0.008,14.592,9.308,0.835,5.893,12.748c-2.184,7.622-6.093,12.033-17.621,10.36c-5.147-0.746-5.253-1.548-1.793-13.701 C301.643,1142.395,299.536,1135.793,293.924,1158.083z M325.211,1097.584c2.925-0.407,4.276,0.216,4.276,1.97 c0,3.07-6.871,4.43-8.563,1.695C319.409,1098.797,319.977,1098.312,325.211,1097.584z M320.082,1087.184 c10.659,6.657-8.773,8.906-21.38,9.857c-14.643,1.102-25.254,3.089-34.101,12.88c-13.723,15.19-2.593-11.068,10.935-18.671 c7.753-4.358,8.889-7.09,2.949-7.09c-2.559,0-6.513,2.832-11.13,7.971c-8.258,9.188-11.022,8.872-5.345-0.611 c8.176-13.663,13.894-17.816,30.471-22.131c30.194-7.859-6.262-9.881-24.945,9.758c-8.107,8.52-11.22,8.107-5.738-0.763 c3.388-5.482,3.452-6.082,0.796-7.569c-10.078-5.638,12.616-45.817,39.358-59.853c13.545-7.105,42.261-4.529,43.419-2.819 c0.672,0.994,3.724,2.819,6.782,4.055c7.741,3.132,6.996,5.364-0.855,2.562c-33.678-12.016-71.613,21.589-74.191,26.484 c-4.228,8.036-2.525,9.436,5.234,4.302c4.358-2.884,11.371-5.125,20.87-6.666c15.573-2.528,30.569-7.892,20.922,2.767 c-4.705,5.201,0.173,1.541,13.646,12.313c3.908,3.125,9.606,6.672,12.664,7.883c3.057,1.213,5.559,2.737,5.559,3.387 c0,1.871-8.833,9.681-15.394,13.615C330,1085.207,308.548,1079.984,320.082,1087.184z M228.572,899.435 c-1.42,2.294-5.986,2.193-5.986,0C222.586,897.16,229.966,897.181,228.572,899.435z M218.365,895.246 c-5.846,2.442-12.883,3.316-12.883,1.598c0-1.866,11.309-7.658,14.966-7.664C226.208,889.169,225.086,892.438,218.365,895.246z M224.296,881.476c0-3.378,6.842-3.405,6.842,0C231.138,884.854,224.296,884.881,224.296,881.476z M229.729,889.728 c0.751-3.9,9.106-4.409,9.106-0.556c0,1.548-1.928,2.786-4.854,3.122C230.057,892.744,229.243,892.253,229.729,889.728z M268.767,908.844c0-15.334-11.166-19.586-21.577-8.22l-5.79,6.322v-5.543c0-20.024,34.208-17.853,34.208,3.992 c0,19.956-27.533,28.838-57.431,61.293c-12.096,13.128-17.669,17.313-11.229,8.434 C230.026,943.299,268.767,930.397,268.767,908.844z M338.445,824.366c-0.717-0.104,1.339-5.436,4.568-11.85 c3.229-6.412,6.404-14.501,7.055-17.973c2.814-14.995,16.069-22.273,12.618-3.804c-2.776,14.858,5.203,14.985,5.259-0.344 c0.014-3.997,0.732-7.269,1.596-7.269c4.16,0,6.982,2.454,6.982,6.072c0,5.461,8.332,27.534,11.333,30.026 c12.599,10.452-14.725-32.678-3.515-32.678c3.152,0,15.238,8.954,12.568,13.943c-2.008,3.749-0.26,4.001,4.226,0.605 c3.084-2.336,3.098-2.651,0.282-6.949c-2.921-4.456-2.911-4.49,1.044-3.306c2.196,0.657,5.543,2.167,7.44,3.358 c5.373,3.375,14.513,3.636,14.513,7.025c0,3.026-0.409,3.019-7.96-0.137c-8.841-3.693-11.145-3.019-3.488,1.021 c3.582,1.89,7.853,3.21,9.493,2.932c3.268-0.554,17.349,5.256,17.349,7.16c0,2.372-6.108,6.423-11.017,7.304 c-5.542,0.995-10.569-1.51-19.317-9.628c-7.269-6.742-9.117-4.582-2.831,3.308c8.73,10.957,11.005,15.177,10.534,19.547 c-1.049,9.713-9.414-3.57-7.196,11.229c1.567,10.452-4.584,21.348-5.925,21.014c-2.128-0.532-13.853-12.919-13.853-14.634 c0-0.989-1.216-2.807-2.704-4.04c-5.819-4.834-13.422,11.79-12.317-18.086c0.665-18.036-3.337-16.834-3.337-6.017 c0,20.144-5.622,5.34-7.959,14.646c-0.881,3.512-13.014,12.992-16.627,12.992c-0.405,0-0.443-5.839-0.082-12.975 C348.086,818.915,347.116,825.627,338.445,824.366z M327.349,898.58c-0.077-13.805,0.4-30.928-3.684-64.996 c-4.657-38.866-2.856-47.037,10.362-47.037c7.514,0,9.665,2.785,6.59,8.528c-3.843,7.182-3.46-3.37-10.16,3.33 c-3.134,3.133-3.535,5.619-3.535,21.832C326.922,861.363,332.593,862.314,327.349,898.58z M352.58,906.037 c15.13-6.079,26.376-12.833,29.272-17.583c7.608-12.474,1.269-24.938-12.681-24.938c-12.016,0-17.872,10.179-9.322,16.201 c3.034,2.136,3.356,3.017,1.52,4.163c-10.321,6.441-15.737-15.903-6.175-25.468c3.724-3.722,5.817-4.303,15.524-4.303 c10.509,0,11.533,0.354,16.21,5.586c4.136,4.628,4.991,7.085,4.991,14.337c0,15.166-7.695,23.472-28.318,30.567 C353.555,908.056,344.669,909.215,352.58,906.037z M435.607,889.137c12.32-5.964,17.706-17.975,12.498-27.871 c-6.655-12.638-34.024-5.689-22.737,10.423c2.487,3.553,2.436,3.801-0.796,3.801c-6.47,0-8.992-10.88-5.104-22.032 c2.554-7.324,9.866-10.897,20.826-10.179c8.547,0.559,8.687,0.489,10.161-5.13c1.876-7.148,4.423-5.467,10.649,7.03 c7.699,15.449,4.983,30.449-7.355,40.619c-7.534,6.211-17.665,9.671-34.466,11.773C351.673,906.03,424.038,894.737,435.607,889.137 z M359.326,773.521c-53.023-11.475-105.4,6.888-138.878,17.599c-4.251,1.36-4.054-3.915,0.855-5.109 c29.541-7.161,50.505-19.74,106.302-17.768c72.866,2.578,117.335,34.629,117.335,36.34 C444.941,804.582,395.795,781.413,359.326,773.521z M273.899,787.403c-6.158-3.52-12.58-1.905-11.118-4.276 c1.057-1.71,11.314-3.83,14.227,2.566C279.493,791.152,279.42,790.558,273.899,787.403z M255.679,800.78 c0.167-0.169,3.956,0.472,8.422,1.425c4.981,1.062,8.797,2.998,9.872,5.01c2.08,3.886,6.767,4.38,6.767,0.713 c0-7.179,11.332,2.371,13.808,11.638c3.231,12.082,8.427,14.905,8.427,4.577c0-10.15-20.525-24.895-20.525-36.163 c0-14.065,12.619,4.013,14.59-2.28c1.471-4.712,1.562-7.704,6.6-7.704c6.414,0,6.79,10.912,4.709,11.607 c-1.155,0.385-0.236,3.077,2.35,6.883c4.558,6.708,6.221,13.94,1.822,7.924c-4.589-6.277-4.71-1.016-0.156,6.758 c6.934,11.831,4.604,15.173-2.548,3.657c-12.753-20.532-19.471-24.437-6.778-4.213c11.294,17.992,23.763,46.111,16.336,36.841 c-1.426-1.779-2.901-4.088-3.276-5.131c-0.618-1.71-4.984-3.376,0.398,12.276c4.541,13.203,3.217,17.366,2.672,21.748 c-2.612-7.982-9.58-30.729-14.853-33.55c-5.949-3.185-5.596,0.053,1.567,14.373c3.855,7.707,17.009,38.423,10.776,34.571 c-0.941-0.582-1.728-2.359-1.748-3.949c-0.022-1.591-1.555-4.817-3.409-7.168c-6.25-7.93-4.492,3.845-8.102-2.6 c-1.912-3.426-7.168-2.802-2.419,4.002c2.466,3.537,12.074,25.011,7.686,26.696c-10.025,3.847-5.891-5.384-16.107-21.799 c-8.578-13.781-23.472-17.489-22.617-5.631c0.362,5.025-3.505,6.034-8.663,2.263c-2.258-1.652-2.873-4.081-2.465-9.736 c0.508-7.038,0.939-7.632,6.531-8.992c10.82-2.631,10.649-2.443,7.596-8.347c-2.193-4.238-2.328-5.673-0.631-6.722 c3.096-1.912,10.144,1.178,16.36,7.172c5.267,5.078,8.545,4.558,6.406-1.018c-3.518-9.175-33.151-10.569-33.151-23.068 c0-3.992,10.309,1.767,1.283-9.648C260.152,819.328,254.367,802.109,255.679,800.78z M311.227,894.225 c-3.399-8.018-2.637-8.968,1.216-1.515C315.992,899.575,315.109,903.379,311.227,894.225z M225.032,964.895 c24.782-23.455,38.055-31.751,75.031-46.896c41.562-17.026,41.197-16.784,39.753-26.412c-1.191-7.936-0.17-9.017,4.97-5.26 c3.46,2.531,6.222,14.311-2.81,22.588c-9.423,8.643-11.809,5.821-8.571,9.746c8.559,10.372-59.028,23.168-74.901,31.26 c-27.189,13.86-61.803,53.916-28.222,24.557c37.332-32.638,89.462-42.449,105.191-37.412c2.814,0.901-1.464,1.428-12.502,1.539 c-23.211,0.236-20.075,4.119,3.71,3.084l18.199-0.789c16.56,12.281,16.897,11.646,10.169,14.711 c-4.117,1.876-4.216,2.208-1.71,5.786c9.732,13.895-11.024,26.045-11.024,12.573c0-22.853-42.889-27.569-80.484-8.636 c-22.841,11.504-49.602,36.726-49.602,36.726c-1.302,0-3.277-10.375-3.306-17.364C208.906,981.176,212.518,976.737,225.032,964.895 z M408.844,1029.708c9.224,11.396,10.896,16.451,9.298,28.106c-0.898,6.546-1.586,7.666-4.279,6.961 c-5.357-1.401-4.717,7.247-11.104,12.927c-8.518,7.577-23.376,8.169-32.669,8.169l-1.219-16.249 c-1.139-15.214-1.907-17.169-6.457-16.451c-1.868,0.294-1.572-2.838,0.381-4.045c5.046-3.118,15.079-49.409-37.106-46.773 c-15.893,0.806-15.057,0.667-4.774-3.881l7.676-3.395c4.894,1.503,27.408,8.815,27.408,6.802c0-3.32-15.443-5.465-13.153-7.762 c1.943-1.941,9.501,1.125,17.142,6.958c9.556,7.295,12.168,5.718,3.357-2.027c-11.198-9.849,2.873-2.711,5.189-0.674 c5.441,4.784,19.962,27.76,19.986,31.624c0.034,5.537,1.885,11.402,3.595,11.402c3.315,0,2.424-20.262-13.288-37.72l-6.58-7.31 c63.486,15.195,78.714,65.215,57.149,88.612c-8.179,8.869-13.533,9.662-13.533,8.619c0-0.277,2.5-5.785,5.559-12.242 C446.812,1027.749,377.993,991.579,408.844,1029.708z M411.587,1084.16c-3.388,0-3.39-5.131,0-5.131 C414.976,1079.029,414.977,1084.16,411.587,1084.16z M400.328,1092.713c-4.17,0-3.58-3.997,0.712-4.828 C404.782,1087.155,405.192,1092.713,400.328,1092.713z M357.367,1071.845c2.605-2.607,7.543-0.224,6.862,3.311 c-0.315,1.637-1.914,3.236-3.552,3.551C357.143,1079.388,354.76,1074.452,357.367,1071.845z M359.42,1087.463 c0,2.661-1.091,3.539-4.401,3.539c-5.615,0-5.116-5.721,0.57-6.532C358.498,1084.054,359.42,1084.774,359.42,1087.463z M318.552,971.574c-5.773-0.551-5.798-0.522-4.811,5.559c2.078,12.801-8.862,3.364-3.965-5.783 c6.033-11.275,24.062-6.217,23.949,6.719c-0.109,12.483-23.765,20.203-43.386,35.808c-17.285,13.753-3.951-1.899,16.458-16.242 C328.622,982.296,329.174,972.586,318.552,971.574z M375.545,963.454c-3.346,3.346-8.226,3.458-10.885,0.253 c-4.199-5.059,5.501,0.946,6.38-9.539c0.684-8.13-2.583-11.922-12.587-14.607c-7.37-1.979-7.75-2.282-2.993-2.381 c6.914-0.147,14.003,2.526,18.926,7.138C378.997,948.637,379.647,959.353,375.545,963.454z M266.263,981.718 c16.302,7.81,5.095,29.751-0.387,15.228c-5.947-15.748-28.313-3.777-41.823,6.262l-12.585,9.346 C224.259,1000.191,249.397,973.633,266.263,981.718z M246.171,1014.226c4.126-2.208,10.623,1.926,10.623,6.76 c0,7.17-4.794-4.004-9.272,2.027c-2.723,3.667-4.216,3.783-5.504,0.428C240.665,1019.914,242.292,1016.303,246.171,1014.226z M286.039,988.002c11.338-22.569,15.869-30.059,17.749-29.337c2.959,1.136,3.123,0.771-14.52,32.291 c-34.867,62.299-48.046,89.749-28.099,156.062c0.845,2.817,0.453,3.849-1.461,3.849c-4.702,0-12.051-34.964-12.034-57.299 C247.69,1059.027,253.539,1052.696,286.039,988.002z M307.466,1028.818c-3.405,1.037-5.648-0.908,10.918-6.238 c25.455-8.184,34.325,5.191,31.497,13.258c-2.762,7.888-13.107,6.539-9.189,0.349 C349.612,1022.081,322.886,1024.125,307.466,1028.818z M345.736,1099.554c-3.768,2.017-4.598,0.151-1.368-3.079 C348.952,1091.891,351.729,1096.345,345.736,1099.554z M340.427,1092.86c-3.298,2.087-6.235,1.931-7.68-0.407 c-1.161-1.878,3.503-6.582,6.527-6.582C341.936,1085.871,342.835,1091.334,340.427,1092.86z M335.474,1107.251 c0,3.388-5.131,3.39-5.131,0C330.342,1103.863,335.474,1103.861,335.474,1107.251z M428.692,997.745 c-4.864-2.294-15.192-4.905-23.946-6.057c-18.187-2.391-23.091-4.002-23.091-7.589c0-2.326,0.576-2.362,4.704-0.284 c6.275,3.159,51.74,10.632,51.74,17.462C438.099,1002.25,438.841,1002.527,428.692,997.745z M400.47,959.3 c0,3.541-4.127,4.721-5.986,1.71C391.824,956.707,400.47,952.889,400.47,959.3z M357.709,917.555 c9.946-0.785,10.307-0.712,3.421,0.693C334.41,923.694,344.272,918.616,357.709,917.555z M466.321,906.591 c24.652-4.62,23.317,6.211,18.994,9.799c-1.895,1.572-2.335,1.351-2.138-1.074C483.471,911.704,477.114,910.17,466.321,906.591z M474.018,930.763c-10.177-1.062-58.972-12.349-81.118-14.169l-15.52-1.278l13.275-0.243 C407.193,914.769,516.518,935.188,474.018,930.763z M462.902,942.196c-6.235-2.679,5.224-0.265,11.376-3.559 C483.885,933.493,477.846,948.616,462.902,942.196z M446.494,906.846c-6.97,1.391-26.525,3.034-43.458,3.65 c-16.271,0.594-41.5,1.743-56.871,5.234c-3.587,0.814-11.335-1.709,14.111-5.957c59.69-9.956,65.427,3.554,125.468-22.073 c13.56-5.788,15.642-6.279,15.642-3.688C501.384,888.054,465.168,903.118,446.494,906.846z M476.019,848.978l2.119,8.552 c3.024,12.206,10.314,23.091,7.808,23.091C483.889,880.62,475.656,868.314,476.019,848.978z M501.455,916.967 c-3.876,8.928-5.405,18.57-9.966,41.478l-0.173-9.407C490.814,921.999,510.268,896.695,501.455,916.967z M515.393,912.063 c-3.321,2.049-28.501-31.732-6.472-9.37C513.422,907.264,516.335,911.48,515.393,912.063z M152.459,745.477 c0,14.432,16.995,3.322,8.79,10.28c-14.689,12.46-31.307-16.896-4.851-24.105c8.92-2.431,33.339-0.927,43.953,2.704l7.697,2.634 C193.699,734.253,152.459,729.151,152.459,745.477z M153.955,771.851c5.609,0.983,5.745,0.874,4.787-3.913 c-0.932-4.663-0.612-4.986,6.002-6.043c8.443-1.351,16.405,1.036,27.909,8.367c10.328,6.582,11.518,8.79,17.01,31.561 c4.635,19.211,7.764,25.374,7.832,15.426c0.058-8.415,3.587-28.851,11.742-21.466c3.205,2.901,3.418,2.873,5.323-0.688 c2.69-5.027,23.142-14.378,15.505-3.845c-3.778,5.21-5.495,11.917-9.52,37.195c-3.7,23.245-5.986,20.019-5.986,18.308 c0-1.909-3.311-5.451-3.677,6.072l-0.258,8.125c-3.26-24.059-6.327-16.516-6.327-6.269c0,8.631-1.331,20.628-3.534,12.255 c-1.057-4.013-1.209-4.064-2.47-0.855c-7.586,19.314-8.537,16.48-6.07,5.785c7.126-30.906-9.118-52.838-13.82-48.136 c-1.264,1.264,0.084,4.755,4.51,11.674c7.579,11.848,8.173,20.682,2.526,37.648c-3.891,11.694-5.667,14.309-3.977,5.858 c1.462-7.312-2.822-5.273-2.822-3.563c0,1.71-6.368,19.066-8.407,15.77c-1.61-2.603-3.823,1.069-8.588,7.463l-0.055-9.739 c-0.062-11.056-4.213-17.522-12.496-19.47c-3.973-0.934-5.708-0.094-10.661,5.157l-5.915,6.274 c-3.804-6.24-15.05-21.189,4.438-26.655c4.989-1.399,14.732-6.346-6.383-7.735c-7.921-0.522-14.207-1.857-16.087-3.421 c-3.6-2.995-7.685-12.057-7.685-17.049c0-4.379,6.753-4.733,12.941-0.677c2.348,1.538,4.726,2.34,5.283,1.784 c4.741-4.745-17.828-16.075-22.519-25.143c-7.897-15.272-4.584-35.931-3.824-42.649l4.738,3.373 C127.789,765.74,139.819,769.375,153.955,771.851z M161.007,910.554c-6.811,3.522-25.653,3.52-25.653-0.002 c0-1.57,1.597-2.566,4.124-2.566c6.431,0,24.078-5.985,29.927-10.151C182.663,888.406,167.555,907.168,161.007,910.554z M125.815,898.765c12.519-33.263,20.717-35.549,9.158-9.347c-7.31,16.564-13.172,41.149-13.399,56.199 c-0.162,10.721-2.015,17.185-4.002,13.969C115.329,955.958,121.545,910.113,125.815,898.765z M151.176,916.043 c10.969-0.592,21.693-2.314,28.65-4.601c30.185-9.924,43.611-9.891,52.043,0.13c4.871,5.788,5.807,11.809,1.835,11.809 c-4.815,0-0.068,13.644-5.668,20.556c-5.254,6.489-25.513,6.12-29.749-0.544c-2.201-3.465-1.505-5.047,1.637-3.717 c10.693,4.526,25.465-9.943,16.027-21.597c-11.397-14.075-82.305,8.74-82.305,0.395 C133.644,917.656,141.532,916.563,151.176,916.043z M154.53,1120.38c2.826,0.4,4.066,1.863,4.456,5.258 c0.298,2.588,1.562,4.704,2.807,4.704c2.92,0,4.078-4.866,6.912-29.053c3.361-28.675,10.577-44.37,30.358-66.012 c10.526-11.518,17.588-14.084,29.506-10.718c9.91,2.8,11.106,5.126,5.248,10.22c-5.462,4.748-5.559,6.621-0.344,6.621 c2.224,0,6.072,1.596,8.552,3.546c3.948,3.106,4.505,4.781,4.505,13.523c0,17.956-6.842,2.603-6.842,12.435 c0,2.335-1.507,6.159-3.347,8.501c-8.071,10.262-36.954-0.501-33.17,14.578c2.366,9.423-11.383-0.424-4.086-10.406 c5.381-7.351,28.632-3.638,28.632-16.463c0-9.183-10.179-13.104-20.356-7.841c-17.332,8.963-40.518,54.846-28.629,99.292 c5.01,18.721,12.17,21.657,10.302,33.341c-0.604,3.77-1.575,6.83-2.16,6.801c-2.311-0.116-14.161-8.203-16.485-11.251 c-6.363-8.34-16.189-39.507-18.722-59.377C150.666,1120.206,150.798,1119.85,154.53,1120.38z M225.348,1120.623 c4.77-1.834,2.247,6.293-7.346,2.745c-11.325-4.191-12.096-23.761-1.134-28.757c11.655-5.309,21.141-0.602,26.238,13.02 c3.941,10.531,3.395,14.648-0.657,4.953c-5.412-12.953-14.677-17.84-22.904-12.077 C211.109,1106.416,217.309,1123.704,225.348,1120.623z M182.513,1141.08c-0.6-6.376-0.488-14.821,0.25-18.763l1.341-7.172 c107.539,73.806,155.585,61.58,265.97,6.431c0-116.784,1.454-114.526-8.958-124.248c-12.009-11.212-52.276-14.321-56.078-16.671 c-2.374-1.468-2.071-5.482,0.467-6.207c1.175-0.335,32.926-0.611,70.555-0.611c44.847,0,88.937-1.808,58.154,8.09 c-28.865,9.279-24.801,24.596-24.801,88.875v62.36c-25.944,11.431-90.443,41.069-143.438,50.953 c-36.866,6.878-87.426-0.498-136.044-19.846C182.437,1153.33,183.773,1154.459,182.513,1141.08z M523.688,1010.612 c-1.827,0-9.052-12.112-7.909-13.256C519.431,993.707,532.353,1010.612,523.688,1010.612z M541.656,912.371 c-3.081-18.373-14.13-16.355-19.218-15.83c-10.493,1.083-11.09-0.048-1.204-2.278c9.919-2.235,16.694,1.358,20.286,10.764 C545.34,915.034,543.694,924.489,541.656,912.371z M538.251,890.479c-1.378,1.351,0.626-22.111,2.013-23.542 C541.386,865.777,539.959,888.806,538.251,890.479z M517.384,726.643c9.423-15.95,27.911-10.699,21.803,6.193 c-1.656,4.579-1.695,6.551-0.166,8.393c6.168,7.43-11.355,10.464-4.117-7.623c3.455-8.634,2.27-12.055-4.179-12.055 c-8.855,0-9.872,3.612-4.849,17.217c4.95,13.41,4.261,19.131-2.586,21.464c-8.78,2.993-19.894,0.845-31.07-6.005 c-2.956-1.811-9.44-4.613-14.41-6.228c-8.598-2.791-9.197-2.785-12.401,0.113c-5.373,4.866-1.976,13.923-9.077,6.823 c-3.848-3.848-2.814-15.849,19.856-14.963c6.453,0.253,12.635-0.097,13.736-0.778c4.688-2.899,14.07-0.226,20.284,5.778 c8.502,8.215,11.59,6.669,4.958-2.487C505.188,728.709,512.004,735.755,517.384,726.643z M497.964,719.896 c4.885-3.151,4.808,6.416,0,3.311C495.684,721.736,495.684,721.368,497.964,719.896z M464.551,716.735 c8.333,1.77,30.875,10.781,34.183,13.663c2.07,1.804,1.852,1.199-8.467-0.339c-21.638-3.217-30.811-13.36-52.149-5.251 c-10.704,4.067-11.275,3.712-1.837-2.533C445.476,716.189,454.067,714.506,464.551,716.735z M429.872,717.689 c-24.851,23.236-31.112,37.14-31.112,29.404c0-1.083-1.478-1.358-3.624-0.676c-3.616,1.148-3.616,1.137-0.428-4.279 C407.106,721.079,416.595,720.18,429.872,717.689z M346.078,723.604c3.161-3.161,6.5-2.436,6.5,1.411 c0,11.915,29.272,2.044,41.05-1.112c19.557-5.242-35.789,14.752-40.898,14.752C346.061,738.656,341.458,728.224,346.078,723.604z M297.718,733.759c0.939-1.751,4.456-5.6,7.817-8.552c10.815-9.493,26.518-4.711,26.518,0.741c0,2.008-0.722,2.181-3.308,0.795 c-11.35-6.07-15.411,10.203-27.384,10.203C296.674,736.945,296.225,736.552,297.718,733.759z M262.844,721.481 c3.405-3.763,12.623-4.519,15.844-1.298c3.306,3.308,2.369,4.825-1.965,3.178c-6.144-2.336-12.118,1.38-12.758,7.936 c-0.289,2.966-1.757,6.412-3.262,7.659C255.818,743.002,259.702,724.952,262.844,721.481z M251.663,718.986 c0,3.378-6.842,3.405-6.842,0C244.821,715.608,251.663,715.58,251.663,718.986z M251.24,740.366c-1.647,0-11.55-11.559-11.55-13.48 C239.69,718.895,252.85,740.366,251.24,740.366z M237.552,718.558c-1.077,3.236-6.414,3.696-6.414,0.552 C231.138,715.443,238.486,715.748,237.552,718.558z M230.283,724.716c1.957,0,3.951,3.677,0,3.677 C226.361,728.393,228.306,724.716,230.283,724.716z M200.959,722.653c10.765,3.082,42.152,17.764,42.152,19.719 c0,2.658-7.686,0.954-17.104-3.79c-21.833-11-30.652-12.763-63.286-12.655c-28.398,0.096-32.387-0.503-32.472-4.871 C130.201,718.541,191.429,719.923,200.959,722.653z M117.152,718.13c5.059,0,7.94,4.225,7.94,11.651 c0,7.911-6.741,13.174-8.951-0.534c-0.455-2.822-1.404-6.477-2.109-8.125C113.004,718.717,113.615,718.13,117.152,718.13z M52.042,724.078c19.856,8.297,51.992-14.597,59.345-0.855c10.204,19.068-30.632,46.785-33.215,63.999 c-1.351,9.014-0.193,9.192,1.471,16.81c3.818,17.448,37.576,15.402,14.662-5.667c-9.662-8.884-11.297-15.915-5.131-22.08 c3.961-3.961,6.513-4.209,10.69-1.04c3.859,2.93,3.891,5.133,0.044,2.981c-3.89-2.177-9.024,0.594-9.024,4.866 c0,6.178,15.963,14.219,15.963,23.813c0,9.448-5.915,11.075-15.484,11.585c-16.716,0.886-21.825-3.332-21.922-18.095 c-0.058-8.665-0.402-9.536-3.635-9.202c-6.219,0.643-9.105-22.557-1.124-33.406c7.088-9.638,36.815-18.483,32.093-26.127 c-1.834-2.968-5.603-1.519-15.611,6.005c-9.366,7.04-10.735,7.541-19.825,7.269c-13.175-0.393-12.924-1.237,2.354-8.933 c13.295-6.693,15.775-8.862,2.039-5.689C39.99,736.252,38.252,718.317,52.042,724.078z M53.682,755.784 c3.732-0.029,3.951,4.374,0.287,5.779c-3.351,1.286-10.977-0.592-10.977-2.302C42.992,757.746,48.908,755.821,53.682,755.784z M40.532,828.471c0.098-18.697,0.628-22.081,5.908-37.648c7.122-21,9.098-16.482,2.367,5.412 c-3.527,11.47-4.676,18.861-4.772,30.659c-0.171,21.319,10.071,39.323,23.694,52.746c5.826,5.74,10.276,11.39,9.89,12.551 c-2.499,7.492-25.622-19.637-31.525-31.644C40.604,849.376,40.43,848.37,40.532,828.471z M45.614,911.882 c-0.987-3.932-0.794-4.214,1.546-2.273c3.205,2.66,3.34,6.098,0.638,16.203c-2.626,9.818-0.111,16.384,6.274,16.384 c8.821,0,14.482-11.605,12.281-25.172c-0.549-3.392-5.162-13.588-10.247-22.656c-28.617-51.032,11.332,8.646,13.559,23.506 c3.946,26.318-21.912,43.193-27.56,20.556c-0.691-2.771,0.007-8.112,1.743-13.338C45.54,919.987,46.274,914.512,45.614,911.882z M78.911,957.104c27.303-0.089,39.199,6.115,54.292,28.311c6.306,9.274,12.802,13.184,17.251,10.384 c4.87-3.067,4.101-6.325-3.927-16.666c-8.927-11.492-7.752-14.595-7.752-18.502c4.519,5.14,2.651,3.016,7.102,8.077l-1.026-4.276 c-2.726-11.359-2.884-13.569-1.177-16.507c1.642-2.826,1.844-2.673,1.89,1.432c0.089,7.623,17.554,22.157,20.754,31.86 c4.221,12.789-3.267,25.976-14.749,25.976c-9.289,0-12.046-2.285-20.547-17.022c-15.856-27.492-27.7-29.896-49.546-29.941 c-13.027-0.027-16.671,0.617-23.706,4.192c-10.273,5.222-14.778,10.736-14.778,18.089c0,24.204,30.981,15.185,26.624,32.537 c-2.189,8.72-21.712-0.062-23.682,7.474c-1.274,4.865,3.9,6.267,3.9,8.826c0,7.933-20.241-12.26,4.021-13.552 c7.334-0.39,10.042-1.278,11.352-3.724c2.656-4.964,0.607-7.7-8.166-10.911c-11.243-4.114-14.128-6.705-15.845-14.229 C36.697,969.212,50.935,957.194,78.911,957.104z M42.992,1037.124c2.68,0,5.29,4.276,0,4.276S40.312,1037.124,42.992,1037.124z M46.753,1216.29c4.777-9.789,6.041-8.121-0.363-22.713c-6.32-14.397-5.975-21.269-6.647-33.304 c2.465,17.097,2.066,19.858,13.583,38.018C67.581,1220.772,45.821,1218.203,46.753,1216.29z M108.149,1209.281 c-0.982-1.589-2.449-1.464-6.281,0.534c-7.929,4.136-10.812,2.94-3.599-1.493c23.499-14.444,18.014-27.476,8.992-13.189 c-12.897,20.434-44.801,12.585-29.614,9.623c10.346-2.017,8.891-3.722-4.216-4.94c-16.475-1.531-15.839-2.817-23.593-18.018 c14.178,8.814,15.982,10.699,26.104,10.367c16.3-0.534,24.245-11.691,19.105-26.83c-3.132-9.229-2.018-11.73,4.634-10.399 c4.635,0.927,5.224,0.404,8.963-7.953c4.473-9.994,12.147-19.097,14.745-17.491c0.937,0.578,1.704,3.062,1.704,5.516 c0,2.456,2.395,8.708,5.321,13.894c13.832,24.51-4.406,32.999,7.971,30.522c3.826-0.766,6.433-0.111,9.659,2.425 c5.798,4.562,6.033,5.025-2.015,8.761C137.181,1194.717,112.575,1216.441,108.149,1209.281z M207.192,1219.053 c-6.758,0-7.228-0.228-3.848-1.856c2.767-1.336,4.93-1.336,7.697,0C214.419,1218.825,213.95,1219.053,207.192,1219.053z M188.378,1215.235c-6.772,1.178-16.499-8.237-31.147-11.985l-8.908-2.28c13.632-4.5,17.761-6.609,31.388,0.296 c10.591,5.367,11.528,4.784,13.069-3.438c2.706-14.409,16.23-19.23,14.812-9.575c-1.072,7.302,6.442,17.453,6.442,20.398 C214.034,1210.737,190.403,1214.881,188.378,1215.235z M278.416,1203.818c-34.675-14.491-45.106-1.803-37.819,9.318 c1.599,2.441,2.627,4.389,2.283,4.329c-13.189-2.29-19.824-15.758-11.742-23.838c11.646-11.646,52.979,6.264,79.535,15.517 C363.381,1227.516,299.166,1212.488,278.416,1203.818z M298.7,1197.062c5.79-0.007,10.186-0.819,18.936,5.201 c4.168,2.867,10.08,6.301,13.136,7.63C343.1,1215.254,321.994,1211.24,298.7,1197.062z M321.929,1197.421 c2.865-0.354,11.272,3.079,23.946,9.775C398.768,1235.151,306.22,1199.355,321.929,1197.421z M381.811,1216.72 c-37.872-8.509,21.755,2.945,64.736-9.378c3.658-1.05,6.609-0.826,9.607,0.73C466.203,1213.283,411.177,1223.317,381.811,1216.72z M486.165,1207.884c-1.999,3.236-3.159,7.124-2.578,8.641c1.681,4.384-16.808,5.631-2.01-10.516 C488.527,1198.425,491.308,1199.563,486.165,1207.884z M540.801,1178.75c-5.949-1.557-6.392,6.876-0.958,18.245 c4.298,8.992,4.505,10.285,2.354,14.788c-2.071,4.336-3.392,4.994-10.893,5.434c-18.512,1.083-16.605-13.34-28.285-7.302 c-6.284,3.25-6.333,3.226-6.784-3.46c-0.833-12.419-0.003-14.859,7.716-22.689c8.52-8.643,10.206-14.679,3.848-13.776 c-9.584,1.356-13.906,28.691-38.666,31.622c-19.278,2.283,1.634-7.986-17.436-7.986c-10.002,0-17.901-3.488-19.206-8.482 c-2.928-11.184,10.923,2.82,20.953-0.056c25.282-7.25,46.212-41.919,59.548-41.919c5.316,0,9.98,1.545,19.281-34.362 c6.518-25.15,7.245-51.745,1.974-72.187c-1.803-6.987-2.54-12.893-1.678-13.427c2.265-1.399,2.384-1.108,6.392,15.64 c7.486,31.285,6.288,51.834-5.708,97.838c-8.896,34.13,10.834,6.068-3.647,38.141c-3.293,7.293-5.98,15.856-5.98,19.03 c0.008,8.229,5.694,16.889,11.085,16.889c10.923,0-2.54-19.812-2.54-29.854c0-5.251,6.443-10.235,9.718-7.517 C545.363,1176.243,544.653,1179.757,540.801,1178.75z"/>
    <path d="M519.193,1207.311c1.209,0-1.185-16.317-2.624-17.874C513.754,1186.392,515.198,1207.311,519.193,1207.311z"/>
    <path d="M475.47,1191.917c2.578,0,10.521-7.69,10.521-10.184C485.991,1177.074,472.904,1191.917,475.47,1191.917z"/>
    <path d="M516.226,1161.906c-6.342-5.578-9.929-3.123-4.384,1.141C518.177,1167.918,521.947,1166.938,516.226,1161.906z"/>
    <path d="M203.59,1202.515c0.966-1.805,1.031-4.091,0.154-5.509C199.241,1189.717,197.201,1214.455,203.59,1202.515z"/>
    <path d="M117.558,1205.6c1.929,0,10.955-7.078,10.955-8.59C128.513,1194.787,111.634,1205.6,117.558,1205.6z"/>
    <path d="M116.372,1168.919c-1.165,2.976-2.355,12.736-0.645,12.736C119.68,1181.654,119.725,1160.351,116.372,1168.919z"/>
    <path d="M127.639,1156.84c0.652,3.756,1.692,7.604,2.313,8.552c1.274,1.955,3.316-6.13-0.645-11.511 C126.515,1150.094,126.481,1150.155,127.639,1156.84z"/>
    <path d="M162.442,1152.753c0.732-5.16-3.048-18.991-5.19-18.991c-0.883,0-1.235,1.348-0.783,2.993 C157.525,1140.603,160.886,1163.733,162.442,1152.753z"/>
    <path d="M187.531,1061.925c-1.11,0-7.681,10.598-7.699,12.401C179.8,1080.546,188.684,1061.925,187.531,1061.925z"/>
    <path d="M304.662,1128.958c-0.043-7.516-3.339,0.612-3.369,3.623C301.262,1136.376,304.705,1135.364,304.662,1128.958z"/>
    <path d="M375.073,1133.959c2.769,1.755,7.938,1.748,12.445-0.017c3.123-1.225,3.134-1.355,0.197-2.48 C383.372,1129.796,372.037,1132.035,375.073,1133.959z"/>
    <path d="M366.856,1113.932c-6.992-1.312-24.541,2.08-24.541,4.743c0,0.973,1.218,1.303,2.706,0.732 C348.045,1118.247,391.372,1118.528,366.856,1113.932z"/>
    <path d="M291.86,1092.776c4.625,1.902,9.748,1.921,12.71,0.046C310.272,1089.21,281.316,1088.443,291.86,1092.776z"/>
    <path d="M323.86,1066.605c12.257,1.377,6.741,3.393,18.214,1.098C368.206,1062.477,290.486,1062.847,323.86,1066.605z"/>
    <path d="M267.059,1067.056c0.941,0,1.71-0.804,1.71-1.787c0-2.335,8.922-10.384,7.783-11.525 C274.843,1052.034,260.102,1067.056,267.059,1067.056z"/>
    <path d="M291.526,1045.792c-5.087,4.654-4.972,4.673,5.036,0.814C309.732,1041.53,299.541,1038.458,291.526,1045.792z"/>
    <path d="M157.053,1091.366c3.036,3.37,3.113,3.217,3.618-7.211C161.981,1056.992,150.411,1084.001,157.053,1091.366z"/>
    <path d="M198.984,1003.877c-0.66,0.058-3.359,4.483-6,9.835C182.321,1035.309,203.292,1003.495,198.984,1003.877z"/>
    <path d="M390.308,1077.274c4.295,0.044,11.834-4.081,10.158-5.559C399.661,1071.005,382.601,1077.196,390.308,1077.274z"/>
    <path d="M390.028,1047.498c-1.782,1.101-2.063,8.195-0.39,9.866C395.905,1063.635,393.744,1045.2,390.028,1047.498z"/>
    <path d="M408.791,1036.269c-0.852,0,0.157,3.272,2.242,7.269C418.997,1058.812,414.671,1036.269,408.791,1036.269z"/>
    <path d="M338.467,946.148c-1.647-0.431-4.341-0.431-5.986,0C328.478,947.192,342.467,947.192,338.467,946.148z"/>
    <path d="M296.267,926.253c23.968-9.452,32.289-15.332,11.641-8.229c-9.936,3.417-27.168,11.716-27.168,13.083 C280.74,932.364,280.868,932.325,296.267,926.253z"/>
    <path d="M283.869,822.039c-7.025-5.408-13.471-9.835-14.326-9.835C263.453,812.204,329.007,856.801,283.869,822.039z"/>
    <path d="M180.395,865.558c8.427,3.426,9.693,3.619,9.693,1.476C190.088,859.663,157.78,856.365,180.395,865.558z"/>
    <path d="M156.76,825.887c-0.484,0-0.881,1.924-0.881,4.276c0,4.122,0.399,4.276,11.118,4.276 C195.226,834.439,158.473,825.887,156.76,825.887z"/>
    <path d="M238.637,816.052c1.249-8.299,0.546-8.983-3.262-3.175c-1.74,2.656-2.278,5.706-1.533,8.677 C235.323,827.459,237.253,825.244,238.637,816.052z"/>
    <path d="M192.378,814.668c-1.438-3.751-32.59-17.477-50.29-28.928c-6.527-4.221-11.865-6.956-11.865-6.077 C130.223,786.477,196.872,826.378,192.378,814.668z"/>
    <path d="M405.82,841.091c-2.533-6.527-21.734-24.055-6.034-2.648C406.097,847.048,408.552,848.124,405.82,841.091z"/>
    <path d="M362.507,810.977c-1.103-9.19-7.074,16.726-7.486,19.186C352.176,847.106,363.627,820.314,362.507,810.977z"/>
    <path d="M65.227,766.441c0,2.232,5.131-1.979,5.131-4.259C70.359,759.95,65.227,764.161,65.227,766.441z"/>
    <path d="M101.531,745.497c-2.456,0-5.518,3.987-5.518,7.184C96.015,761.618,103.327,745.497,101.531,745.497z"/>
    <path d="M102.857,726.683c-3.768-2.017-4.598-0.151-1.368,3.079C106.088,734.361,108.809,729.869,102.857,726.683z"/>
    <path d="M516.778,757.722c0,2.116,11.109-1.686,8.034-4.76C523.786,751.935,516.778,756.086,516.778,757.722z"/>
  </g>
</svg>