<?xml version="1.0" encoding="utf-8"?>
<svg viewBox="4.736 8.289 517.17 519.538" xmlns="http://www.w3.org/2000/svg">
  <g transform="matrix(1, 0, 0, 1, -18.767397, -10.609944)">
    <path d="M23.136,18.975c0,22.915,0,497.255,0,519.978c22.81,0,497.168,0,519.978,0L542.248,19.84 C519.436,19.803,45.901,19.014,23.136,18.975z M507.939,59.272c-3.869-2.535-4.291-3.823-3.835-11.691 c0.79-13.613,3.568-7.574,11.79-16.398c4.107-4.408,15.384-5.024,18.705-1.021c4.541,5.472-6.104,16.319-2.271,26.482 c2.119,5.615,1.835,5.93-3.021,3.332c-13.218-7.079,14.696-26.99-2.697-28.684c-15.801-1.541-15.045,26.732-7.521,40.717 c12.796,23.777-3.352,1.403-3.352,7.078c0,3.653,17.104,18.503,17.104,26.527c0,1.892-9.688-9.094-11.475-7.307 c-0.688,0.688,1.168,3.142,4.124,5.455c9.804,7.673,11.627,16.102,11.627,53.769c0,26.987-0.616,35.801-3.222,46.181 c-6.33,25.203-7.711,18.218-2.704-13.683c1.107-7.055,1.639-19.653,1.18-27.994c-0.458-8.342-0.197-14.137,0.582-12.878 c4.29,6.946,2.814-9.79-2.412-9.347c-1.556,0.13-2.831-0.698-2.831-1.84c0-3.626-7.743-9.515-12.51-9.515 c-2.526,0-4.594,0.77-4.594,1.71c0,3.192-3.183,1.729-4.37-2.008c-3.113-9.811,13.514-5.598,3.943-13.278 c-5.98-4.803-5.966-6.949,0.046-6.949c6.932,0,11.395,3.881,15.539,13.512c9.662,22.463,12.358,0.664-8.138-16.617 c-13.211-11.143-8.107-15.71-6.164-15.71c9.43,0-9.407-7.42-9.407-14.34c0-4.764-1.444-11.265-2.208-15.082l5.283,2.732 C511.63,65.784,513.936,63.199,507.939,59.272z M531.13,284.102c0-2.242,5.131-2.27,5.131,0 C536.262,286.343,531.13,286.37,531.13,284.102z M529.721,295.129c0.775-3.715,3.809-3.943,4.504-0.337 C535.027,298.947,528.998,298.613,529.721,295.129z M532.841,272.129c2.242,0,2.27,5.131,0,5.131 C530.599,277.26,530.573,272.129,532.841,272.129z M532.292,248.144c-3.356,2.945-9.734,11.663-14.176,19.374 c-11.053,19.188-26.636,33.993-35.236,38.739c-17.672,9.744,18.226-12.057,38.864-51.858c6.979-13.459,11.106-17.154,14.91-13.35 C537.83,242.224,536.424,244.514,532.292,248.144z M520.675,287.032c2.359-2.36,6.323,0.91,4.562,3.763 C522.312,295.516,517.582,290.121,520.675,287.032z M525.144,302.917c0,3.173-1.026,4.421-3.975,4.839 c-3.457,0.489-3.903-0.068-3.421-4.276C518.494,296.964,525.144,296.458,525.144,302.917z M521.164,277.844 c0.72-3.744,5.691-4.273,5.691-0.607C526.854,280.245,520.242,282.616,521.164,277.844z M500.02,330.283 c2.43,0,8.875,6.879,8.875,9.474c0,7.654-15.242-9.927-16.583-11.643c-1.124-1.438-6.127-3.164-11.118-3.835 c-14.592-1.962-15.982-4.557-1.767-3.296c16.901,1.497,12.722-0.843,21.524-5.215c6.453-3.202,2.725-11.342,7.22-7.611 c2.302,1.911,5.868,11.58-4.835,14.198c-3.161,0.773-4.704,2.263-4.704,4.539C498.633,328.759,499.257,330.283,500.02,330.283z M472.1,352.519c4.478,0,10.61,8.053,12.732,16.719c3.493,14.253,6.568,16.459-5.443,11.513c-2.282-0.939-2.993-0.393-2.993,2.292 c0,5.328-3.566,12.052-6.965,13.131c-13.572,4.307-10.796,1.235-5.863-4.627c14.395-17.106-8.81-43.436-25.395-47.871 c-5.981-1.601-8.196-3.246-10.297-7.651c-3.4-7.131-2.28-7.805,13.169-7.921c17.332-0.132,26.34,2.829,34.068,11.196 c3.527,3.819,6.414,7.587,6.414,8.371c0,1.505-9.797,1.001-11.118,3.137C469.829,351.749,470.59,352.519,472.1,352.519z M503.789,385.33c-0.036-7.608-2.249-11.506-12.565-22.123c-21.881-22.519,16.068,3.522,15.933,19.601 C507.135,385.533,503.834,394.539,503.789,385.33z M503.663,402.121c-4.806,0-2.051-3.421,1.057-3.421 C507.763,398.7,508.558,402.121,503.663,402.121z M493.79,386.452c0.688-4.859,5.697-5.39,5.697-0.604 C499.488,389.886,492.918,392.606,493.79,386.452z M491.102,399.15c-2.263-2.265-0.814-5.355,2.4-5.112 C501.249,394.622,493.835,401.883,491.102,399.15z M402.823,171.664c2.798-3.452,3.209-3.535,4.235-0.864 c2.665,6.946-18.496,11.113,2.23,15.56c6.356,1.363,11.568,1.079,23.985-1.307c18.455-3.546,21.084-0.982,3.664,3.573 c-100.061,26.171-97.386-129.578-87.166-70.882C361.086,182.703,396.594,179.356,402.823,171.664z M355.026,122.507 c0.903,0.559,1.642,2.107,1.642,3.441c0,2.271,6.949,9.382,11.126,5.918c3.034-2.519,3.467,0.123,0.505,3.086 c-2.626,2.624-3.27,2.583-7.652-0.487C357.114,131.991,351.687,120.446,355.026,122.507z M379.758,137.006 c-6.667,0-6.676-0.019-4.201-8.93c2.961-10.659,9.51-13.427,22.956-9.693c6.007,1.668,6.447,2.128,3.848,4.026 c-6.674,4.878-0.499,8.788,3.908,3.479c4.977-5.997,8.244-0.402-4.926,7.697c-11.98,7.365-9.744,15.715,9.838-2.102 c-1.406,5.381-2.391,7.993,0.216,6.38c3.181-1.965,2.194,7.991-6.802,17.003c-5.651,5.66-6.912,6.279-7.844,3.848 c-2.434-6.341-24.69,0.908-24.69-6.394c0-4.107,7.228-11.894,11.039-11.894c1.454,0,2.644-0.77,2.644-1.71 S383.051,137.006,379.758,137.006z M429.482,50.506c-5.819-5.819-0.373-15.886,8.858-16.376 c18.002-0.949,24.698,4.353,11.949,2.605C421.597,32.804,442.175,63.199,429.482,50.506z M447.417,105.421 c2.41,1.49,10.165-0.537,10.165-2.658c0-2.667-10.004-1.469-4.704-2.858c3.01-0.787,4.247-3.951,1.543-3.951 c-2.198,0-2.039-10.687,0.2-13.384c4.574-5.511,14.934-6.199,14.934-0.992c0,1.397,1.574,2.246,3.848,2.073 c3.91-0.296,21.808,5.07,21.808,6.539c0,3.26-6.063,11.333-9.489,12.637c-4.374,1.663-5.41,4.148-2.484,5.956 c3.183,1.967,1.734,4.117-5.709,8.48c-8.472,4.964-9.065,5.044-14.619,1.965c-2.634-1.461-3.392-2.687-2.138-3.462 c3.869-2.391,1.813-4.31-3.618-3.376c-4.637,0.797-4.069,0.236,3.421-3.385c14.905-7.208,8.934-10.699-0.428-4.498 c-5.467,3.619-14.539,4.623-14.539,1.61C445.609,105.118,446.422,104.809,447.417,105.421z M464.198,57.454 c-13.933-7.574,1.907-17.469-0.907-10.145C461.522,51.931,479.303,65.659,464.198,57.454z M480.396,56.101 c3.19-1.223,13.105,3.855,13.105,6.713c0,5.827-3.007-2.408-11.243-0.335C475.665,64.132,478.159,56.962,480.396,56.101z M463.569,309.758c7.17,0-2.362,9.272-11.975,11.648c-3.763,0.93-11.503,2.126-17.198,2.658 c-10.023,0.934-10.451,0.807-13.256-3.941c-3.854-6.525-4.882-6.01,5.405-9.428c18.281-6.072,40.441-22.706,31.26-40.705 c-3.205-6.279-3.207-6.414-0.038-6.414c1.779,0,4.828,1.592,6.775,3.539c7.63,7.634-1.628,23.59,6.407,22.437 c2.056-0.294,3.737,0,3.737,0.653c0,2.625-7.353,12.864-10.416,14.503C460.376,306.792,459.962,309.758,463.569,309.758z M403.704,255.331c5.721-0.168,9.885-0.989,14.38,3.801c3.835,4.079,3.84,4.17,0.912,13.458 c-8.013,25.434,12.399,24.026,16.353,16.637c1.356-2.533,1.153-4.659-0.806-8.448c-2.904-5.615-3.486-14.754-1.036-16.27 c3.27-2.022,1.539,8.627,4.95,0.349c2.265-5.504,4.986-4.704,11.335-4.704l-3.802,2.661c-4.216,2.954-5.111,10.682-1.84,15.917 c2.206,3.534,0.677,12.209-2.152,12.209c-3.392,0-16.075,14.111-25.342,2.335c-3.913-4.977-4.459-11.8-1.728-21.637 C418.628,258.316,412.056,257.749,403.704,255.331z M484.776,290.721c24.654-28.285,32.873-53.977,21.339-66.72 c-4.062-4.488-15.284-4.343-18.142,0.236c-2.757,4.415-4.734,4.36-4.734-0.132c0-2.552,6.265-14.628,16.856-12.934 c6.409,1.025,6.455,0.989,8.049-6.093c0.884-3.917,2.376-7.321,3.316-7.565c1.71-0.441,35.007,35.76-19.268,91.234 C467.795,313.684,463.843,314.736,484.776,290.721z M483.449,129.052c-1.601,1.928-1.399,3.789,0.915,8.643 c5.985,12.548-4.808,11.27-11.894-1.409c-4.767-8.526-4.495-10.028,0.718-3.985l3.32,3.848 C474.591,116.443,487.717,123.913,483.449,129.052z M486.66,153.953c0,1.71-5.131,7.05-5.131,3.113 C481.528,153.441,486.66,152.242,486.66,153.953z M494.493,192.331c0.595,1.555,0.315,2.827-0.626,2.827 c-4.863,0-5.143-15.748-0.366-20.525c4.907-4.907,28.658-7.093,31.711,9.168c1.206,6.443-0.132,23.761-0.65,10.155 C523.331,161.641,488.341,176.304,494.493,192.331z M477.96,164.373c2.54,11.022,2.263,38.833-0.486,48.802 c-6.426,23.311-10.416,21.994-5.86,29.934c3,5.227,3.59,11.862-10.05-3.074l5.029-12.602c18.324-45.956-11.024-78.262-1.462-45.357 c3.193,10.983,3.4,19.006,0.848,32.813c-2.911,15.741-6.968,21.94-20.657,31.552c-12.407,8.715-15.683,11.188-14.787,4.736 c0.436-3.142-0.18-3.749-3.364-3.305c-14.53,2.025-31.633-18.503-23.363-18.503c5.342,0-2.147-9.633,3.445-21.411 c5.728-12.065,3.053,2.023,10.706-2.755c3.922-2.449,5.275-1.238,13.112,2.704c-11.754,1.019-19.67,0.681-19.67,13.841 c0,10.87,4.042,14.804,16.249,15.816c16.856,1.399,28.053-8.085,31.595-26.76c6.643-35.029-31.337-58.481-40.041-75.301 c-8.947-17.304,7.345-31.068,24.44-20.646C458.364,123.83,473.73,146.003,477.96,164.373z M416.751,144.703 c11.99,25.386,4.399,3.761,12.558,12.772c2.454,2.713,2.793,4.522,1.586,8.491c-2.718,8.93-2.767,0.118-12.919,0.118 c-9.353,0-9.85-13.122-4.074-10.906c2.034,0.78,2.656-0.292,2.74-4.733L416.751,144.703z M475.68,457.041 c-8.882-12.101-8.049-11.875-154.461-330.299c-0.41-0.893-31.388-67.146-30.694-67.84c2.047-2.049,7.853,8.42,22.916,41.329 C493.159,492.823,489.595,475.997,475.68,457.041z M484.094,403.831c-3.282,0-3.595-5.417,0-4.04 C487.493,401.096,487.433,403.831,484.094,403.831z M492.699,124.441c0.363-18.331,1.955-25.201,4.397-18.965 C501.733,117.31,491.94,163.144,492.699,124.441z M495.212,31.473c0,5.145-1.281,6.017-2.846,1.936 C491.132,30.197,495.212,24.44,495.212,31.473z M389.107,34.408c18.907-9.647,54.333-12.171,75.317-5.371 c32.997,10.7,43.192,28.745,20.525,14.586c-26.373-16.475-63.424-19.121-91.903-6.566 C382.447,41.732,379.129,39.498,389.107,34.408z M412.465,49.774c2.273,0,2.389,0.464,0.647,2.566 c-7.305,8.8-25.998-9.188,5.986-16.726l-4.704,3.783C409.208,43.566,408.055,49.774,412.465,49.774z M386.6,88.411 c4.924,1.237,5.518-0.932,1.81-6.626c-6.97-10.706-1.673-26.879,0.038-26.879c0.474,0,2.528,1.551,4.565,3.45 c2.035,1.897,6.814,4.203,10.618,5.121c16.033,3.872,16.022,6.621,20.067,1.271l2.915-3.855 c18.466,19.052,18.998,18.406,18.998,27.996c0,9.63-5.371,18.606-8.388,14.019c-1.279-1.946-2.133-2.025-4.11-0.383 c-5.326,4.415-2.307-7.459-7.211-0.795c-2.265,3.075-2.564,3.004-7.297-1.728c-2.713-2.713-5.348-6.081-5.855-7.483 c-1.025-2.836-6.725-2.36,0.655,8.569c2.86,4.233,4.194,6.734,2.966,5.559c-3.754-3.595-7.115-2.728-4.969,1.283 c3.665,6.852-8,0.467-3.421,5.986c1.791,2.157,1.485,2.564-1.929,2.559c-9.371-0.015-23.727-15.385-23.727-25.405 C382.324,87.942,383.017,87.511,386.6,88.411z M378.433,29.249c-2.453,0-4.955-0.8-5.559-1.779 C371.288,24.903,389.893,29.249,378.433,29.249z M380.966,46.354c0.486,1.411,0.306,4.105-0.402,5.986 c-2.528,6.729-1.575-3.989-8.42-7.654C362.273,39.404,377.205,35.427,380.966,46.354z M361.628,46.354 c6.488,0,12.144,5.248,12.144,11.268c0,10.574-24.23,44.794-7.529,52.404c3.217,1.466,5.653,1.49,9.359,0.091 c5.234-1.976,6.459-0.898,2.959,2.602c-2.99,2.99-17.59,2.61-20.192-0.523c-3.876-4.669-2.785-13.813-7.387-13.434 c-7.167,0.594-4.48-11.74,7.375-33.851c2.819-5.258,2.974-6.553,0.982-8.205c-3.836-3.188-7.803,6.022-7.803,9.597 c0,4.309-2.742,6.835-3.883,3.58c-0.963-2.75-5.195,3.219-7.829,6.404l3.665,0.92c3.27,0.821,3.038,1.178-2.157,3.33 c-4.403,1.823-5.988,1.912-6.505,0.363c-0.375-1.125-2.48-2.047-4.676-2.047c-6.305,0-9.341-1.758-12.033-6.965 c-3.931-7.599-2.957-9.117,2.759-4.305c7.62,6.411,12.313,5.745,19.015-2.694C351.523,50.243,356.086,46.354,361.628,46.354z M318.671,30.708c9.286-8.066,24.964-5.815,28.446,4.084c4.856,13.815-16.873,9.281-29.789,25.704v-4.382 c0-5.006,7.391-11.81,11.231-10.338c4.351,1.671,11.066-1.108,13.016-5.388c2.903-6.371-1.972-12.85-9.669-12.85 c-10.172,0-18.293,15.394-23.797,15.394c-3.989,0-3.378-2.973,1.095-5.323C311.319,36.498,315.58,33.392,318.671,30.708z M307.065,32.67c0,4.611-6.842,4.748-6.842,0C300.224,28.054,307.065,27.922,307.065,32.67z M305.052,49.205 c-0.665,3.435-4.081,4.873-5.629,2.369C296.449,46.761,306.082,43.892,305.052,49.205z M297.254,41.908 c-5.412,5.412-10.948-5.819-4.055-5.819C296.447,36.091,299.168,39.994,297.254,41.908z M293.9,28.415 c-0.595,2.974-5.65,2.952-5.65-0.022C288.251,24.306,294.294,26.441,293.9,28.415z M288.251,46.354 c5.383,0,4.213,7.584-1.283,5.612C283.516,50.729,284.517,46.354,288.251,46.354z M456.794,432.282 c15.941,33.74,27.627,44.409,53.146,48.525c13.796,2.225,19.48,4.279,19.48,7.044c0,3.21-53.664-0.677-75.258-0.819 c-8.147-0.053-68.788,3.212-70.555,1.374c-9.984-10.375,51.665,2.336,36.666-41.048l-2.988-8.644 c5.583-8.829,13.697-19.114,6.862-32.219c-4.591-8.809,1.805-8.947,0.641-19.155l-0.559-4.887 c-12.616,0.474-33.353,1.657-33.353-0.487c0-2.525-22.918-56.208-34.284-67.929l-86.335-0.474 c-75.212-0.412-86.995-0.132-91.456,2.174c-4.827,2.497-5.608,2.4-13.687-1.693c-4.71-2.388-8.566-4.647-8.566-5.022 s17.807-37.884,39.572-83.354c79.99-167.108,80.663-174.406,87.965-167.105C287.134,61.605,443.889,404.965,456.794,432.282z M392.586,507.986c9.231,5.535,3.71,4.227-6.233-1.476c-47.418-27.194-5.74-72.508-5.74-56.497c0,6.33,10.707,1.129,15.052,5.473 c5.325,5.325-1.334,20.537-3.763,10.848c-2.14-8.526-16.449-7.281-19.875,1.729C366.817,481.763,374.844,497.35,392.586,507.986z M371.709,378.247c3.322,5.319,2.519,8.48-2.153,8.48c-2.417,0-4.97,1.411-5.985,3.305c-2.039,3.809-7.652,6.043-10.601,4.221 c-1.353-0.836-0.811-1.695,1.644-2.602c5.367-1.986,6.758-9.534,2.533-13.757c-7.117-7.119-27.398-0.147-47.675,39.235 c-14.982,29.101,6.7-33.493,37.693-48.203c5.661-2.685,28.318-3.948,28.318-1.577c0,0.631-1.314,2.6-2.918,4.372 C370.183,374.352,370.026,375.55,371.709,378.247z M345.447,466.246c3.046,12.951,2.073,14.381-1.58,2.321 c-5.682-18.765,1.324-48.716-9.686-54.61c-4.045-2.164-11.722,1.965-11.722,6.303c0,4.285-4.237,1.68-4.68-2.879 c-0.501-5.145,6.984-12.262,13.405-19.318l4.89,2.889c2.69,1.587,6.067,2.436,7.507,1.885c4.435-1.704,5.419,10.097,2.229,26.741 C342.382,447.457,342.327,452.982,345.447,466.246z M319.945,447.019c-1.074,4.711-1.529,19.061-1.757,24.374l-1.143-9.407 c-0.628-5.174-1.615-10.605-2.193-12.067c-1.664-4.211,6.134-14.359,11.515-14.985c6.411-0.747,9.224,6.175,5.467,13.442 c-2.323,4.48-2.323,5.673,0,11.231c3.178,7.608,3.178,7.51,0.072,7.51c-1.391,0-3.814-1.967-5.39-4.37 c-2.371-3.616-2.537-5.434-0.968-10.545C329.463,439.439,321.017,442.311,319.945,447.019z M249.766,432.823 c-7.29,2.738-12.664,3.445-13.68,1.801c-1.437-2.324,2.909-0.838,7.49-3.698c1.789-1.117,4.574-1.415,6.39-0.684 C253.067,431.491,253.061,431.588,249.766,432.823z M247.201,475.799c0-1.787,0.859-1.377,2.74,1.309 C255.98,485.731,247.201,481.221,247.201,475.799z M243.915,466.619c-3.472-9.135-13.021-10.931-12.895-2.425 c0.166,11.308-9.212-4.074-0.253-9.941c7.567-4.958,13.051-1.112,15.295,10.726C247.281,471.412,246.086,472.325,243.915,466.619z M230.158,419.078c-1.146,2.764-1.589,6.814-0.983,9c1.064,3.848,1.014,3.869-1.555,0.655c-3.452-4.317-3.378-11.135,0.174-16.206 c5.761-8.227-9.344-14.357,8.208-10.425c17.549,3.934,26.118,11.212,29.948,25.436c2.388,8.865,1.285,11.332-1.498,3.351 C258.466,413.712,235.635,405.85,230.158,419.078z M264.609,415.348c-12.575-26.031-34.8-44.625-58.859-49.243 c-13.979-2.684-30.531,0.664-36.923,7.466c-6.255,6.659-5.191,19.726,1.869,22.966c3.795,1.743,3.792,1.757-1.052,4.013 c-7.153,3.33-13.247-0.564-16.355-10.452c-1.322-4.206-3.159-8.142-4.081-8.747c-2.74-1.796,0.335-10.204,5.496-15.024 c8.54-7.976,31.472-10.473,28.236-15.712c-1.988-3.216-9.941-1.223-24.681,6.18c-14.181,7.122-25.624,10.083-23.084,5.974 c1.674-2.708-3.417-3.807-9.686-2.092c-6.573,1.799-20.457-0.949-21.536-4.264c-0.86-2.632,13.066-15.84,16.215-18.989l-7.04-7.04 l6.262-2.617c8.195-3.423,10.162-3.306,15.531,0.917c4.883,3.842,7.945,3.181,7.945-1.714c0-10.671-25.266-6.113-30.68-27.415 c-4.312-16.964-4.295-17.164,1.466-17.164c10.94,0-0.484-8.191,10.459-19.14c5.027-5.025,5.545-5.154,16.131-4.02 c6.712,0.718,12.241,0.474,14.308-0.633c8.679-4.642,3.019,11.819-1.442,11.819c-0.907,0-1.468,1.7-1.242,3.778 c1.281,11.894-16.028-4.114-20.749-2.651c-4.553,1.408,3.727-4.548,5.179-4.548c1.71,0,0.438-9.424-6.857-1.592 c-22.632,24.293,37.71,57.109,67.202,72.436c45.95,23.877,61.714,39.454,75.503,74.602c3.965,10.107,4.249,12.021,2.203,14.901 C272.183,430.392,271.429,429.462,264.609,415.348z M56.082,334.667c10.006-4.471,9.388,16.14,4.536,16.14 c-0.819,0-0.636-1.875,0.409-4.167C67.044,333.43,48.525,338.049,56.082,334.667z M41.165,350.256 c-3.328-7.481,2.95-35.31,12.962-57.444c7.22-15.962,8.094-11.427,1.025,5.309c-3.301,7.811-6.9,17.055-7.998,20.539 C43.878,329.052,43.367,355.208,41.165,350.256z M36.391,359.222c-3.587-2.088-2.781-7.483-2.59-12.691l1.081,5.023 c0.828,3.85,2.377,5.359,6.64,6.462C54.467,361.37,41.415,362.148,36.391,359.222z M45.542,126.986 c2.123-6.091,9.388-9.238,11.959-5.181c6.417,10.138-5.458-2.901-11.398,10.75C43.324,138.94,42.886,134.603,45.542,126.986z M36.819,103.671c0-2.261,1.016-2.138,6.842,0.835c3.763,1.919,6.842,3.859,6.842,4.31 C50.502,110.729,36.819,108.721,36.819,103.671z M48.792,149.422c0-1.185,2.022-2.153,4.502-2.153 c12.305,0,26.522,34.422,47.627,46.953c12.206,7.247,10.688,7.873-2.528,1.045c-16.235-8.391-27.822-29.806-38.433-36.273 c-6.925-4.223-12.951-4.117-14.094,0.248c-1.156,4.423-3.915,4.433-3.915,0.014C41.95,154.322,48.792,152.687,48.792,149.422z M86.849,91.423c-3.669,0.758-3.197,0.217,2.138-2.451c5.632-2.819,9.033-3.263,19.242-2.519 c9.917,0.724,12.401,0.426,12.401-1.488c0-3.08-11.34-5.049-20.953-3.638c-7.05,1.037-7.141,0.99-2.993-1.5 c2.352-1.411,6.392-2.593,8.98-2.627c2.586-0.033,4.704-0.766,4.704-1.628c0-4.353,37.364-7.213,30.859,0.626 c-3.956,4.764,7.24,3.382,9.337,12.926c2.186,9.938,11.981,14.414,7.548,17.221c-4.028,2.55-14.015,1.632-20.71-1.905 c-3.895-2.056-6.724-2.68-7.375-1.628c-2.985,4.835-22.538-8.566-29.067-8.566c-5.781,0-14.8,3.452-20.953,8.02 c-3.058,2.27-5.559,3.373-5.559,2.453c0-2.374,8.357-8.65,13.105-9.84C93.227,93.453,92.57,90.241,86.849,91.423z M175.467,76.944 c-5.147,9.619-4.35-3.939-11.556-0.084c-7.37,3.944-19.336-4.685-19.336-13.943c0-1.331-1.628-4.49-3.619-7.02 c-2.795-3.554-4.839-4.481-8.98-4.079c-4.428,0.431-5.456,1.344-5.904,5.254c-1.276,11.092-8.391-5.614,0.84-9.122 c19.595-7.449,19.321,20.958,33.057,18.958c5.632-0.819,6.948-10.358,2.338-16.94c-7.321-10.452-32.537-13.822-51.555-6.888 c-45.962,16.757,21.676-20.708,56.059-1.798c8.709,4.789,15.907,15.714,11.041,16.755 C172.873,59.106,179.196,69.974,175.467,76.944z M163.017,133.848c-0.941,2.831-7.204,4.516-6.098,1.182 C157.867,132.194,164.129,130.518,163.017,133.848z M146.464,126.887c-3.234-2.046-0.98-7.391,2.81-6.662 c1.649,0.318,2.998,2.042,2.998,3.833C152.272,127.852,149.854,129.03,146.464,126.887z M147.379,139.238 c-2.044-2.044-1.105-5.655,1.473-5.655C153.923,133.585,150.41,142.27,147.379,139.238z M147.141,113.06 c3.392,0,3.393,3.421,0,3.421C143.749,116.481,143.748,113.06,147.141,113.06z M137.159,187.347 c-2.608,6.792-8.446-0.953-4.784-4.618C134.965,180.139,138.584,183.634,137.159,187.347z M139.053,169.824 c-0.835,2.501-3.689,3.58-5.275,1.996C129.036,167.077,140.111,166.644,139.053,169.824z M124.348,123.889 c0.725-3.765,7.399-4.276,7.399-0.566C131.747,126.302,123.414,128.748,124.348,123.889z M122.34,170.215 c0-6.139,8.827,2.709,2.708,2.709C123.558,172.925,122.34,171.705,122.34,170.215z M122.768,184.47 c-2.891,0.963-2.891-6.949,0-5.986C125.568,179.416,125.576,183.533,122.768,184.47z M126.758,147.268 c-1.49,0-2.708-1.22-2.708-2.709C124.05,138.42,132.88,147.268,126.758,147.268z M126.616,133.327c1.967,0,3.936,3.677,0,3.677 C122.682,137.006,124.653,133.327,126.616,133.327z M125.761,160.808c0-8.482,9.096,3.565,2.69,3.565 C126.864,164.373,125.761,162.91,125.761,160.808z M130.752,109.639c6.76,0,10.271,6.842,2.706,6.842 C127.21,116.481,129.041,109.639,130.752,109.639z M141.155,131.875c0,4.473-6.936,4.998-5.627,0 C136.728,127.291,141.155,127.433,141.155,131.875z M141.156,141.937c0,1.757-6.211,3.683-7.551,2.34 C130.164,140.858,141.156,138.945,141.156,141.937z M110.367,109.675c-9.727,6.147-7.776-11.968-0.416-4.604 C112.56,107.679,112.611,108.254,110.367,109.675z M96.684,114.77c-2.242,0-2.27-5.131,0-5.131 C98.926,109.639,98.953,114.77,96.684,114.77z M76.735,112.749c-1.384,5.285,2.177,4.675,5.685-0.973 c4.959-7.984,9.583-12.401,12.987-12.401c2.569,0,1.42,2.063-5.437,9.758c-24.654,27.657-13.918,57.787-5.992,49.86 c2.446-2.446,2.446-3.274,0-9.129c-8.574-20.518,4.71-35.582,7.076-26.551c0.989,3.785,3.086,4.447,4.882,1.541 c1.705-2.759,18.06-10.05,22.586-10.071c3.368-0.014,3.734,0.607,2.764,4.688c-0.616,2.586-1.733,5.858-2.484,7.269 c-1.17,2.196-1.531,2.136-2.518-0.428c-2.017-5.236-4.209-3.231-4.209,3.848c0,13.401,8.597,1.339,6.082,11.545 c-2.752,11.178-2.99,14.111-1.144,14.111c2.689,0,2.364,7.037-0.662,14.273c-4.356,10.43-3.375,16.105,4.076,23.556 c3.652,3.653,8.078,6.63,9.835,6.616c3.688-0.029-0.723-3.431-10.49-11.922l9.936,4.433c29.055,12.972,64.467-2.278,64.467-6.214 c0-2.381-5.518-2.058-12.096,0.708c-5.827,2.451-24.936,1.948-27.868-0.732c-0.816-0.746-0.238-3.128,1.283-5.301 c3.664-5.23,3.486-6.604-0.859-6.604c-3.219,0-9.118-5.338-20.224-18.301c-12.71-14.833,43.776-2.485,28.745-11.775 c-3.058-1.89,5.331-5.715,12.688-5.783c9.85-0.089,13.99,5.071,29.26,5.071c8.434,0,11.775-0.859,16.896-4.338 c3.512-2.386,6.392-4.504,6.409-4.704c0.036-0.479,5.082-13.6,5.253-14.049c-2.897,21.982-9.397,27.938-10.083,24.373 c-0.771-4.004-2.419-3.773-6.869,0.965c-12.017,12.791,10.213-1.06-1.642,9.394c-14.326,12.638-32.44,7.042-37.773,10.42 c-7.972,5.051,22.564,6.373,36.389-2.959l8.066-5.444c-22.027,37.306-6.334,2.918-21.57,18.821 c-5.337,5.569-4.981,8.263,0.691,5.229c1.962-1.05,3.568-1.486,3.568-0.97c0,2.55-12.353,11.781-22.237,16.62 c-10.172,4.979-12.792,5.494-30.788,6.043c-13.48,0.412-35.077,2.432-41.78-20.263c-3.293-11.15-9.428-12.067-3.652,4.108 c6.327,17.725-12.435-11.944-7.858-29.062c2.569-9.599,2.526-14.653-0.113-13.772c-5.164,1.721-4.62,20.32-4.752,27.348 l-4.276-2.802c-5.918-3.879-5.366-0.84,0.855,4.704c2.822,2.514,5.131,5.884,5.131,7.488c0,5.381-16.559-13.05-21.681-24.134 c-4.061-8.788-4.83-12.69-4.83-24.524c0-13.011,0.349-14.419,4.625-18.697C77.371,109.357,77.638,109.292,76.735,112.749z M144.576,177.201c2.827,0,5.562,5.986,0,5.986C138.989,183.187,141.76,177.201,144.576,177.201z M169.276,128.454 c3.125,0,5.843,3.421,1.057,3.421C165.472,131.875,166.217,128.454,169.276,128.454z M187.336,133.585c0,2.189-4.565,2.299-5.986,0 C179.957,131.331,187.336,131.307,187.336,133.585z M168.668,235.21c9.264-9.046,9.592-5.472,4.232-0.115 c-6.508,6.513-2.814,7.859-7.067,12.11c-9.731,9.734-27.683-9.879-22.959-21.278c5.371-12.97,51.301-32.096,41.897-24.664 c-5.429,4.29-24.481,14.47-28.526,18.957C146.965,230.511,154.106,249.435,168.668,235.21z M72.03,444.642 c1.541-2.496,7.55-1.625,7.55,1.093c0,1.411-1.411,2.566-3.137,2.566C72.716,448.302,70.766,446.684,72.03,444.642z M69.993,411.137c2.383-2.386,9.52,8.087,4.516,8.087C72.468,419.225,68.682,412.447,69.993,411.137z M75.488,425.911 c2.336-1.94,3.108-1.793,5.131,0.973c2.923,3.999,3.048,8.092,0.328,10.812C73.86,444.784,69.688,430.728,75.488,425.911z M82.634,417.513c-1.635-11.147,6.016-5.383,5.218,0.062C86.981,423.542,83.514,423.501,82.634,417.513z M89.25,440.532 c-0.556,1.452-1.834,2.639-2.836,2.639C82.222,443.171,92.928,430.947,89.25,440.532z M91.125,424.68 c3.936,0.761,3.934,5.432,0,6.192C86.939,431.677,86.936,423.876,91.125,424.68z M99.042,370.054 c-1.907,13.889,11.612,16.345,12.726,8.53c1.534-10.752,7.132,3.773,0.737,5.754c-10.068,3.115-7.986,6.859-14.111,0.284 C87.252,372.661,101.468,352.358,99.042,370.054z M90.697,332.864c1.881-0.595,0.727,0.474-2.566,2.374 c-10.683,6.164-21.827,3.469-18.714-4.527c2.114-5.432,5.083-4.266,4.043-1.556C72.805,330.865,73.35,338.339,90.697,332.864z M96.697,343.373c-17.114,8.001-18.098,8.29-19.648,5.783C73.02,342.633,139.047,323.578,96.697,343.373z M81.29,295.22 c-21.115-21.177-25.969-23.631-31.277-15.821c-8.446,12.423-7.107-32.679,23.797,4.437c4.43,5.321,12.712,14.484,18.408,20.364 C105.491,317.902,107.67,321.675,81.29,295.22z M72.476,273.839c-21.013-30.204-25.957-49.571-7.444-21.168 c12.035,18.462,23.896,33.382,40.97,51.532c7.3,7.758,12.18,14.108,10.844,14.108C113.088,318.31,81.129,286.278,72.476,273.839z M82.145,255.025c3.378,0,3.405,6.842,0,6.842C78.75,261.866,78.75,255.025,82.145,255.025z M101.172,290.884 c2.468,2.933,4.102,5.723,3.628,6.197c-1.71,1.704-19.335-22.564-7.261-24.664c3.334-0.58,3.337-0.532,0.174,1.858 C93.622,277.366,94.879,283.406,101.172,290.884z M89.842,254.043c0-3.142,5.337-2.682,6.414,0.554 C97.192,257.404,89.842,257.719,89.842,254.043z M99.792,240.888c-1.211,10.48-12.666,3.116-7.565-3.866 C95.563,232.459,100.474,234.97,99.792,240.888z M92.669,230.778c-7.432,0.852-4.728-5.562,1.185-6.243 C101.304,223.678,98.558,230.102,92.669,230.778z M106.946,239.73c0-9.31,7.974-1.606,6.033,1.534 C111.106,244.295,106.946,243.235,106.946,239.73z M103.941,228.941c3.717-11.308,56.972-22.389,24.334-11.528 C110.677,223.267,101.591,236.108,103.941,228.941z M55.454,184.761c1.36,2.068,2.268,1.991,6.098-0.518 c4.394-2.88,12.202-2.376,10.322,0.665c-1.58,2.561,12.421,12.265,6.223,16.095c-0.814,0.505-2.858-0.605-4.541-2.465 c-3.98-4.399-11.99-4.353-15.801,0.091c-3.565,4.16-5.425,14.576-6.539,19.62l-1.211-5.773 C46.18,194.274,51.655,178.974,55.454,184.761z M77.325,243.115c-1.254,10.584-5.337,18.05-3.364,7.634 c6.546-34.631-21.58-25.047-31.513-8.097c-6.766,11.547-8.759,25.675-8.934,19.215c-0.154-5.766,8.658-23.847,14.034-28.797 C56.893,224.473,80.288,218.088,77.325,243.115z M57.034,310.42c1.714,1.06,66.043,18.89,15.833,7.324 C51.197,312.755,55.324,309.365,57.034,310.42z M75.309,355.948c1.977,3.198-2.035,1.709-5.299-1.969 C64.223,347.463,74.252,354.236,75.309,355.948z M100.96,347.073c-15.265,13.425-22.1,17.705-27.498,25.86 c-6.874,10.389-7.016,26.773-7.379,15.862c-0.103-3.094,1.29-8.482,3.096-11.973C71.52,372.296,80.52,360.185,100.96,347.073z M86.609,378.257c-4.386-11.552-3.462-16.622,2.82,0.222c5.405,14.489-0.096,22.076-2.656,23.417 c-18.375,9.619-32.592-10.057-30.156-10.011c0.871,0.017,3.47,2.02,5.778,4.451C74.746,409.351,96.005,402.974,86.609,378.257z M66.751,422.646c0,4.688-3.809,6.63-5.314,2.708c-1.415-3.689,0.554-8.285,3.176-7.411 C65.788,418.334,66.751,420.452,66.751,422.646z M66.888,439.75c-0.965,0-6.123-5.147-6.123-6.108 C60.765,429.387,68.599,439.75,66.888,439.75z M79.393,465.208c8.845-8.828,13.028-16.331,31.841-57.101 c20.713-44.89,17.147-36.415,27.528-36.622c16.692-0.334-27.353,65.873-24.473,87.332c4.05,30.191,54.385,20.689,46.729,28.345 c-1.413,1.413-12.924,1.531-51.506,0.527c-15.052-0.392-37.566-0.062-50.03,0.732c-14.775,0.939-22.663,0.853-22.663-0.25 c0-1.719,7.28-5.661,10.454-5.661C51.701,482.511,74.2,470.391,79.393,465.208z M120.843,463.404 c-12.472-19.976,47.524-113.637,19.266-53.316c-4.339,9.258-9.85,21.067-12.25,26.241 C117.821,457.982,127.653,474.301,120.843,463.404z M274.567,407.146c-6.238-13.482-22.001-36.659-34.005-50.001 c-20.773-23.091-15.053-27.22-9.734-25.885c2.333,0.587,4.654-0.079,6.017-1.722c2.862-3.447,14.366-3.52,17.197-0.109 c5.148,6.204-16.789-0.026-10.603,17.718c3.257,9.342,38.053,55.537,35.967,66.33C279.062,415.255,277.184,412.799,274.567,407.146 z M267.411,326.862c0.881,0,13.011,63.279,13.211,64.141c5.126,22.058,5.951,27.326,3.698,23.633 C281.82,410.531,262.641,326.862,267.411,326.862z M269.109,318.685c47.687,0.207,75.927,0.588,62.757,0.847 C178.88,322.538,117.411,318.028,269.109,318.685z M292.626,334.08c1.466-2.094,2.189-4.574,1.609-5.513 c-2.395-3.872,33.596-1.129,34.737,10.026c1.158,11.299-13.538,26.349-25.897,44.662c-7.642,11.333,0.445-7.185,9.087-20.809 c7.765-12.24,8.819-19.961,3.455-25.324c-7.769-7.769-20.525-0.876-20.525,6.999c0,6.872,13.439,15.65,2.566,22.776 c-4.267,2.797-7.918,3.679,3.421-5.578l-5.559-5.766C289.226,349.028,288.085,340.565,292.626,334.08z M362.538,335.365 c1.481,2.448,7.805,12.358,7.805,14.99c0.003,1.161-4.803,4.538-10.682,7.502c-23.397,11.798-40.015,26.19-50.15,43.433 c-11.754,19.995-9.929,33.55-14.864,26.017C291.882,423.089,289.7,384.957,362.538,335.365z M241.693,92.283 c5.333,5.143,8.771,8.804,1.899,8.804c-2.271,0-4.233-1.979-5.886-5.932C233.904,86.054,234.667,85.503,241.693,92.283z M283.12,36.091c0,4.611-6.842,4.748-6.842,0C276.278,31.475,283.12,31.343,283.12,36.091z M222.295,35.433 c3.332,1.278,21.485-2.603,21.485-4.594c0-1.94,19.266-4.346,23.946,6.965c2.302,5.554,1.223,13.189,0.855,17.534l-1.989-5.347 c-2.607-7.002-9.903-7.562-12.9-0.987c-1.669,3.665-2.959,4.279-8.087,3.848c-11.342-0.951-0.972-6.498-10.437-6.498 c-2.678,0-7.141-1.962-10.073-4.428C219.586,37.287,218.088,33.816,222.295,35.433z M220.689,53.231 c13.083,10.704,21.806,14.45,29.332,12.596c6.896-1.7,12.573-5.716,12.573-8.896c0-4.594,7.252,1.226-2.836,11.314 c-3.433,3.438-1.286,8.894-4.647,8.894c-11.02,0-13.086,8.869-37.499-22.879c-2.632-3.424-8.79-8.521-13.683-11.326 C187.493,33.508,200.022,36.322,220.689,53.231z M165.444,29.434c37.911,7.941,68.073,45.519,68.073,83.958 c0,9.4-1.403,1.471-6.045,11.768c-2.894,6.417-7.598,11.92-5.614,6.566c9.453-25.499,7.782-38.341-2.4-18.449 c-11.458,22.383-25.056,20.465-24.664,15.673c0.542-6.679-36.121-1.515-34.022-6.967c1.863-4.868-1.408-7.158,7.321-15.319 c4.026-3.766,5.617-6.293,4.276-6.787c-7.365-2.714,3.912-9.862,18.64-11.816c12.561-1.668,16.834-6.245,16.906-18.115 c0.05-8.487,0.219-8.841,2.673-5.636c3.219,4.202,1.598,8.627-0.174,17.104l-1.072,5.131c4.642-5.258,2.918-3.306,7.552-8.552 c-1.945,10.883-2.485,18.327-12.414,24.194c-9.688,5.723-4.456,14.299,8.085-2.247c2.781-3.671,11.843-13.817,5.189-29.135 c-4.839-11.126-18.801-25.106-15.878-15.897c0.937,2.954-0.807,2.102-8.455-4.126c-28.593-23.292-60.9-25.042-93.096-10.336 c-9.862,4.504-12.194,5.027-12.194,2.738C88.132,41.474,121.528,20.244,165.444,29.434z M76.27,28.257 c4.728-5.696,11.935-0.012,8.776,6.922c-2.266,4.976-12.223,11.046-6.749,4.871c3.058-3.45,5.131-11.763-0.525-10.283 C74.884,30.524,74.614,30.252,76.27,28.257z M59.999,34.55c5.147,9.96,6.231-3.782,8.263,7.066 c1.497,7.974-0.903,14.715-9.031,25.379c-10.269,13.471-9.941,31.479,10.914-7.387c5.4-10.064,5.278-7.293,10.15-9.163 C82.096,49.754,83,50.361,83,52.26c0,2.374,1.22,2.685,7.269,1.847c22.049-3.05,18.982,20.207,10.006,11.231 C89.288,54.35,75.447,74.581,67.114,87.72c-13.759,21.702-26.486,13.634-27.996,2.188c-2.039-15.447,30.115-51.504,10.064-59.126 c-6.421-2.444-17.901,2.704-8.583,18.893c8.65,15.028-9.147,18.457-4.122,13.439c2.966-2.966,2.531-7.341-1.363-13.728 C21.755,27.472,50.831,16.821,59.999,34.55z M33.838,137.721c1.548-11.906,3.205-22.037,3.679-22.513 c0.475-0.474,1.964-0.441,3.31,0.075c2.104,0.807,2.118,2.324,0.101,10.902c-1.95,8.285-5.142,49.71,1.981,70.683 c5.041,14.843,4.762,23.147,5.029,29.932l-6.414,0.176c-9.017,0.248-7.013-2.742-2.993-2.742c6.601,0,1.914-19.201,0.027-25.22 C31.965,177.986,30.713,161.735,33.838,137.721z M35.109,282.67c0,1.926,1.892,7.268,4.204,11.872 c5.723,11.391,2.389,10.109-1.331,2.312C28.39,276.74,35.109,274.597,35.109,282.67z M37.045,388.99 c-5.191-1.356-4.51-3.375,1.546-4.586c9.082-1.815,19.391-29.281,27.557-24.911c3.115,1.666,2.908,2.268-3.561,10.394 c-8.294,10.416-15.543,24.791-17.274,34.255c-1.649,9.024,4.042,31.588,9.221,36.557c11.86,11.39,10.05,11.208,6.97,13.461 c-6.158,4.504,2.682,4.649,2.682,12.416c0,3.079-1.048,3.45-9.382,3.315c-15.372-0.248-8.28-2.856-18.192-24.61 c-5.978-13.121-1.122-38.168,2.882-51.388C40.445,390.759,39.941,389.748,37.045,388.99z M109.512,492.462 c28.222-0.301,52.765-1.245,54.538-2.1c2.417-1.165,3.033-0.975,2.454,0.761c-1.286,3.857-9.855,5.239-29.626,4.777 c-42.993-1.009-94.588,0.387-94.588,0.387C30.092,493.245,28.741,493.322,109.512,492.462z M133.03,514.745 c-1.647,0.864-5.687,2.1-8.98,2.749l-5.986,1.18c6.861-3.571,11.867-5.313,12.505-10.841c0.368-3.192,1.288-4.321,2.993-3.665 C137.009,505.49,136.637,512.854,133.03,514.745z M97.539,506.576c-21.984,4.473-39.347-5.282-21.909-5.225 C83.142,501.375,101.538,505.762,97.539,506.576z M50.502,518.188c0,10.5-10.263,9.491-10.263,7.781 c0-0.558,1.519-2.945,3.375-5.306c1.858-2.36,3.855-6.842,4.44-9.96c0.777-4.139,2.194-5.952,5.254-6.72 c5.381-1.351,7.456,0,7.456,4.854C60.765,522.588,50.502,503.109,50.502,518.188z M188.479,522.839 c-0.513-1.339-2.713-2.805-4.887-3.258c-4.516-0.944,7.736-1.649,8.559,2.697C192.828,525.854,189.813,526.315,188.479,522.839z M81.841,517.383c-8.781-5.02-11.398-5.2-9.963-0.681c1.736,5.472-0.997,7.933-3.599,3.24c-2.495-4.5-3.104-10.071-1.1-10.056 c3.058,0.022,15.818,4.013,26.084,8.157c9.611,3.879,13.665,4.495,29.932,4.541c62.577,0.171,70.601-55.727,38.527-53.452 c-7.534,0.534-7.728,0.424-7.247-4.155c0.41-3.927-0.166-4.704-3.496-4.704c-4.899,0-12.295-8.764-16.707-13.422 c16.288-11.595,23.046-11.179,21.625-14.886c-2.047-5.331,16.292-5.012,32.125,26.169c1.746,3.441,4.108,5.559,6.199,5.559 c6.311,0,3.773-5.735-9.087-20.525c-15.741-18.103-11.492-25.786-6.441-24.466c7.805,2.04-3.539-14.747,6.748-30.695 c4.707-7.295,8.739-10.418,8.739-6.77c0,1.71,16.287,30.531,19.793,27.62c2.93-2.432,3.098-1.986,5.935,15.849 c1.151,7.249,1.633,15.493,1.067,18.32c-1.161,5.807,1.197,8.302,4.923,5.212c6.358-5.28-1.796,6.457-7.124,19.86 c-2.59,6.515-6.937,15.496-9.66,19.961C185.08,527.431,118.425,538.305,81.841,517.383z M264.231,522.976 c-8.956,4.252-20.048,5.833-29.859,4.252l-6.842-1.102c4.753-1.763,14.539-5.46,19.656-6.949c10.302-3-9.855,8.992,8.386,1.69 c3.701-1.481,8.913-2.442,11.58-2.138C271.834,519.266,271.732,519.413,264.231,522.976z M277.988,525.889 c0-3.269,8.552-2.636,8.552-0.818C286.54,526.781,277.988,529.378,277.988,525.889z M278.289,515.565 c0.751-3.9,9.106-4.409,9.106-0.556C287.396,518.05,277.342,520.489,278.289,515.565z M295.948,519.829 c-2.648-2.708,10.841-0.732,18.618,2.726c16.013,7.122-6.106-7.475,15.303-0.243C357.109,531.506,305.456,529.551,295.948,519.829z M360.087,524.625c0,3.929-6.111,3.453-3.359-3.79c4.666-12.269-6.672-10.788-35.125-11.402 c-34.501-0.746-35.064-1.002-35.064-16.008c0-13.781-3.701-14.407-5.376-0.908c-4.423,35.707-62.162,6.399-74.03,28.479 c-1.011,1.881-2.073,3.783-2.359,4.226c-0.978,1.514-3.703-4.218-3.729-7.844c-0.041-5.354,7.237-11.178,6.474-15.337 c-0.67-3.655,9.619-9.267,16.991-9.267c13.136,0-3.956-10.384,3.034-13.071c5.612-2.153,15.115,0.98,21.305,7.025 c11.357,11.09,17.527,6.137,8.788-7.054c-2.918-4.406-5.306-9.522-5.306-11.367c0-4.634,3.701-16.583,5.136-16.583 c1.714,0,6.13,5.467,7.488,9.265c1.842,5.159,4.734,0.794,5.759-8.689c1.226-11.362,12.346-30.948,16.215-28.557 c3.315,2.049,11.583,23.356,11.583,29.85c0,7.519,3.575,9.129,7.238,3.262c3.116-4.991,4.105-4.303,6.287,4.363 c2.331,9.257,0.631,13.688-2.516,6.561c-4.018-9.098-2.254,3.364-0.725,6.224c3.587,6.696-14.775,10.44-8.395,18.132 c2.749,3.311,3.188,3.151,12.542-4.579c10.215-8.441,17.53-8.964,16.718-1.197c-0.482,4.61,1.823,6.375,3.913,2.993 c3.436-5.561,20.173,1.981,18.51,8.34c-1.692,6.467,11.826,5.025,12.792,14.896C365.663,520.629,360.087,520.415,360.087,524.625z M372.061,524.416c0-1.767,1.731-2.547,5.559-2.506l5.559,0.062C374.695,526.821,372.061,528.642,372.061,524.416z M351.507,477.84 c-8.605-27.637-2.648-72.043,21.767-70.042c4.969,0.404,4.377-3.132-0.785-3.045c-5.978,0.106-4.539-2.28,2.566-4.252 c9.212-2.559,11.063-2.297,17.532,2.475c15.573,11.492,13.049-3.71-5.61-6.96l-7.218-1.255c4.541-1.974,8.143-4.447,24.373-4.536 c28.242-0.154,4.883,10.868,10.61,14.412c0.997,0.617,2.978,3.371,4.401,6.122c2.283,4.418,2.292,5.701,0.075,11.008 c-2.034,4.864-6.397,11.677-12.618,19.694c-0.366,0.47-2.894-1.804-5.619-5.056c-3.867-4.611-5.408-5.456-7.018-3.848 c-3.753,3.754-6.346,2.152-8.426-5.207c-10.528-37.258-45.439,12.919-26.732-3.943c3.057-2.755,4.596-3.901,3.421-2.543 c-13.263,15.296,23.573-16.514,3.611,4.319c-35.366,36.914,9.11,130.611,117.92,88.863c1.676-0.643,2.903-0.296,2.903,0.823 C486.66,522.822,374.685,552.243,351.507,477.84z M433.209,518.282c-15.165,0.347-17.404-16.957-5.951-16.957 c2.909,0,2.957,0.245,0.513,2.687C415.268,516.519,450.231,517.892,433.209,518.282z M449.03,503.775 c0-2.333,0.835-2.212,5.761,0.831c14.934,9.231,35.289-8.528,35.289-1.492C490.08,507.517,449.03,523.826,449.03,503.775z M492.959,520.737c-1.714-1.714-3.139-8.114,5.559-18.558C498.699,516.233,493.934,521.712,492.959,520.737z M514.881,516.719 c-7.295-7.613-9.407-3.544-9.407-9.407c0-3.628,0.792-4.276,5.22-4.276c4.18,0,5.552,0.954,6.89,4.791 c1.686,4.835,10.423,11.444,12.45,9.418c0.604-0.602,1.096-0.279,1.096,0.717C531.13,520.287,523.505,525.719,514.881,516.719z M532.487,492.975c-1.351,4.057-11.973,4.876-38.13,2.944c-35.806-2.644-85.124,0.315-93.218,1.083 c-7.271,0.688-72.288-5.391,114.598-3.47c5.174,0.053,11.229-0.563,13.458-1.367C532.256,491.059,533.06,491.259,532.487,492.975z M526.285,475.755c-1.716,1.408-8.846-0.091-8.846-1.859c0-0.843,3.079-6.296,6.842-12.118 c13.598-21.038,2.535-23.484,0.631-11.605c-2.981,18.656-24.577,13.545-24.577,11.834c0-0.927-2.564-2.759-5.699-4.067 c-14.701-6.144-16.736-19.227-4.702-30.228c5.154-4.71,6.571-7.119,5.839-9.92c-2.33-8.903,16.873-0.818-0.727,13.328 c-11.085,8.91-7.839,20.604,5.72,20.604c15.915,0,32.654-27.242,20.253-62.278c-10.328-29.187-22.769-23.845-34.001-47.091 c20.51,10.605,36.295,31.61,43.597,49.683C545.344,428.508,529.379,473.215,526.285,475.755z M536.048,362.02 c-1.233,4.18-3.163,7.601-4.286,7.601c-1.122,0-8.785-5.311-17.027-11.802c-8.241-6.491-21.057-15.036-28.48-18.991 c-30.495-16.249,0.399-5.709,21.645,10.097c16.216,12.064,23.313,13.42,26.411,5.047 C536.886,347.013,538.405,354.043,536.048,362.02z M507.185,328.422c0-1.213,2.306-1.471,6.624-0.741 c5.071,0.857,24.88-0.4,19.459-14.754c-2.111-5.591,0.219-6.642,3.039-1.37C545.565,328.845,507.185,333.564,507.185,328.422z"/>
    <path d="M192.467,394.641c0-1.421-0.884-3.128-1.965-3.797c-3.347-2.07-0.269,14.09,6.231,32.695 c6.524,18.673,7.647,32.205,4.073,49.051c-3.576,16.858-9.156,25.28-26.298,39.702c-6.903,5.807-3.33,5.571,6.079-0.402 c27.418-17.409,24.568-47.211,24.577-55.893c0.021-21.271-0.253-23.027-6.337-40.504 C195.329,405.446,192.467,396.063,192.467,394.641z"/>
    <path d="M196.6,469.925c-0.826-2.153-1.627-2.266-4.285-0.605c-2.475,1.545-3.269,4.02-3.269,10.182 C189.046,500.882,197.28,471.697,196.6,469.925z"/>
    <path d="M182.205,474.018c0-0.907-1.733-2.559-3.848-3.669c-3.828-2.01-3.831-2.001-0.59,1.649 C181.385,476.076,182.205,476.449,182.205,474.018z"/>
    <path d="M216.923,459.42c3.45-7.233,0.669-8.095-3.033-0.941c-1.435,2.776-2.608,5.47-2.608,5.986 C211.282,467.421,214.465,464.572,216.923,459.42z"/>
    <path d="M164.74,448.882c-6.794-1.293-5.778,0.074,4.057,5.465C187.466,464.577,176.796,451.178,164.74,448.882z"/>
    <path d="M408.933,420.508c-1.327-3.058-2.831-6.907-3.34-8.552c-1.488-4.811-8.412-4.762-0.864,8.027 C409.222,427.598,412.171,427.967,408.933,420.508z"/>
    <path d="M412.133,409.371c-0.494,0.494-0.32,3.106,0.388,5.803C415.306,425.781,415.152,406.351,412.133,409.371z"/>
    <path d="M312.197,503.036c0,1.866,12.216,2.287,18.387,0.633C345.663,499.629,312.197,499.415,312.197,503.036z"/>
    <path d="M259.174,500.395c0,2.28,3.464,0.592,5.889-2.872C274.136,484.573,259.174,497.674,259.174,500.395z"/>
    <path d="M291.259,492.773c-4.278,0,3.349,9.606,5.01,7.945C297.29,499.695,292.924,492.773,291.259,492.773z"/>
    <path d="M258.857,461.986c-2.42,0-1.512,5.588,1.437,8.845C269.883,481.426,261.293,461.986,258.857,461.986z"/>
    <path d="M276.278,449.477c0,3.848,2.41,2.444,6.414-3.737C293.37,429.252,276.278,446.354,276.278,449.477z"/>
    <path d="M263.374,135.495c-3.848,3.896-69.708,140.665-71.856,149.224c-2.755,10.967,13.013,9.643,78.811,9.643 c75.746,0,76.076-0.034,76.076-7.709c0-6.219-60.91-140.648-66.087-147.498C274.562,131.548,268.559,130.25,263.374,135.495z M278.245,170.359c0,1.965-3.677,3.937-3.677,0C274.567,166.437,278.245,168.382,278.245,170.359z M271.147,208.843 c-1.288,1.991-1.664,1.488-1.685-2.251c-0.043-7.926-5.068-18.618-15.419-3.83c0-6.407-1.16-11.024,9.45-11.024 C269.233,191.739,276.1,201.177,271.147,208.843z M195.888,285.713c0-11.763,138.098-284.554,31.042-58.821 c-15.192,32.033-27.622,59.165-27.622,60.292C199.309,289.618,195.888,290.646,195.888,285.713z M233.7,246.473 c-3.799,0-6.211-4.921-3.66-7.469c0.972-0.972,1.767-3.152,1.767-4.846c0-1.693,0.679-3.079,1.51-3.079 C235.614,231.079,240.036,246.473,233.7,246.473z M225.944,270.981c-2.02-5.263,5.123-3.701,1.144-7.676 c-3.151-3.152-1.343-8.282-3.835-8.282c-0.941,0-1.71-0.855-1.71-1.9c0-2.143,9.618-0.811,16.372,2.268 c3.797,1.729,3.879,2.027,1.131,4.115c-5.425,4.119,0.539-0.13,6.387,5.723C253.7,273.494,228.121,276.653,225.944,270.981z M283.347,280.681c-1.555,0-3.787,1.539-4.962,3.421c-4.912,7.863-16.873-0.431-21.456-0.676 c-9.546-0.51-7.404-20.883,2.641-11.793c6.364,5.761,4.319-6.041,8.313,2.723c2.557,5.615,4.974,5.988,4.974,0.766 c0-6.024,11.964-3.686,13.675-1.974C289.002,275.617,286.86,280.681,283.347,280.681z M308.641,271.19 c5.588,3.452-11.157,7.497-15.946,0.659c-2.937-4.192-2.147-6.888,1.596-5.451c1.567,0.602,2.511-0.07,2.511-1.784 c0-4.071,3.421-1.488,3.421-5.314c0-2.008,2.326-2.566,10.69-2.562l10.69,0.005C312.323,264.749,306.014,269.565,308.641,271.19z M314.152,245.912c4.279,5.148-5.376,7.683-5.376,3.638c0-1.596-0.457-1.596-2.052,0c-3.595,3.595-4.669,2.222-2.742-3.506 c2.492-7.413,4.569-9.835,8.424-9.835C320.054,236.21,310.7,241.745,314.152,245.912z M299.82,196.221 c4.061,2.559,4.527,7.469,2.369,9.628c-1.226,1.226-1.48,0.648-0.821-1.871c1.209-4.623-2.853-6.4-8.28-3.624l-3.982,2.035 C295.187,196.08,296.433,194.089,299.82,196.221z M287.035,224.237c1.127,4.305,4.086,4.428,5.42,0.226 c3.597-11.337,13.69-7.663,16.754-6.893c-17.554,18.68-5.121,35.818-20.98,44.308c-15.315,8.198-42.064,3.32-45.518-15.089 c-2.171-11.566,8.535-26.961,4.563-34.388c-4.801-8.963,5.075-5.509,6.831,1.736c2.104,8.679,17.113-0.383,16.979,7.427 c-0.118,7.054-5.983,9.809-2.836,14.848c1.344,2.155,1.293,4.191-0.192,7.449c-4.139,9.082-0.453,16.232,5.725,11.106 c4.897-4.064-1.543-23.188,2.345-30.449C278.695,219.718,285.807,219.535,287.035,224.237z M281.531,210.326 c-3.388,6.329-5.208,3.951-2.612-3.411c3.628-10.283,3.21-19.589-1.074-23.872c-7.435-7.439,2.668-5.354,4.616,0.727 C284.291,189.487,283.704,206.264,281.531,210.326z"/>
    <path d="M269.089,258.446c-7.247,0-16.757-8.927-16.757-15.729c0-15.488-13.076,11.489,5.099,15.124 c10.36,2.071,1.88,7.714,13.288,4.659C276.406,260.975,275.39,258.446,269.089,258.446z"/>
    <path d="M293.028,244.068c-3.183-5.689-6.917-1.517-14.756,16.487C276.059,265.641,300.261,256.999,293.028,244.068z"/>
    <path d="M531.772,416.659l-1.303,5.521C527.556,434.518,538.316,444.945,531.772,416.659z"/>
    <path d="M38.102,424.384c-5.027-0.115,5.42,18.786,7.362,18.786C47.063,443.171,39.715,424.421,38.102,424.384z"/>
    <path d="M217.268,355.37l-7.697-2.318C180.647,344.345,173.892,359.882,217.268,355.37z"/>
    <path d="M136.023,337.705c-7.199,3.058-22.235,13.331-22.235,15.19c0,1.189,0.688,1.184,2.138-0.017 c17.207-14.249,62.979-12.895,56.353-19.521C170.138,331.214,143.886,334.364,136.023,337.705z"/>
    <path d="M158.259,330.569c0-2.398-17.301-7.522-12.828-0.287C146.702,332.337,158.259,332.599,158.259,330.569z"/>
    <path d="M357.986,349.098c1.71,0,7.811-5.131,2.897-5.131c-6.034,0-28.294,19.848-28.112,25.065 C332.807,370.051,353.705,349.098,357.986,349.098z"/>
    <path d="M449.886,334.559c11.405,6.5,11.951,7.317,13.54,3.176C465.298,332.854,463.352,333.453,449.886,334.559z"/>
    <path d="M440.478,316.954c0,2.14,9.354,1.58,11.631-0.696C459.459,308.908,440.478,315.244,440.478,316.954z"/>
    <path d="M450.671,151.382c9.626,13.822,14.005,15.281,6.276,2.092C446.01,134.81,420.882,108.608,450.671,151.382z"/>
    <path d="M426.755,116.5c-1.861,0.995-3.382,2.104-3.382,2.465c0,3.274-4.711,6.339,3.71,4.972 c10.699-1.738,22.961,5.937,16.63-1.695C439.773,117.492,430.667,114.406,426.755,116.5z"/>
    <path d="M164.673,185.428c5.364,1.403,8.073,1.11,11.118-1.201C187.931,175.008,151.096,181.882,164.673,185.428z"/>
    <path d="M146.286,157.384v4.264c0,8.432,11.973,8.87,11.973,6.573C158.259,166.576,148,158.75,146.286,157.384z"/>
    <path d="M194.178,147.857c-7.006-1.869-8.415-1.137-4.789,2.489C193.254,154.211,210.369,152.177,194.178,147.857z"/>
    <path d="M378.161,128.635c0.91,1.473,1.909,1.163,3.568-1.107C389.52,116.878,374.702,123.035,378.161,128.635z"/>
    <path d="M170.476,118.376c3.045,1.929,13.909,1.958,12.72,0.034C181.084,114.991,163.813,114.158,170.476,118.376z"/>
    <path d="M224.538,101.52c5.318,1.216,6.07-1.676,2.803-10.764c-2.802-7.788-3.327-8.376-4.322-4.829 C220.739,94.054,221.396,100.801,224.538,101.52z"/>
    <path d="M476.081,114.319c0.506-2.649,0.041-2.773-3.83-1.009C460.783,118.54,474.948,120.264,476.081,114.319z"/>
    <path d="M443.899,85.816c0-3.352-20.775-17.188-7.68-3.527C441.174,87.462,443.899,88.714,443.899,85.816z"/>
    <path d="M360.756,75.003c-0.515,1.645-2.03,5.035-3.368,7.533c-2.419,4.514-3.315,9.999-1.604,9.999 c1.117,0,9.436-16.536,9.436-18.758C365.22,70.843,361.758,71.793,360.756,75.003z"/>
    <path d="M364.25,55.041c5.253,4.989,1.255-7.225-5.313-4.382C353.192,53.147,360.702,51.673,364.25,55.041z"/>
    <path d="M139.554,101.655c4.502,3.154,11.58,1.81,8.147-1.545c-3.091-3.021-11.677-5.025-11.677-2.726 C136.023,98.371,137.612,100.295,139.554,101.655z"/>
    <path d="M41.95,89.581c0,4.62,6.934,8.668,9.361,4.734C52.504,92.393,41.95,85.97,41.95,89.581z"/>
  </g>
</svg>