<?xml version="1.0" encoding="utf-8"?>
<svg viewBox="267.614 -7.696 514.801 515.985" xmlns="http://www.w3.org/2000/svg">
  <g transform="matrix(1, 0, 0, 1, -1832.857937, -1411.010852)">
    <path d="M2100.021,1918.987c18.346,0.031,513.561,1.038,515.264,0.337c1.698-0.701,1.283-498.935,1.283-516.874h-516.547 C2100.021,1425.122,2100.021,1896.317,2100.021,1918.987z M2138.503,1903.559c-18.866-6.183-25.14-6.453-28.778-1.238l-2.685,3.848 l-0.089-3.848c-0.123-5.283,5.747-10.69,11.605-10.69c6.503,0,27.244,11.157,36.196,15.024 C2163.286,1910.342,2153.533,1908.485,2138.503,1903.559z M2163.606,1621.384c3.079,0,1.124,3.879-4.148,8.234 c-22.576,18.647-31.655,32.789-37.226,57.983c-4.17,18.861-4.165,27.921,0.024,39.829c15.575,44.281-28.988-27.772,13.574-81.132 C2141.625,1639.032,2161.302,1621.384,2163.606,1621.384z M2124.146,1596.687c0.488-0.487,2.757-1.095,5.042-1.35 c3.66-0.409,5.001,1.273,11.225,14.073c6.433,13.228,6.833,14.809,4.454,17.532c-1.44,1.647-3.272,2.993-4.074,2.993 C2138.974,1629.936,2122.934,1597.9,2124.146,1596.687z M2179.441,1617.043c-6.664,10.168,9.296,28.432,20.995,31.576 c9.686,2.603,14.696,7.69-3.777,2.742c-18.293-4.902-30.338-28.176-21.028-40.635c3.093-4.139,10.451-4.719,11.248-0.888 C2187.839,1614.446,2183.666,1610.594,2179.441,1617.043z M2211.118,1629.825c4.391,6.164,7.398,19.153,6.515,24.266 c-2.198,12.736-1.148-23.429-24.634-29.712C2172.091,1618.789,2201.09,1615.738,2211.118,1629.825z M2211.09,1662.116 c7.069,0.882,9.616,1.939,10.045,4.172c1.24,6.445-31.532-0.115-36.449-2.039c-8.21-3.209-31.815-19.256-31.172-21.189 c1.827-5.479,5.992-4.81,17.003,2.731C2183.65,1654.781,2197.73,1660.446,2211.09,1662.116z M2352.824,1655.298 c-8.827,9.565-13.41,12.758-13.307,9.274c0.073-2.545,10.324-12.401,5.326-12.401c-0.813,0-3.612,3.079-6.219,6.842 c-4.692,6.768-4.858,6.842-15.626,6.842c-6.363,0-10.885-0.735-10.885-1.77c0-6.39,18.137-19.858,34.636-25.716 c3.527-1.252,6.414-2.892,6.414-3.645c0-2.058-0.328-1.948-19.001,6.33c-20.361,9.028-20.624,9.074-28.649,4.182 c-12.645-7.712,8.468-7.692-7.047-11.869c-14.727-3.966-18.04-28.461,3.388-38.76c18.933-9.099,9.998,7.524,17.101,13.949 c8.954,8.107-5.171,9.341-8.077,8.61c-4.052-1.018-4.269-1.594-3.286-8.761c1.201-8.759-1.279-11.06-8.417-7.808 c-3.41,1.555-4.167,3.149-4.167,8.778c0,17.53,16.004,19.589,61.575,7.924c14.588-3.732,54.735-16.781,84.448-13.82 c15.637,1.56,77.633,13.44,85.146,32.346c6.741,16.937,6.989,1.989-54.102-14.65 C2428.751,1609.37,2383.188,1622.408,2352.824,1655.298z M2389.265,1655.495c-7.24,3.874-2.52-8.053,1.859-3.674 C2392.311,1653.006,2391.716,1654.183,2389.265,1655.495z M2354.873,1661.524c0-4.11,5.612-6.665,14.646-6.665 C2401.594,1654.859,2354.873,1665.841,2354.873,1661.524z M2286.944,1575.165c17.994-0.178,40.244-27.972,46.313-57.848 c1.403-6.908,2.916-12.926,3.361-13.37c1.71-1.71,8.567,17.094-2.352,46.284c-11.545,30.854-51.205,47.208-52.915,47.208 C2279.326,1597.438,2276.936,1575.264,2286.944,1575.165z M2282.292,1556.265c3.002-5.718,3.103-5.761,4.088-1.75 c3.713,15.122,22.489-1.941,25.266,0.836c0.39,0.388-2.755,3.091-6.989,6.004c-8.325,5.728-17.046,6.912-22.348,3.034 C2279.326,1562.208,2279.326,1561.913,2282.292,1556.265z M2344.267,1517.19c1.231-33.251,4.579,40.841,4.579,40.841 c0.752,1.22,2.294,0.992,4.7-0.693c3.21-2.249,4.076-2.155,8.395,0.92c3.908,2.783,5.494,3.065,8.427,1.495 c4.743-2.538,5.614-1.389,3.111,4.105c-6.619,14.523-26.494-1.817-21.616,21.059c4.775,22.396-17.104,26.045-19.659,23.489 c-0.695-0.694,1.042-2.667,3.86-4.38c5.776-3.513,6.171-6.342,2.713-19.417c-2.697-10.203-2.441-11.125,4.141-14.881 C2352.202,1564.43,2342.288,1570.685,2344.267,1517.19z M2443.032,1555.81c10.719,18.295-6.182-1.546-8.48-13.798 c-3.029-16.138,13.453-22.634,6.825-9.814C2437.512,1539.67,2438.048,1547.306,2443.032,1555.81z M2441.409,1562.681 c3.341,4.078,5.826,8.691,5.523,10.252c-2.389,12.329-30.192-20.147-26.489-68.188c1.177-15.243,1.411-17.234,5.549-13.097 c2.058,2.058,2.701,7.711,3.005,26.409C2429.431,1544.577,2430.896,1549.852,2441.409,1562.681z M2364.028,1591.306 c-4.524-4.153-7.76-7.552-7.192-7.552c1.71,0,27.315,8.622,23.118,19.56c-0.623,1.621-3.093,2.675-6.272,2.675 c-4.786,0-5.078-0.311-3.337-3.566C2372.022,1599.29,2371.258,1597.943,2364.028,1591.306z M2360.023,1578.634 c7.122,3.813,3.038-3.151,9.885-0.98c2.461,0.782,4.247,0.026,6.063-2.567c2.66-3.797,6.269-3.216,6.269,1.012 c0,3.183-6.353,6.472-10.437,5.405c-3.914-1.025-4.372,1.454-0.541,2.923c9.175,3.522,24.847-1.728,27.189-9.106 c1.324-4.172,4.006-4.622,5.431-0.91c1.563,4.079-7.711,14.532-21.129,14.422 C2363.821,1588.681,2349.802,1573.167,2360.023,1578.634z M2383.969,1557.265c-6.426-7.741,10.244-11.171,10.244-3.626 C2394.213,1559.167,2387.912,1562.017,2383.969,1557.265z M2395.4,1570.678c-1.076,2.802-6.429,3.843-8.598,1.673 c-2.011-2.01-1.219-7.015,1.259-7.965C2391.62,1563.019,2396.676,1567.353,2395.4,1570.678z M2405.928,1545.383 c-0.633,3.31-6.508,5.379-8.792,3.096c-2.119-2.119-1.307-8.793,1.187-9.749 C2401.859,1537.371,2406.655,1541.569,2405.928,1545.383z M2408.729,1563.266c-1.627,2.631-9.385,1.957-10.485-0.913 c-1.158-3.016,2.196-7.675,5.525-7.675C2406.557,1554.677,2410.171,1560.934,2408.729,1563.266z M2402.054,1588.272 c1.567-4.081,5.514-3.438,6.151,1.002c0.992,6.917,30.923,8.005,33.11,10.233c1.221,1.242-31.268,0.847-34.55-0.421 C2402.608,1597.482,2400.434,1592.493,2402.054,1588.272z M2418.874,1577.585c-13.068,5.017-11.829-10.935,0.027-10.935 C2422.562,1566.65,2422.538,1576.179,2418.874,1577.585z M2414.533,1550.778c2.266-2.266,5.336,0.036,5.336,4.001 C2419.869,1562.518,2410.373,1554.938,2414.533,1550.778z M2414.133,1509.079c-1.356-16.044-4.938-22.899-13.066-25.005 c-5.006-1.297-6.337-0.989-8.788,2.039c-3.734,4.61-4.907,4.504-4.907-0.443c0-10.24,14.722-13.158,23.765-4.711 c5.295,4.948,5.313,5.017,5.313,23.091C2416.448,1524.425,2415.862,1529.55,2414.133,1509.079z M2356.721,1464.376 c-12.806-0.867-18.042-1.87-18.603-3.566c-1.676-5.049,52.801,4.435,55.154,6.749 C2397.057,1471.282,2385.206,1466.3,2356.721,1464.376z M2404.476,1507.661c0,12.194-12.253-0.737-17.775,1.382 c-4.469,1.715-5.432,6.486-1.837,9.113c2.507,1.834,2.737,2.767,1.086,4.418c-5.865,5.865-13.119-10.887-5.133-16.482 c4.906-3.436,8.985-3.455,14.154-0.07c2.698,1.769,4.43,2.054,5.171,0.855c5.371-8.687-29.874-10.285-29.874,10.341 c0,11.939,19.456,9.185,24.716,13.8c2.049,1.794-0.677,0.941-13.538,0.149c-12.98-0.799-14.598-2.102-14.598-11.631 c0-5.949,1.016-8.373,5.313-12.669C2389.566,1489.463,2404.476,1498.764,2404.476,1507.661z M2289.392,1651.084 c-8.499,3.246-9.777,3.397-9.777,1.148C2279.615,1645.911,2310.822,1642.901,2289.392,1651.084z M2300.846,1656.388 c-6.417,4.206-17.811,5.631-17.811,2.23C2283.036,1653.247,2315.484,1646.797,2300.846,1656.388z M2496.908,1523.182 c6.395,13.21,4.917,51.803,0.166,70.408c-3.831,15-6.067,18.738-8.078,13.497c-0.491-1.279,1.227-10.324,3.816-20.098 C2506.003,1537.197,2485.603,1499.824,2496.908,1523.182z M2459.291,1453.704c-7.043,5.013-20.067,3.732-4.569-11.123 c18.298-17.53,40.594-2.502,30.998-2.502c-3.299,0-3.705,3.421,0.646,3.421c11.049,0,10.836,27.302-0.351,29.44 c-7.249,1.385-8.829-1.081-3.871-6.04C2494.117,1454.929,2475.723,1442.004,2459.291,1453.704z M2529.063,1440.854 c-5.201,11.412-4.88-4.196-8.494-4.196c-4.095,0,8.258,22.615-2.696,8.713c-8.694-11.032,8.371-26.38,5.523-17.412 C2520.781,1436.212,2536.171,1425.252,2529.063,1440.854z M2594.39,1477.315c-2.289-9.922-2.094-11.504,0.797-6.448 c2.93,5.124,3.286,22.141,0.66,31.597c-3.137,11.297-15.676,27.062-27.813,34.971c-18.445,12.016-27.129,7.288-45.54,6.623 c-14.431-0.522-14.542-0.559-15.079-5.215c-0.624-5.403-0.971-5.347,12.513-2.09c19.887,4.803,33.882,2.206,52.621-9.758 C2586.762,1517.921,2597.909,1492.565,2594.39,1477.315z M2586.223,1558.757c2.555,3.412,10.17,4.37,15.577,1.957 c2.841-1.266,2.976-1.018,1.223,2.256c-3.633,6.789-21.315,3.5-25.752-4.791c-11.101-20.742,37.241-50.369,21.425-88.222 c-3.58-8.567,0.799-9.992,4.312,8.439c2.316,12.154-0.968,27.906-9.965,47.798 C2584.438,1545.222,2582.613,1553.937,2586.223,1558.757z M2528.787,1560.493c-17.156,3.219-21.974,27.888-8.559,43.829 c10.405,12.368-11.605,1.132-12.067-25.858c-0.296-17.058,13.895-28.405,26.752-26.681c15.281,2.051,20.753,19.424,7.565,24.025 c-3.104,1.084-3.097-0.207,0.053-8.602C2543.875,1563.628,2535.049,1559.32,2528.787,1560.493z M2522.495,1621.524 c0,2.116-2.956,1.998-4.297-0.173c-0.592-0.958-5.063-3.746-9.936-6.192c-10.925-5.487-10.246-4.798-8.899-9.041 c1.5-4.728,2.357-4.57,14.544,2.689C2527.607,1616.971,2522.495,1616.897,2522.495,1621.524z M2519.074,1492.247 c0-3.125,3.886-4.428,2.478,2.138l-1.006,4.704c6.614-7.546,7.079-8.547,7.079-4.808c0,9.098-12.544,7.943-14.255,6.233 c-1.988-1.987-1.23-11.764,1.165-15.04c2.976-4.069,5.426-0.646,2.906,4.061 C2513.392,1497.105,2519.074,1495.567,2519.074,1492.247z M2558.277,1530.771c-6.524,1.871-19.042,1.943-25.494,0.147 c-5.737-1.598-10.098-9.363-7.54-13.427c2.41-3.828,7.514-4.924,7.514-1.613c0,19.456,55.575,15.466,55.341-36.115 c-0.032-7.179,0.542-11.54,1.353-10.263C2593.186,1475.394,2591.975,1521.107,2558.277,1530.771z M2540.719,1500.236 c-3.879-4.286-3.905-8.444-0.032-5.23c5.531,4.591,19.784,1.616,20.852,7.197c1.271,6.688-11.164,1.774-3.939,9.76 c5.533,6.113-3.125,11.896-5.379,6.021c-1.464-3.821-17.094-11.557-18.691-16.589c-1.519-4.786,0.268-5.897,2.571-1.598 c1.05,1.964,3.156,3.568,4.68,3.568C2543.31,1503.365,2543.305,1503.096,2540.719,1500.236z M2565.086,1472.333 c-6.281,3.573-6.253,5.203,0.11,6.476c4.958,0.992,5.015,1.12,2.574,5.839c-7.644,14.793-24.37,10.534-28.571,4.326 c-2.434-3.595-1.237-4.423,6.387-4.423c4.233,0,7.697-0.77,7.697-1.71c0-0.941-2.757-1.71-6.128-1.71 c-7.167,0-7.396-3.958-0.279-4.805c4.591-0.546,13.126-6.693,2.559-4.994c-9.197,1.479-8.306-2.271,1.71-7.203 c11.434-5.627,4.526-5.713,0.635-3.635c-4.197,2.247-10.469,2.383-10.469,0.226c0-2.338,6.842-3.022,6.842-5.36 c0-4.611-6.474,2.985-11.667,0.995c-2.456-0.943-2.263-1.534,1.391-4.291c5.514-4.16,3.197-6.5-2.646-2.67 c-5.248,3.436-6.118,3.036-4.752-2.188c2.302-8.802,22.35-11.658,22.071-3.144c-0.082,2.516,0.707,3.481,2.444,2.99 c4.741-1.341,14.456-0.089,16.695,2.15C2574.638,1452.148,2572.266,1468.248,2565.086,1472.333z M2512.909,1454.421 c-5.523-1.387-5.113,2.097-0.677,3.258c1.881,0.491,3.421,2.121,3.421,3.619c0,5.759-13.153,1.161-14.737-5.152 c-1.396-5.559,0.428-7.516,7.001-7.516C2522.813,1448.631,2518.964,1455.94,2512.909,1454.421z M2508.726,1437.618 c-2.641,3.18-5.215,3.18-3.994,0c2.932-7.637-10.276-11.251-13.88-12.503c4.259-0.836,12.796-2.997,16.1-0.927 C2510.368,1426.324,2511.428,1434.361,2508.726,1437.618z M2515.66,1467.525c9.91,1.911,10.256,1.916,10.256,0.121 c0-0.831-1.601-1.929-3.556-2.441c-7.3-1.911,0.108-16.044,6.11-9.296c3.259,3.666,1.196,0.582-1.981,3.219 c-4.622,3.833,6.289,5.015,6.243,15.505c-0.089,18.399-18.933,4.986-8.954,2.615c5.94-1.411-24.558-15.018-33.391,7.476 c-2.963,7.54-5.521,8.704-5.521,2.513C2484.865,1482.893,2496.742,1463.873,2515.66,1467.525z M2591.767,1647.04 c3.421,0,4.276,0.855,4.276,4.276C2596.043,1662.954,2580.125,1647.04,2591.767,1647.04z M2587.552,1677.048 c-2.545-3.067-0.927-6.062,3.277-6.062C2598.843,1670.986,2594.579,1685.516,2587.552,1677.048z M2585.505,1665.694 c-6.342,2.21-13.367,7.955-17.684,11.248l3.727-5.971C2582.831,1652.902,2599.388,1660.854,2585.505,1665.694z M2576.515,1706.424 c-7.733-15.578-7.853-16.069-5.561-22.687c1.288-3.72,3.291-6.765,4.45-6.765c3.017,0,16.377,33.413,19.834,49.602 c13.56,63.501-19.483,134.682-13.582,111.177c0.812-3.233,0.402-4.276-1.678-4.276c-3.337,0-3.33,0.748-0.185-17.104 c14.344-81.438-35.835-115.749-50.102-90.678c-7.522,13.227-10.917-3.416-9.342-10.993c4.021-19.345,24.237-9.291,21.755-17.203 c-4.3-13.719-2.041-15.076,13.227-7.938c3.891,1.82,17.082,6.435,20.881,27.865c1.319,7.437,5.516,11.928,7.155,7.657 C2583.97,1723.511,2581.051,1715.565,2576.515,1706.424z M2598.856,1659.536c3.344-1.283,6.467,1.95,5.164,5.349 C2601.027,1672.683,2593.427,1661.62,2598.856,1659.536z M2602.884,1820.648c0,1.411-0.624,2.566-1.389,2.566 c-3.087,0-13.307,13.535-6.265-0.085C2597.965,1817.839,2602.884,1816.245,2602.884,1820.648z M2551.175,1758.217 c-8.003,12.818-8.824-17.104,6.17-17.104c30.548,0,18.83,102.656,18.975,52.91 C2576.458,1747.392,2554.667,1752.621,2551.175,1758.217z M2450.031,1824.471c-1.247-12.171-14.833-50.546-7.789-38.459 c3.094,5.313,5.068,3.262,4.117-4.276c-0.722-5.737-0.558-6.459,0.78-3.421c1.367,3.103,7.483,9.654,3.655-6.85 c-2.1-9.046,1.573-8.321,1.573-6.506c0,0.995,1.155,1.811,2.566,1.811c3.392,0,3.238-1.172-0.833-6.346 c-7.815-9.936,2.959-5.446,22.078-3.06c19.058,2.381,17.711,9.599,20.032,18.242c1.149,4.262-2.793,3.368-2.793,8.172 c0,3.614-5.162,20.836-6.836,22.808c-3.043,3.587-13.666-14.84-13.7,1.661c-0.014,8.605-3.66,14.739-12.934,21.755 C2451.073,1836.721,2451.394,1837.788,2450.031,1824.471z M2456.888,1863.386c-1.023,2.665-4.784,3.465-6.802,1.447 c-2.023-2.023-1.211-7.018,1.302-7.982C2454.514,1855.651,2458.185,1860.01,2456.888,1863.386z M2445.945,1853.573 c-2.918,7.94-8.91-6.414-3.128-6.414C2445.556,1847.159,2447.123,1850.371,2445.945,1853.573z M2399.772,1781.681 c21.04-21.165,8.191-18.012-3.541-4.682c-39.278,44.623-84.245,29.816-77.563,21.755c2.408-2.899,0.927-4.618-3.979-4.618 c-12.512,0-16.311-24.036-5.612-35.503c12.761-13.68,37.501-14.176,37.108-0.746c-0.077,2.586-0.537,3.482-1.052,2.041 c-4.084-11.431-31.311-8.901-31.311,8.954c0,16.454,24.401,21.358,45.311,9.105c27.324-16.013,29.845-48.846,55.926-48.846 c27.7,0,36.517,43.354-4.598,72.267c-29.313,20.612-71.061,15.799-73.018,35.982l-0.53,5.494l-2.993-4.228 C2318.717,1817.179,2372.557,1809.048,2399.772,1781.681z M2316.442,1821.589c-1.175-1.9,2.969-4.283,10.209-5.867l5.131-1.122 C2327.401,1818.532,2319.543,1826.609,2316.442,1821.589z M2318.021,1738.442c4.286-2.809,4.355-2.783,4.355,1.662 c0,3.272-1.208,4.974-4.387,6.183c-5.73,2.177-6.154,2.138-10.627-0.995c-9.583-6.712,1.38-40.333-1.416-21.791 C2303.805,1737.675,2309.132,1744.266,2318.021,1738.442z M2357.439,1729.14c-3.888,0-3.085-3.103,2.029-7.842 c5.412-5.015,9.726-4.772,10.49,0.59c0.342,2.389,1.738,3.831,3.708,3.831c1.74,0,4.471,0.501,6.069,1.115 c2.531,0.972,2.384,1.425-1.143,3.52c-3.821,2.268-3.645,2.348,3.116,1.445c11.267-1.504,10.327,2.054-1.136,4.31 c-15.712,3.091-12.089,6.508,1.382,2.294c2.721-0.852,2.627,3.358-3.695,4.105c-5.395,0.64-6.198,3.736-0.971,3.736 c3.546,0,3.539,0.065-0.428,4.247c-4.794,5.054-5.063,5.066-16.001,0.759c-12.481-4.914-15.62-7.63-12.779-11.053 c1.247-1.502,4.438-3.855,7.095-5.229C2360.381,1732.279,2361.599,1729.14,2357.439,1729.14z M2327.678,1730.179 c-7.259-7.729-2.097-19.5-8.159-18.459c-9.361,1.611-9.761,1.389-11.311-6.299c-0.83-4.108-0.867-8.061-0.084-8.781 c2.034-1.876,24.307,2.112,27.507,0.913c1.545-0.58,2.138,1.758,2.138,8.439c0,10.478,2.112,17.232,7.031,22.485l3.383,3.612 C2332.06,1734.754,2332.503,1735.315,2327.678,1730.179z M2420.699,1802.061c1.313,0.505,2.776-0.682,3.448-2.798 c1.49-4.69,3.804-3.927,0.123,3.181c-3.316,6.414-3.333,7.086-0.185,7.086c1.377,0,3.361-1.599,4.406-3.554 c2.766-5.162,6.024-0.655,7.515-3.811c0.532-1.124,0.693,2.006,0.359,6.954c-0.605,9.016-5.605,17.882-7.945,14.096 c-1.849-2.992-12.453,4.079-14.321,2.212c-0.59-0.59-1.073-4.435-1.073-8.545 C2413.028,1808.639,2417.14,1800.694,2420.699,1802.061z M2429.656,1861.508c-1.469-1.469,1.806-7.507,4.074-7.507 C2436.941,1854.001,2433.861,1865.712,2429.656,1861.508z M2440.395,1866.68c0,6.648-20.337,12.187-18.591,10.49 C2425.924,1873.159,2440.395,1864.996,2440.395,1866.68z M2477.651,1751.152c-9.799-0.393-28.985-2.906-30.011-3.932 c-0.544-0.544,0.814-2.906,3.017-5.251c5.075-5.403,3.636-7.139-2.146-2.589c-11.297,8.884-4.957-1.934,3.175-7.459 c8.48-5.761,3.859-7.724-3.64-2.006c-6.346,4.84-6.671,2.085-0.351-2.969c10.512-8.407,17.26-13.198,18.591-13.198 c3.063,0,2.463-9.89-12.657,3.421c-10.232,9.005-12.036,8.86-10.579-0.855c1.504-10.028-1.616-10.209-4.127-0.24 c-1.791,7.114-6.098,12.91-8.102,10.904c-2.044-2.044,7.683-13.23,2.69-13.23c-0.965,0-2.548,2.092-3.52,4.647 c-4.678,12.303-10.12,10.331-10.12-3.665c0-16.593,11.453-32.551,28.499-39.704c3.719-1.562,15.461-3.411,27.09-4.267 c16.345-1.202,22.158-2.352,28.55-5.639c10.396-5.347,11.74-3.801,12.902,14.836l0.884,14.152 c-27.964,36.632,5.078,0.05-10.473,33.789C2501.4,1740.742,2493.272,1751.776,2477.651,1751.152z M2508.06,1791.028 c-15.03,1.755,0.939-14.078,9.871-10.685c14.376,5.468,7.846,36.784-3.152,53.988c-6.837,10.694-16.182,19.412-7.146,6.734 C2532.85,1805.673,2521.308,1789.479,2508.06,1791.028z M2505.496,1853.045c2.881-2.761,8.615-10.025,12.743-16.143 c18.091-26.811,22.484-64.727-0.792-94.176c-14.499-18.341,2.24-13.596,14.181,10.81c24.984,51.065-31.369,119.105-31.369,106.98 C2500.259,1859.167,2502.616,1855.804,2505.496,1853.045z M2543.24,1800.297c2.979-8.371,6.823-16.625,8.54-18.344 c11.251-11.249,27.801,1.947,11.426,4.144c-19.526,2.619-22.552,38.804-38.931,59.352 C2519.782,1851.09,2535.769,1821.298,2543.24,1800.297z M2553.45,1678.955c-10.403-16.834-41.652-43.149-62.654-30.17 c-6.183,3.821-8.213,7.44-6.754,12.038c0.756,2.383,0.222,2.844-2.47,2.14c-12.445-3.253-3.169-39.23,38.375-18.269 c9.301,4.692,29.051,23.296,36.016,33.926C2559.683,1684.298,2558.441,1687.033,2553.45,1678.955z M2475.802,1628.225 c2.944,0,2.846,0.619-1.44,9.048c-1.945,3.823-25.29,37.888-62.868,47.516c-12.271,3.147-8.954,5.309-5.735,4.353 c10.517-3.125,12.072-3.068,13.198,0.479c1.177,3.706-0.46,8.106-3.363,9.038c-2.157,0.694-1.449,1.391,0.057,5.253 c1.539,3.963-1.936,3.823-3.241,0.428c-1.118-2.923-6.344-5.097-1.319,3.421c5.005,8.479,0.435,5.995-0.623,4.285 c-3.075-4.972-14.641-6.885-1.728,1.909c12.255,8.35,3.908,9.023-9.012-1.548c-10.327-8.451-10.668-5.879-0.484,3.648 c8.251,7.716,7.764,10.815-0.814,5.193c-6.116-4.008-4.676,0.984-1.651,2.143c3.262,1.254,3.821,4.834-0.744,2.389 c-11.882-6.359,2.858,5.071-3.606,5.071c-1.657,0-14.949-9.517-23.173-16.593c-3.809-3.277-11.775-15.671-10.729-16.697 c1.693-1.661,38.493-4.681,41.584-7.938c1.303-1.372,0.386-1.609-3.332-0.864c-24.521,4.917-44.202,5.46-87.683,2.42 c-41.994-2.937-35.336-11.407-36.01,66.243c-0.717,82.196-3.734,84.626-3.734-1.505c0-76.704-5.174-70.746,29.498-68.747 c67.194,3.878,109.677-1.967,135.176-18.596c13.815-9.01,34.848-28.615,37.325-34.79 C2472.576,1630.728,2474.579,1628.225,2475.802,1628.225z M2290.604,1701.437c-10.153,14.499-14.314,0.337-8.131,0.337 c1.572,0,4.271-1.278,5.997-2.839C2292.605,1695.192,2293.909,1696.719,2290.604,1701.437z M2221.461,1827.486 c-57.66-11.66-97.35-67.045-88.087-70.358c0.941-0.337,3.903,3.585,6.585,8.716c4.635,8.872,10.71,15.375,28.855,30.88 c25.771,22.025,55.787,31.242,95.835,29.431C2313.204,1823.959,2265.097,1836.31,2221.461,1827.486z M2212.188,1893.467 c3.876,3.641,5.851,4.083,17.51,3.915c21.173-0.306,43.542-9.38,22.978-0.24c-15.544,6.907-67.625,8.398-46.84-12.387 c8.856-8.856,16.553,0.032,8.992,0.032c-1.765,0-4.066,1.03-5.109,2.287C2208.265,1888.827,2208.844,1890.327,2212.188,1893.467z M2173.567,1874.54c-3.505-2.242,164.686,0.098,165.769,1.062c4.709,4.178-33.454,2.849-40.908,2.215 C2276.336,1875.932,2177.313,1876.941,2173.567,1874.54z M2190.673,1827.093c0,3.397-11.638,16.909-16.588,19.258 c-17.256,8.188-31.256,0.299-34.51-1.1c-6.303-2.711-7.148-3.618-5.365-5.764c1.857-2.241,2.66-2.164,6.625,0.628 C2167.536,1858.912,2190.673,1822.697,2190.673,1827.093z M2149.192,1826.634c3.287,0,12.404-0.881,12.404,7.184 c0,4.093-1.594,3.611-7.485-2.273L2149.192,1826.634z M2186.253,1848.87c-3.021,0-2.494-3.682,0.677-4.74 C2189.536,1843.265,2189.932,1848.87,2186.253,1848.87z M2148.795,1858.448c7.616,0,8.988,1.598,4.587,5.345 c-10.252,8.728,0.116,21.998,13.917,17.812c6.11-1.851,11.4-1.953,11.4-0.217c0,4.16-23.965,18.637-38.197,1.721 C2131.39,1872.279,2136.041,1858.448,2148.795,1858.448z M2169.447,1868.362c-4.356-1.671-3.187-6.925,1.984-8.91 c10.117-3.881,34.366-8.018,46.351-21.668c6.572-7.483,3.371-3.707,33.519-1.563c15.811,1.125,17.294,1.548,21.023,5.978 c15.108,17.956,83.448,17.532,70.17,28.53C2340.354,1872.501,2170.937,1868.935,2169.447,1868.362z M2141.071,1784.611 c-5.757-6.683,14.477,11.882,15.108,13.341C2158.563,1803.463,2143.058,1786.918,2141.071,1784.611z M2121.702,1814.234 c0.547,2.28,0.13,3.849-1.025,3.849c-5.54,0-15.229-53.139,13.013-76.281c10.016-8.208,11.757-6.033,2.029,2.533 c-8.834,7.774-16.258,20.479-17.874,30.586C2116.853,1781.127,2118.994,1802.964,2121.702,1814.234z M2112.461,1864.938 c0.435-0.436,1.283,1.666,1.885,4.671C2117.417,1884.98,2110.336,1867.062,2112.461,1864.938z M2160.607,1672.231 c-1.917,5.424-5.853,7.177-5.853,2.607c0-3.71-10.434-14.985-21.331,3.605c-7.276,12.416-9.074,34.438-9.322,23.171 c-0.152-6.907,4.871-22.819,9.375-29.691C2141.966,1658.97,2165.201,1659.234,2160.607,1672.231z M2157.325,1652.18 c1.681,2.721-0.162,1.981-4.519-1.815C2145.388,1643.901,2156.268,1650.469,2157.325,1652.18z M2164.589,1724.993 c18.172-6.069,40.24-29.689,46.069-41.965c5.764-12.139,7.849-9.399,0.717,5.549 C2191.624,1729.958,2134.59,1735.005,2164.589,1724.993z M2207.681,1744.534c-4.185,0-8.456-26.137-8.456-27.847 C2199.225,1702.726,2209.984,1744.534,2207.681,1744.534z M2167.145,1764.083c0.699-0.705,2.754,0.06,4.567,1.7 c3.985,3.605,12.975,8.91,19.389,11.439c2.586,1.021,4.704,2.55,4.704,3.399 C2195.804,1786.214,2163.972,1767.281,2167.145,1764.083z M2173.997,1794.415c-6.572-8.123,2.422-18.715,2.422-7.085 c0,3.353,1.716,6.958,4.882,10.263C2192.768,1809.566,2176.28,1797.237,2173.997,1794.415z M2163.286,1771.4 c1.871,0.489,2.981,1.572,2.465,2.406c-2.918,4.721-10.996-0.824-10.996-7.548c0-6.898,16.702-19.128,24.503-17.942 c8.713,1.326-19.372,3.612-19.372,17.169C2159.885,1769.063,2160.865,1770.767,2163.286,1771.4z M2193.533,1736.99 c1.233,3.21-1.338,13.29-2.142,16.952l-1.24-5.904c-0.684-3.246-2.901-7.67-4.928-9.828 C2176.384,1728.805,2192.101,1733.261,2193.533,1736.99z M2183.606,1694.28c-21.326-18.255-41.683,5.879-30.54,41.426 c9.679,30.883-6.811,5.436-7.439-18.85c-1.043-40.429,37.236-39.591,44.102-23.27 C2193.045,1701.478,2192.478,1701.875,2183.606,1694.28z M2128.005,1726.147c1.751,15.342-1.143,12.962-2.949-7.269 C2123.977,1706.787,2126.51,1713.028,2128.005,1726.147z M2127.731,1821.402c2.591-3.503,3.811-7.445,3.693-11.937 c-0.361-13.656,6.91-0.705-0.597,11.61c-1.864,3.058-4.194,5.559-5.177,5.559 C2124.668,1826.634,2125.605,1824.281,2127.731,1821.402z M2204.338,1779.17c0.01-2.116,0.802-3.848,1.762-3.848 c3.002,0-3.407,25.425-5.336,26.618C2196.16,1804.784,2204.271,1787.375,2204.338,1779.17z M2220.813,1776.1 c-2.875,4.389-6.194,5.805-6.194,2.643c0-0.941,0.754-1.71,1.678-1.71c0.922,0,2.14-1.84,2.704-4.091 c3.406-13.572-16.449-19.124-17.657-22.848c-1.083-3.337,1.678-2.559,10.275,2.892c6.089,3.862,8.412,6.628,9.99,11.896 C2223.364,1770.738,2223.246,1772.385,2220.813,1776.1z M2112.486,1742.235c-6.226-4.18-6.864-5.884-2.79-7.449 C2114.961,1732.768,2129.924,1753.938,2112.486,1742.235z M2137.204,1893.592c-22.391-15.5-25.058-37.431-14.52-54.993 c11.167-18.615,27.225-24.551,44.728-16.538c9.657,4.421,11.803,7.247,6.926,9.12c-1.516,0.582-4.377-0.602-6.674-2.759 c-11.241-10.56-36.885-3.162-44.474,12.828c-23.816,50.196,74.913,92.108,152.699,48.909c32.373-17.98-9.847,12.698-34.032,18.281 C2229.931,1911.194,2167.09,1914.278,2137.204,1893.592z M2310.403,1899.919c0,4.801-0.953,9.187-2.224,10.242 c-5.667,4.702-22.068,3.455-25.497-1.94c-1.893-2.98-1.649-9.749,0.354-9.749c0.941,0,1.71,0.77,1.71,1.71 c0,7.353,23.946,16.713,23.946-3.554c0-17.971,13.235-10.815,14.58-6.575C2328.405,1906.222,2310.403,1875.834,2310.403,1899.919z M2348.032,1901.604c0,14.356-11.766,10.56-12.826,8.845c-0.582-0.939,0.144-3.419,1.61-5.513 c3.646-5.207,3.383-7.057-1.892-13.328c-3.725-4.427-4.115-5.694-2.138-6.946c1.329-0.842,3.995-1.541,5.925-1.558 c1.928-0.014,4.293-0.814,5.256-1.777c2.444-2.443,6.79,2.838,8.344,10.133C2354.863,1903.468,2348.032,1888.835,2348.032,1901.604 z M2350.827,1873.368c2.09-8.328-7.334-16.124-22.449-18.572c-14.785-2.393-19.293-21.847-24.284-10.665 c-6.192,13.875-39.191-69.106-11.651-136.904c9.122-22.454,12.731-2.569,9.693,9.811c-2.762,11.249-7.125,47.048-7.125,58.459 c0,17.727,8.554,39.458,22.075,56.088c13.796,16.966,29.52,22.112,36.601,25.947c8.446,4.575,11.484,5.266,23.823,5.427 c16.553,0.215,24.114-2.614,29.961-11.212c4.724-6.943,4.724-7.061,0.104-11.364c-7.088-6.604-23.144-3.496-21.235,4.11 c2.011,8.012-12.914,13.652-25.302,9.565c-5.786-1.911-6.163-2.477-6.163-9.279c0-5.815,1.011-8.212,5.131-12.159 c4.676-4.481,5.131-4.61,5.131-1.451c0,6.823-16.018,6.447-4.045,15.864c7.584,5.966,21.29,3.91,16.047-2.406 c-10.078-12.142,38.44-25.749,40.715-2.691c0.446,4.533,1.156,5.398,3.848,4.695c9.945-2.605-7.49,24.102-19.986,27.24 c-15.178,3.811-31.703-8.511-19.28,9.206l-10.788-0.11C2357.675,1882.827,2349.409,1879.016,2350.827,1873.368z M2377.011,1910.541 c-8.928,5.651-0.556-6.402-10.3-13.608c-13.281-9.823,5.838-3.168,10.844,7.825 C2379.086,1908.117,2378.975,1909.299,2377.011,1910.541z M2498.923,1907.778c-4.697-3.289-4.888-5.885-0.435-5.885 c5.041,0,7.976-6.5,4.504-9.974c-2.502-2.5-3.703-2.415-14.279,1.037c-60.299,19.67-92.501,8.855-127.626-5.602 c29.38-1.117,27.642-0.248,24.514-6.099c-2.14-3.995-2.484-3.972,20.123-1.401c20.744,2.359,34.479,0.496,50.509-6.849 c14.299-6.551,26.824-18.827,27.124-26.58c0.484-12.522-2.668-15.82-11.566-12.101c-5.402,2.256-5.67,2.215-4.141-0.641 c2.858-5.34,6.503-7.257,14-7.36c11.477-0.159,16.558,9.091,11.829,21.529c-1.302,3.421-1.054,4.671,1.172,5.916 c4.721,2.639-3.032,10.495-5.964,10.495c-1.618,0-9.673,4.658-17.9,10.348c-8.227,5.692-19.008,11.573-23.958,13.068 c-21.89,6.611,11.283,5.814,37.181-16.632c4.158-3.602,17.959-4.705,23.426-5.36c-1.695,8.323-2.718,9.229,3.511,13.126 c9.474,5.928,10.55,16.634,2.555,25.427C2508.407,1909.841,2503.552,1911.02,2498.923,1907.778z M2531.366,1911.011 c-1.746,1.579-5.973,2.855-9.458,2.855h-6.305c10.44-15.777,9.471-15.767,15.171-9.696 C2534.404,1908.033,2534.423,1908.245,2531.366,1911.011z M2549.837,1901.067c-5.87,7.073-25.927-6.525-20.747-15.779 c1.502-2.682,1.883-2.53,3.715,1.488c2.048,4.497,5.176,6.686,14.248,9.979C2551.122,1898.231,2551.589,1898.954,2549.837,1901.067 z M2604.105,1879.832c-3.371,5.01-5.318,6.053-14.111,7.563c-9.211,1.58-10.252,2.188-10.726,6.248 c-0.616,5.261,4.823,9.944,11.595,9.985c6.946,0.041,0.378,3.334-7.259,3.37c-11.506,0.046-14.655-14.123,1.389-22.21 c14.766-7.444,18.11-10.288,16.849-14.337c-0.623-1.993-1.989-4.189-3.038-4.88c-10.753-7.085-26.14,20.958-37.484,27.266 c-8.648,4.808-20.492,0.443-24.44-9.005c-2.981-7.131-1.75-8.805,18.42-46.864c-1.454-1.763-10.571-12.45-10.571-14.145 c0-1.82,18.815-4.209,18.815,11.73c0,6.113,2.653,8.927,5.622,5.957c3.267-3.267,4.64-2.116,4.64,3.893 c0,9.554-3.24,2.025-8.278,9.477c-2.727,4.031-2.696,4.125,1.023,3.152c6.484-1.695,4.283,1.469-5.573,8.01 c-9.44,6.265-11.248,9.356-7.269,12.423c4.553,3.51,10.644-0.385,17.966-11.489c6.965-10.56,10.481-13.596,18.666-16.109 c3.115-0.958,3.561-0.582,2.793,2.352c-1.904,7.285,7.297-1.081,12.271,8.537 C2609.03,1867.766,2608.671,1873.047,2604.105,1879.832z M2577.281,1631.234c6.98,12.495,20.472-1.052,20.472,1.757 c0,4.191-10.307,13.718-20.876,6.594c-9.084-6.122-18.917-21.763,5.482-31.148c11.446-4.399,17.104-10.319,17.104-17.894 c0-18.194-26.498-14.978-35.727,4.338c-13.102,27.42-0.329,51.802,6.979,67.724c-7.878,19.412-8.475,22.088-11.831,14.718 c-3.286-7.197-31.258-39.99-31.258-54.458c0-4.623,4.591-21.62,6.407-23.715c0.407-0.47,2.562,1.423,4.788,4.209 c5.607,7.016,6.228,4.514,6.778-5.679c0.25-4.658,1.853-10.832,3.558-13.719c3.062-5.183,13.952-13.938,20.137-16.189 c2.713-0.987,3.024-0.525,2.105,3.137c-1.024,4.081,1.149,6.005,3.14,2.781c1.409-2.278,31.766-10.606,31.766,16.451 C2606.305,1622.872,2567.78,1614.222,2577.281,1631.234z M2593.787,1459.173c-2.571,1.367-1.734-0.233,2.684-5.14 c18.226-20.238-9.667-34.479,2.86-34.479C2608.178,1419.554,2609.861,1450.633,2593.787,1459.173z M2596.898,1411.002 c1.517,2.458-1.596,6.373-3.421,3.421C2591.958,1411.967,2595.073,1408.052,2596.898,1411.002z M2588.674,1435.364 c-4.366-0.995-3.175-8.112,1.358-8.112C2595.459,1427.251,2596.417,1437.127,2588.674,1435.364z M2588.893,1418.246 c-0.669,4.685-5.176,5.86-8.254,2.152C2575.49,1414.199,2590.229,1408.878,2588.893,1418.246z M2567.461,1418.167 c-3.275,0.809-13.695-0.98-15.353-2.637C2551.088,1414.512,2576.813,1415.849,2567.461,1418.167z M2460.783,1416.824 c-2.526-3.045-1.326-4.565,2.458-3.113c4.923,1.887,1.047,13.825,4.948,12.113c9.799-4.297,38.423-19.37,76.449-9.009 c18.385,5.011,43.826,23.9,44.941,33.367c0.818,6.948-3.14,5.79-9.425-2.759c-15.632-21.259-46.397-29.58-63.286-29.58 c-11.321,0-32.643,6.135-30.933,8.901c0.698,1.127,0.386,1.408-0.768,0.693c-4.018-2.484-25.025,7.784-21.57,2.196 c0.794-1.285-0.039-1.509-2.588-0.701c-3.706,1.177-3.72,1.117-0.963-4.214C2462.257,1420.445,2462.411,1418.786,2460.783,1416.824 z M2446.405,1421.34c2.153,6.792,11.561-3.616,8.538,10.141c-2.663,12.129-26.763,29.39-17.114,6.296 c3.434-8.22,3.233-12.424-0.794-16.449C2429.525,1413.812,2444.506,1415.357,2446.405,1421.34z M2384.205,1416.301 c7.628-2.66,10.762-2.35,14.156,1.401c2.412,2.665,2.596,3.97,0.989,6.975c-3.404,6.359-0.997,8.81,8.082,8.227 c19.885-1.278-3.734-13.796,25.266-18.721c-3.813,3.269-9.407,7.273-9.407,12.324c0,2.343-1.197,5.969-2.663,8.061 c-2.138,3.053-4.242,3.775-10.69,3.665c-22.112-0.373-22.947-10.343-19.145-12.693c0.941-0.582,1.71-2.247,1.71-3.701 c0-2.054-1.529-2.499-6.842-1.993C2377.466,1420.628,2376.755,1418.897,2384.205,1416.301z M2437.477,1455.08 c14.576,7.56,33.134,25.655,41.135,40.106c16.533,29.859,18.881,65,6.859,102.68c-2.935,9.2-4.315,9.607-15.999,4.704 c-9.052-3.795-14.939-3.349-19.283-3.421c4.5-48.603,13.591-94.716-40.816-127.053c-15.125-8.99-29.238-12.847-56.93-15.563 c-19.721-1.933-24.189-2.885-26.024-5.545c-6.501-9.411-15.587-11.54,29.657-11.161 C2399.49,1440.189,2414.015,1442.912,2437.477,1455.08z M2316.74,1426.321c17.002,3.748,22.735,3.055,26.053-3.144 c2.054-3.836,0.306-4.567-6.725-10.095c19.379-4.865,20.771,13.731,11.641,18.618c-3.953,2.116-17.147,3.286-23.623,2.094 c-4.49-0.826-55.146-16.116-56.196-16.961C2262.533,1412.523,2315.007,1425.939,2316.74,1426.321z M2186.397,1432.133 c19.562-15.474,63.682-18.363,96.988-6.349c18.24,6.58,22.784,10.081,45.15,34.802c11.193,12.373,22.752,23.98,25.685,25.796 c15.972,9.883,20.946-5.253,23.563-5.253c2.463,0,0.729,8.482-2.6,12.714c-7.011,8.915-21.772,0.289-20.662,6.641 c1.592,9.132-20.522-5.709-21.622-11.739c-5.094-27.868-21.845-19.779-11.648-12.353c9.802,7.141,12.182,31.971,4.62,48.217 c-11.431,24.553-7.288-2.911-14.438,10.911c-8.376,16.213-31.819,16.865-31.819-11.564c0-9.125,2.292-12.291,14.398-19.884 c18.529-11.624,4.353-23.906-2.054-17.499c-5.571,5.571-3.118-7.155,7.213-7.155c6.235,0,8.497,1.962,10.121,8.778 c5.586,23.438-41.56,24.074-22.848,42.786c15.111,15.105,57.301-25.528,5.408-79.516c-17.128-17.814-53.405-26.399-80.655-19.085 c-5.174,1.389-13.641,2.509-18.815,2.49C2183.501,1434.842,2183.168,1434.688,2186.397,1432.133z M2273.557,1649.529 c3.263,14.675,2.429,18.63-1.798,8.515c-4.625-11.068-2.07-183.655-1.437-186.167c1.29-5.141,9.465-9.7,18.103-10.093 c10.1-0.462,10.346,3.277,0.291,4.409c-18.281,2.063-15.486,10.912-15.654,63.939c-0.094,29.963-0.681,66.12-1.305,80.349 C2270.827,1631.701,2271.15,1638.717,2273.557,1649.529z M2244.143,1443.581l32.303,0.157c8.403,7.593,5.289,4.777,13.7,12.375 c-31.521,11.157-26.128-13.119-25.07,201.472c3.826,3.417,9.838,9.513,17.465,11.497c17.578,4.567,113.575,11.706,149.41-38.189 c6.322-8.802,8.148-9.199,26.631-5.793c6.358,1.172,10.889,2.877,10.889,4.1c0,1.71-27.336,41.086-81.245,53.117 c-33.984,7.587-116.678-4.302-121.787,5.773c-3.783,7.461-1.06,97.834-3.333,121.867l-1.09,11.545 c-16.34-0.641-31.431-3.501-33.505-4.293c-1.993-0.759-2.167-24.218-1.132-150.958c1.344-164.339,0.807-179.486-6.847-193.447 c-13.518-24.652-45.253-19.697-45.253-29.252C2175.279,1436.121,2182.391,1443.278,2244.143,1443.581z M2201.791,1464.085 c-3.763-1.733-10.117-4.498-14.121-6.146c-12.7-5.225-12.341-8.193,0.411-3.393 C2210.832,1463.11,2219.612,1472.288,2201.791,1464.085z M2157.694,1415.42c13.577-11.427,30.49,0.783,16.81,18.719 c-2.492,3.267-5.646,5.94-7.009,5.94c-3.197,0-3.14-0.486,0.942-8.106c4.09-7.63,4.305-11.266,0.84-14.142 c-2.124-1.763-3.763-1.322-9.269,2.492c-7.19,4.984-14.28,5.328-15.154,0.734C2143.89,1415.993,2149.055,1422.691,2157.694,1415.42 z M2134.169,1500.789c7.182,1.214,9.874-1.38,3.523-3.397c-1.856-0.588-5.001-3.354-6.987-6.142 c-3.282-4.61-3.481-6.279-2.183-18.286c2.212-20.446,1.794-38.76-0.958-42.076c-3.347-4.033-1.869-4.676,5.904-2.571 c8.716,2.362,14.012,7.365,16.466,15.556c2.087,6.967,5.309,7.813,6.219,1.632c1.628-11.055,14.463,6.267,13.5,9.951 c-0.918,3.511,2.627,19.988,3.576,24.818c0.089-4.321-0.14-16.249,2.266-16.249c1.385,0,1.592,4.786,0.73,16.926 c-1.378,19.463,0.464,23.147,5.903,11.797c3.857-8.053,6.193-11.306,10.579-14.739c2.554-2,3.308-1.454,6.414,4.635 c3.912,7.668,4.514,17.361,1.597,25.726c-3.084,8.848,0.561,10.668,7.635,3.811c4.485-4.346,6.103-5.066,7.491-3.332 c3.573,4.461,3.912,9.65,1.35,20.693c-5.352,23.087,3.18,4.406,3.329,49.688l0.079,23.696c-27.064,0.759-28.59,1.859-20.997-6.59 c5.039-5.61,0.552-6.814-6.932-1.861c-3.493,2.311-10.685,5.463-15.986,7.002c-10.832,3.149-11.852,3.181-20.228,0.626 c-7.856-2.396-7.729-2.2-4.526-7.09c1.531-2.331,2.21-4.563,1.514-4.96c-2.726-1.553-28.937-1.05-34.106,0.657 c-3.014,0.994-5.956,3.31-6.539,5.147c-1.801,5.673-4.235,1.799-4.235-6.741c0-13.818,11.981-25.887,25.699-25.887 c7.825,0,8.619-1.835,2.523-5.829c-5.494-3.6-5.391-5.479,0.458-8.504c5.858-3.029,13.013-1.839,20.893,3.475 c12.182,8.217,24.078,2.107-1.5-6.486c-21.481-7.215-27.374-11.918-31-24.743 C2119.696,1500.108,2125.367,1499.303,2134.169,1500.789z M2120.366,1525.611c0.57,0.007,2.365,2.352,3.994,5.21 c6.486,11.397-2.908,42.355-6.075,22.832C2117.173,1546.801,2118.747,1525.594,2120.366,1525.611z M2120.802,1465.736 c2.985,4.04,3.021,5.124,0.612,19.67c-3.084,18.635-6.599,30.791-4.697,16.249c4.902-37.521-5.15-31.193-9.744-34.104 C2101.531,1464.109,2113.43,1455.764,2120.802,1465.736z M2108.696,1627.601c12.021-15.284,42.389,12.141,20.563,5.602 c-16.278-4.876-19.526,9.934-18.243,13.278c0.479,1.249-0.178,2.27-1.459,2.27 C2104.126,1648.75,2103.532,1634.166,2108.696,1627.601z"/>
    <path d="M2422.794,1893.341c0.578,2.213,2.333,3.421,4.97,3.421C2438.451,1896.761,2420.483,1884.506,2422.794,1893.341z"/>
    <path d="M2491.543,1872.816c-2.766,0-11.809,5.631-11.809,7.353c0,1.873,1.24,0.646,8.125-2.302 C2493.291,1875.54,2495.278,1872.816,2491.543,1872.816z"/>
    <path d="M2546.44,1883.933c-3.32-3.005-3.421-2.988-3.421,0.59c0,2.545,1.057,3.686,3.421,3.686 C2551.002,1888.209,2550.739,1887.826,2546.44,1883.933z"/>
    <path d="M2547.875,1872.816c-2.289,0-1.659,8.177,0.703,9.13c2.873,1.16,4.704,1.298,4.704,0.357 C2553.282,1880.121,2549.119,1872.816,2547.875,1872.816z"/>
    <path d="M2358.294,1876.236c0,2.205,12.57,2.348,11.118,0C2368.006,1873.963,2358.294,1874.015,2358.294,1876.236z"/>
    <path d="M2335.187,1802.661c1.038,1.68,16.577,0.113,18.746-1.892C2356.466,1798.428,2332.638,1798.541,2335.187,1802.661z"/>
    <path d="M2348.266,1793.686c-1.9-1.9-7.076-0.532-7.076,1.87C2341.19,1797.384,2350.822,1796.247,2348.266,1793.686z"/>
    <path d="M2430.099,1768.48c2.624,0,7.538-11.195,6.315-14.383c-1.693-4.413-4.355-3.113-4.208,2.054 C2432.42,1763.646,2427.188,1768.48,2430.099,1768.48z"/>
    <path d="M2427.566,1737.692c-1.703-1.881-4.709-3.404-6.679-3.383C2412.393,1734.4,2435.905,1746.912,2427.566,1737.692z"/>
    <path d="M2592.622,1763.349c4.875,0,1.716-9.24-1.833-5.694C2588.031,1760.415,2590.911,1763.349,2592.622,1763.349z"/>
    <path d="M2589.774,1749.19c3.149-1.048,3.385-6.267,0.335-7.437C2582.746,1738.926,2586.937,1750.137,2589.774,1749.19z"/>
    <path d="M2590.157,1734.107c1.808-2.925-3.895-7.844-6.303-5.436C2579.508,1733.023,2587.032,1739.165,2590.157,1734.107z"/>
    <path d="M2486.784,1793.281c4.859-20.031,5.417-24.709,3.262-27.307c-3.183-3.835-5.285-3.207-3.693,1.103 c2.071,5.59-3.359,21.845-1.818,27.598C2485.448,1798.075,2485.652,1797.949,2486.784,1793.281z"/>
    <path d="M2477.608,1790.715c2.217,0,7.803-14.836,6.426-17.063c-4.375-7.081-4.982,8.973-7.045,14.349 C2476.416,1789.494,2476.695,1790.715,2477.608,1790.715z"/>
    <path d="M2373.654,1712.85c2.377,2.865,5.166,3.462,5.166,1.107C2378.819,1709.565,2368.17,1706.248,2373.654,1712.85z"/>
    <path d="M2505.39,1728.889c0-1.695-25.439,14.299-25.566,16.073c-0.147,2.063,1.396,1.551,9.867-3.277 C2498.438,1736.7,2505.39,1731.032,2505.39,1728.889z"/>
    <path d="M2484.865,1731.706c-5.74,3.074-6.754,4.141-3.987,4.199C2490.582,1736.109,2505.481,1720.665,2484.865,1731.706z"/>
    <path d="M2487.971,1682.03c12.323-2.516,17.52-4.623,19.949-8.092c3.607-5.15,0.029-6.091-4.042-1.062 c-6.05,7.471-35.667,2.665-27.907,10.425c9.72,9.724-27.596-0.501-40.773,7.699c-3.06,1.902-25.056,24.887-5.663,17.518 c9.074-3.45-3.344-3.007,2.307-6.719c3.9-2.557,7.87-0.958,9.407-3.447c1.62-2.619,9.081-0.571,10.461-4.178 c1.62-4.218,4.131,1.536,16.071-1.148c4.026-0.905,8.942-1.423,10.919-1.153C2485.9,1692.859,2479.204,1683.819,2487.971,1682.03z"/>
    <path d="M2500.254,1702.412c0.019,5.372,14.746-16.032,8.981-16.032C2507.848,1686.38,2500.237,1699.949,2500.254,1702.412z"/>
    <path d="M2489.655,1699.721c2.913-2.913,2.542-4.793-0.941-4.763C2476.647,1695.067,2483.191,1706.18,2489.655,1699.721z"/>
    <path d="M2536.063,1620.458c-5.957-3.681-1.517,12.898,0.304,12.898C2538.531,1633.357,2538.26,1621.815,2536.063,1620.458z"/>
    <path d="M2340.335,1635.03l-6.842,0.859C2304.199,1639.567,2308.165,1651.102,2340.335,1635.03z"/>
    <path d="M2170.148,1573.492c0,0.941,2.501,1.743,5.559,1.782c3.057,0.039,11.332,1.522,18.387,3.294 C2243.97,1591.101,2170.148,1562.985,2170.148,1573.492z"/>
    <path d="M2162.735,1570.071c-7.386,0-1.702,7.389,0.764,5.867C2165.858,1574.481,2165.284,1570.071,2162.735,1570.071z"/>
    <path d="M2147.913,1571.782c0,2.191,4.567,2.299,5.986,0C2155.288,1569.536,2147.913,1569.502,2147.913,1571.782z"/>
    <path d="M2195.483,1567.099c-0.859-4.459-6.52-4.957-6.52-0.573c0,2.448,1.098,3.546,3.546,3.546 C2194.956,1570.071,2195.878,1569.151,2195.483,1567.099z"/>
    <path d="M2204.004,1567.268c16.276,8.588,1.774-5.718-2.436-5.738c-2.042-0.01-27.185-25.615-35.618-44.303 c-1.74-3.86-4.203-7.018-5.47-7.018C2152.485,1510.207,2184.95,1557.217,2204.004,1567.268z"/>
    <path d="M2185.74,1558.098c-1.928,0-2.846,4.184-4.726,8.552C2178.75,1571.92,2192.135,1558.098,2185.74,1558.098z"/>
    <path d="M2177.845,1552.967c-3.867,0-1.355,6.657-4.618,9.92c-1.598,1.596-1.483,2.052,0.513,2.052 C2181.527,1564.94,2181.876,1552.967,2177.845,1552.967z"/>
    <path d="M2203.635,1555.769c10.319,11.036,12.599,9.063,2.745-2.374c-4.661-5.408-10.131-13.133-12.156-17.164 C2186.409,1520.674,2184.808,1535.635,2203.635,1555.769z"/>
    <path d="M2137.742,1531.402c9.729,8.188,11.087,4.828,1.69-4.182c-4.958-4.753-9.373-8.282-9.813-7.842 C2128.212,1520.784,2132.279,1526.806,2137.742,1531.402z"/>
    <path d="M2147.913,1527.631c0-2.35-10.151-11.263-11.403-10.013c-0.646,0.648,1.028,3.477,3.724,6.289 C2145.072,1528.96,2147.913,1530.337,2147.913,1527.631z"/>
    <path d="M2180.411,1529.021c1.71,0,5.052-3.421,0-3.421C2175.358,1525.6,2178.7,1529.021,2180.411,1529.021z"/>
    <path d="M2190.352,1520.577c0.994-2.98-3.494-1.486-4.49,1.497C2184.866,1525.06,2189.363,1523.55,2190.352,1520.577z"/>
    <path d="M2177.744,1522.179c3.125,0,5.841-3.421,1.057-3.421C2173.938,1518.759,2174.686,1522.179,2177.744,1522.179z"/>
    <path d="M2172.129,1513.831c3.144,1.993,6.147,1.866,7.497-0.316c1.64-2.656,0.532-3.122-4.931-2.071 C2171.193,1512.115,2170.475,1512.784,2172.129,1513.831z"/>
    <path d="M2192.062,1512.025c0.994-2.98-3.494-1.486-4.49,1.497C2186.577,1516.508,2191.073,1514.997,2192.062,1512.025z"/>
    <path d="M2192.384,1504.078c0-3.021-3.683-2.495-4.74,0.677C2186.782,1507.336,2192.384,1507.785,2192.384,1504.078z"/>
    <path d="M2156.786,1502.973c3.171-1.057,3.696-4.74,0.676-4.74C2153.747,1498.234,2154.207,1503.833,2156.786,1502.973z"/>
    <path d="M2151.333,1490.638c0,2.903,4.408,3.31,6.104,0.563C2159.248,1488.274,2151.333,1483.75,2151.333,1490.638z"/>
    <path d="M2149.888,1481.896c-0.85,4.387,3.872,2.237,4.603-1.533C2155.341,1475.978,2150.618,1478.128,2149.888,1481.896z"/>
    <path d="M2167.34,1482.7c6.171,7.654-0.669-27.227-4.303-27.227c-1.845,0-1.815,0.501,0.383,6.284 C2166.151,1468.946,2164.499,1479.173,2167.34,1482.7z"/>
    <path d="M2153.651,1470.79c-2.023-2.023-6.476,0.92-5.001,3.306C2151.674,1478.993,2156.047,1473.188,2153.651,1470.79z"/>
    <path d="M2147.913,1465.594c0-4.168-3.997-3.58-4.829,0.712C2142.355,1470.054,2147.913,1470.453,2147.913,1465.594z"/>
    <path d="M2312.785,1461.319c-1.214,3.164-0.672,3.272,5.203,1.038c5.605-2.131,5.672-5.174,0.111-5.174 C2312.838,1457.183,2314.249,1457.505,2312.785,1461.319z"/>
    <path d="M2308.692,1453.763c-2.128,3.975-0.511,4.36,5.954,1.415c3.188-1.454,3.802-2.391,2.219-3.395 C2313.271,1449.5,2310.63,1450.14,2308.692,1453.763z"/>
    <path d="M2308.692,1446.895c2.28-1.498,2.28-1.871,0-3.368c-3.332-2.184-5.846-1.319-6.539,2.253 C2301.539,1448.943,2304.741,1449.488,2308.692,1446.895z"/>
    <path d="M2301.389,1440.611c0.787-2.362-8.581-7.026-5.735,0.392C2296.781,1443.938,2300.361,1443.693,2301.389,1440.611z"/>
    <path d="M2292.433,1432.615c-1.552-0.595-2.555,0.005-2.555,1.531C2289.877,1439.597,2297.573,1434.592,2292.433,1432.615z"/>
    <path d="M2283.178,1428.106c-2.1,0-3.563,1.105-3.563,2.69C2279.615,1437.204,2291.661,1428.106,2283.178,1428.106z"/>
  </g>
</svg>